<?xml version="1.0" encoding="UTF-8"?>
<svg id="b" data-name="Calque 2" xmlns="http://www.w3.org/2000/svg" width="216.36" height="345.11" viewBox="0 0 216.36 345.11">
  <g id="c" data-name="Calque 1">
    <g>
      <path d="M22.47,297.05c-7.36-1.55-14.9-2.25-22.46-2.08v35.26h-.01v-35.27c7.57-.17,15.11.53,22.47,2.09Z" style="fill: #80c8c3;"/>
      <path d="M26.18,297.9c1.47.36,2.92.77,4.37,1.2-1.45-.43-2.91-.84-4.37-1.2Z" style="fill: #80c8c3;"/>
      <path d="M46.04,305.11c6.59,2.67,13.58,4.22,20.67,4.61-7.1-.37-14.09-1.93-20.67-4.61Z" style="fill: #80c8c3;"/>
      <path d="M93.18,306.9c-5.08,1.59-10.34,2.54-15.66,2.82,5.32-.29,10.58-1.24,15.66-2.82Z" style="fill: #80c8c3;"/>
      <rect y="174.31" width=".01" height="35.29" style="fill: #80c8c3;"/>
      <path d="M89.75,187.22c-5.74,1.44-11.68,2.09-17.64,1.92-10.12.29-20.16-1.79-29.33-6.08-5.36-2.44-10.92-4.38-16.6-5.81,5.68,1.42,11.23,3.35,16.6,5.78,9.16,4.31,19.21,6.39,29.34,6.1,5.96.17,11.89-.48,17.63-1.91Z" style="fill: #80c8c3;"/>
      <path d="M37.96,241.35c-12.05-4.7-24.93-6.98-37.9-6.69v-.03c12.97-.3,25.85,2,37.9,6.72Z" style="fill: #80c8c3;"/>
      <path d="M41.65,280.61c2.24.67,4.51,1.27,6.79,1.77-2.28-.5-4.54-1.09-6.79-1.77Z" style="fill: #80c8c3;"/>
      <path d="M26.09,153.96c-8.27-3.31-17.15-4.9-26.09-4.64v-35.29h.01v35.25c8.94-.26,17.82,1.34,26.08,4.68Z" style="fill: #80c8c3;"/>
      <path d="M97.23,161.41c-8.2,2.01-16.64,2.93-25.11,2.73-13.86.33-27.61-2.3-40.35-7.7,12.75,5.36,26.5,7.98,40.35,7.67,8.48.18,16.92-.73,25.11-2.7Z" style="fill: #80c8c3;"/>
      <path d="M95.08,222.26c-7.52,1.67-15.22,2.43-22.96,2.24-14.75.33-29.38-2.68-42.78-8.79-9.18-4.29-19.22-6.37-29.33-6.08v-.03c10.13-.3,20.18,1.79,29.36,6.1,13.42,6.09,28.03,9.09,42.76,8.76,7.73.17,15.43-.57,22.95-2.2Z" style="fill: #80c8c3;"/>
      <path d="M29.4,276c2.86,1.3,5.78,2.46,8.74,3.47-2.97-1-5.89-2.16-8.75-3.46-9.18-4.29-19.22-6.37-29.33-6.07v-.04c10.12-.29,20.17,1.8,29.34,6.1Z" style="fill: #80c8c3;"/>
      <path d="M73.26,284.77c2.11.03,4.23-.01,6.33-.13-2.11.12-4.22.17-6.33.13Z" style="fill: #80c8c3;"/>
      <path d="M82.32,284.46c1.68-.14,3.35-.32,5.02-.54-1.67.23-3.34.41-5.02.54Z" style="fill: #80c8c3;"/>
      <rect x="70.99" y="38.46" width="37.22" height="0" style="fill: #80c8c3;"/>
      <rect x="70.99" width="74.38" height="38.46" style="fill: #80c8c3;"/>
      <path d="M216.32,128.84v35.27c-14.73.33-29.35-2.65-42.76-8.73-9.17-4.3-19.22-6.39-29.34-6.1-10.12-.29-20.18,1.8-29.34,6.1-4.83,2.18-9.81,3.96-14.9,5.32-.91.26-1.83.49-2.75.71-8.19,1.97-16.63,2.88-25.11,2.7-13.85.31-27.6-2.31-40.35-7.67-.81-.34-1.61-.69-2.4-1.05-1.08-.5-2.17-.98-3.28-1.43-8.26-3.34-17.14-4.94-26.08-4.68v-35.27c14.73-.33,29.35,2.65,42.77,8.72,9.16,4.31,19.21,6.4,29.34,6.1,10.12.3,20.17-1.79,29.33-6.1,13.43-6.06,28.04-9.03,42.77-8.72,14.73-.33,29.34,2.65,42.76,8.72h0c9.17,4.32,19.22,6.4,29.34,6.11Z" style="fill: #80c8c3;"/>
      <path d="M216.34,309.83v35.27c-.36.01-.71.02-1.07.01h-1.94c-13.71-.12-27.26-3.1-39.76-8.78-9.17-4.31-19.21-6.4-29.33-6.1-10.13-.3-20.18,1.79-29.34,6.1-6.72,3.06-13.75,5.34-20.94,6.8-.21.04-.42.09-.63.12-.41.09-.83.18-1.24.25-5.56,1.02-11.22,1.57-16.9,1.61h-1.97c-.36.01-.72,0-1.09-.01-.35.01-.71.02-1.07.01h-1.94c-13.7-.12-27.25-3.1-39.75-8.78-9.18-4.31-19.23-6.4-29.36-6.1v-35.26c7.56-.17,15.1.53,22.46,2.08,1.24.25,2.47.54,3.71.85,1.46.36,2.92.77,4.37,1.2,4.16,1.26,8.25,2.79,12.23,4.59,1.07.51,2.16.98,3.26,1.42,6.58,2.68,13.57,4.24,20.67,4.61,1.79.1,3.6.13,5.4.07,1.81.06,3.61.03,5.41-.07,5.32-.28,10.58-1.23,15.66-2.82.56-.17,1.12-.35,1.68-.55.56-.18,1.12-.38,1.67-.59,1.66-.62,3.3-1.31,4.91-2.07.07-.03.14-.06.21-.09,13.37-6,27.91-8.95,42.57-8.64h.02c14.73-.33,29.34,2.67,42.76,8.77,9.17,4.3,19.22,6.39,29.34,6.1Z" style="fill: #80c8c3;"/>
      <path d="M216.36,249.5v35.26c-14.74.33-29.34-2.66-42.76-8.76-9.16-4.3-19.22-6.39-29.34-6.1-10.12-.29-20.17,1.8-29.34,6.1-6.67,3.04-13.64,5.3-20.78,6.76-.29.07-.59.13-.89.18-.47.09-.94.18-1.4.26-.29.06-.57.11-.85.15-.44.08-.87.16-1.31.22-.78.13-1.56.25-2.35.35-1.67.22-3.34.4-5.02.54-.09,0-.17.02-.26.02-.82.06-1.64.12-2.47.16-2.1.12-4.22.16-6.33.13-.37.01-.73,0-1.1-.01-3.34.07-6.68-.03-9.99-.29-.87-.07-1.74-.15-2.61-.25-2.6-.27-5.19-.65-7.76-1.14-1.12-.21-2.24-.44-3.36-.7-2.28-.5-4.55-1.1-6.79-1.77-.83-.25-1.66-.51-2.49-.79-.34-.11-.68-.22-1.02-.35-2.96-1.01-5.88-2.17-8.74-3.47-9.17-4.3-19.22-6.39-29.34-6.1v-35.24c12.97-.29,25.85,1.99,37.9,6.69,1.62.64,3.24,1.33,4.83,2.05,2.15,1.01,4.34,1.9,6.58,2.65,7.29,2.49,15,3.66,22.75,3.44,10.12.3,20.17-1.8,29.33-6.1,13.42-6.09,28.04-9.09,42.77-8.76h0c14.75-.32,29.38,2.67,42.82,8.77,9.16,4.29,19.21,6.39,29.33,6.1Z" style="fill: #80c8c3;"/>
      <path d="M216.34,189.16v35.3c-14.74.33-29.35-2.67-42.77-8.76-9.16-4.31-19.21-6.4-29.33-6.1-10.13-.3-20.18,1.79-29.34,6.1-4.6,2.09-9.36,3.79-14.21,5.15-.92.26-1.85.52-2.77.75-.4.1-.79.19-1.18.28-.55.14-1.11.26-1.66.38-7.52,1.63-15.22,2.37-22.95,2.2-14.73.33-29.34-2.67-42.76-8.76-9.18-4.31-19.23-6.4-29.36-6.1v-35.29c8.84-.2,17.64.79,26.17,2.94,5.68,1.43,11.24,3.37,16.6,5.81,9.17,4.29,19.21,6.37,29.33,6.08,5.96.17,11.9-.48,17.64-1.92,1.16-.29,2.3-.61,3.43-.97.56-.17,1.12-.35,1.68-.55,2.24-.77,4.44-1.66,6.59-2.67,13.43-6.06,28.04-9.03,42.77-8.72h.02c14.73-.34,29.34,2.65,42.76,8.75,9.17,4.31,19.22,6.4,29.34,6.1Z" style="fill: #80c8c3;"/>
    </g>
  </g>
</svg>