<?xml version="1.0" encoding="UTF-8"?>
<svg id="b" data-name="Calque 2" xmlns="http://www.w3.org/2000/svg" width="216.37" height="345.13" viewBox="0 0 216.37 345.13">
  <g id="c" data-name="Calque 1">
    <g>
      <path id="d" data-name="Tracé 2866" d="M186.98,122.73c-13.43-6.07-28.03-9.05-42.76-8.72-14.73-.31-29.34,2.67-42.76,8.72-9.16,4.31-19.22,6.4-29.34,6.1-10.12.29-20.17-1.79-29.34-6.1C29.36,116.66,14.75,113.68.02,114.01v35.27c10.12-.29,20.17,1.79,29.34,6.1,13.42,6.07,28.03,9.06,42.76,8.72,14.73.31,29.34-2.67,42.76-8.72,9.16-4.31,19.22-6.39,29.34-6.1,10.12-.29,20.17,1.79,29.34,6.1,13.42,6.07,28.03,9.06,42.76,8.72v-35.27c-10.12.29-20.17-1.79-29.34-6.1" style="fill: #fff;"/>
      <path id="e" data-name="Tracé 2867" d="M144.22,294.96c-14.73-.31-29.34,2.67-42.76,8.72-9.16,4.31-19.22,6.39-29.34,6.1-10.12.29-20.17-1.79-29.34-6.1-13.43-6.07-28.04-9.06-42.78-8.72v35.27c10.13-.29,20.19,1.79,29.37,6.1,13.42,6.1,28.03,9.09,42.76,8.78,14.73.33,29.35-2.67,42.76-8.78,9.16-4.31,19.22-6.39,29.34-6.1,10.12-.29,20.17,1.79,29.34,6.1,13.42,6.1,28.03,9.09,42.76,8.78v-35.27c-10.12.29-20.17-1.79-29.34-6.1-13.42-6.1-28.03-9.09-42.76-8.76" style="fill: #fff;"/>
      <path id="f" data-name="Tracé 2868" d="M144.22,174.31c-14.73-.31-29.34,2.67-42.76,8.72-9.16,4.31-19.22,6.39-29.34,6.1-10.12.29-20.17-1.79-29.34-6.1-13.43-6.07-28.04-9.06-42.78-8.72v35.29c10.13-.29,20.19,1.79,29.37,6.1,13.42,6.09,28.03,9.09,42.76,8.77,14.73.33,29.35-2.67,42.76-8.77,9.16-4.31,19.22-6.39,29.34-6.1,10.12-.29,20.17,1.79,29.34,6.1,13.42,6.09,28.03,9.09,42.76,8.77v-35.3c-10.12.29-20.17-1.79-29.34-6.1-13.42-6.1-28.03-9.09-42.76-8.76" style="fill: #fff;"/>
      <path id="g" data-name="Tracé 2869" d="M144.22,234.63c-14.73-.33-29.35,2.67-42.76,8.76-9.16,4.31-19.22,6.4-29.34,6.1-10.12.29-20.17-1.79-29.34-6.1-13.4-6.1-28.01-9.09-42.72-8.76v35.27c10.12-.29,20.17,1.79,29.34,6.1,13.42,6.09,28.03,9.09,42.76,8.76,14.73.33,29.35-2.67,42.76-8.76,9.16-4.31,19.22-6.39,29.34-6.1,10.12-.29,20.17,1.79,29.34,6.1,13.42,6.09,28.03,9.09,42.76,8.76v-35.27c-10.12.29-20.17-1.8-29.34-6.1-13.43-6.09-28.07-9.09-42.82-8.76" style="fill: #fff;"/>
      <rect id="h" data-name="Rectangle 811" x="71" width="74.37" height="38.47" style="fill: #fff;"/>
    </g>
  </g>
</svg>