<svg xmlns="http://www.w3.org/2000/svg" viewBox="0 0 984 984">
  
  <path d="M 183,307 L 184,923 L 800,922 L 799,306 Z" fill="none" stroke="white" stroke-width="45" stroke-linejoin="round" stroke-linecap="round"/>
  <path d="M 421,700 L 485,636 L 520,669 L 516,677 L 651,678 L 650,725 L 515,727 L 520,733 L 486,766 Z" fill="none" stroke="white" stroke-width="45" stroke-linejoin="round" stroke-linecap="round"/>
  <path d="M 472,490 L 495,583 L 447,597 L 442,588 L 370,708 L 363,708 L 326,686 L 397,564 L 388,561 L 377,512 Z" fill="none" stroke="white" stroke-width="45" stroke-linejoin="round" stroke-linecap="round"/>
  <path d="M 485,451 L 527,428 L 599,548 L 603,549 L 608,541 L 653,554 L 630,648 L 535,624 L 546,578 L 556,574 Z" fill="none" stroke="white" stroke-width="45" stroke-linejoin="round" stroke-linecap="round"/>
  <path d="M 217,254 L 790,256 L 766,208 L 240,208 Z" fill="none" stroke="white" stroke-width="45" stroke-linejoin="round" stroke-linecap="round"/>
  <path d="M 232,60 L 233,158 L 751,157 L 750,59 Z" fill="none" stroke="white" stroke-width="45" stroke-linejoin="round" stroke-linecap="round"/>
</svg>