<svg xmlns="http://www.w3.org/2000/svg" viewBox="0 0 984 984">
  
  <path d="M 118,58 L 119,106 L 166,107 L 167,154 L 310,156 L 309,201 L 166,202 L 167,779 L 308,779 L 309,826 L 166,827 L 165,874 L 118,875 L 119,924 L 864,923 L 864,875 L 816,873 L 816,827 L 672,825 L 675,779 L 816,779 L 815,201 L 674,201 L 672,156 L 816,153 L 816,108 L 864,105 L 863,57 Z" fill="none" stroke="#80C7C2" stroke-width="45" stroke-linejoin="round" stroke-linecap="round"/>
  <path d="M 724,470 L 717,546 L 694,603 L 649,659 L 592,699 L 532,560 L 561,531 L 577,486 Z" fill="none" stroke="#80C7C2" stroke-width="45" stroke-linejoin="round" stroke-linecap="round"/>
  <path d="M 669,525 L 614,531 L 592,570 L 611,621 L 629,607 L 646,584 L 664,547 Z" fill="none" stroke="#80C7C2" stroke-width="45" stroke-linejoin="round" stroke-linecap="round"/>
  <path d="M 268,469 L 417,488 L 429,529 L 458,565 L 401,698 L 366,678 L 338,655 L 298,604 L 274,545 L 268,508 Z" fill="none" stroke="#80C7C2" stroke-width="45" stroke-linejoin="round" stroke-linecap="round"/>
  <path d="M 322,525 L 342,580 L 365,611 L 379,622 L 399,570 L 377,532 Z" fill="none" stroke="#80C7C2" stroke-width="45" stroke-linejoin="round" stroke-linecap="round"/>
  <path d="M 481,467 L 527,469 L 526,513 L 480,513 Z" fill="none" stroke="#80C7C2" stroke-width="45" stroke-linejoin="round" stroke-linecap="round"/>
  <path d="M 363,304 L 400,283 L 430,272 L 503,263 L 574,276 L 628,305 L 542,420 L 534,423 L 512,415 L 485,414 L 453,424 Z" fill="none" stroke="#80C7C2" stroke-width="45" stroke-linejoin="round" stroke-linecap="round"/>
  <path d="M 441,321 L 473,365 L 522,364 L 552,324 L 545,318 L 512,312 L 472,313 Z" fill="none" stroke="#80C7C2" stroke-width="45" stroke-linejoin="round" stroke-linecap="round"/>
</svg>