<svg xmlns="http://www.w3.org/2000/svg" viewBox="0 0 984 984">
  
  <path d="M 797,695 L 729,811 L 720,837 L 722,868 L 737,897 L 760,916 L 789,925 L 815,923 L 843,909 L 864,884 L 872,859 L 867,819 Z" fill="none" stroke="#1C1F3B" stroke-width="45" stroke-linejoin="round" stroke-linecap="round"/>
  <path d="M 93,348 L 94,563 L 274,563 L 308,602 L 331,619 L 361,634 L 403,644 L 443,643 L 485,631 L 531,602 L 565,563 L 695,564 L 696,659 L 889,658 L 889,466 L 884,438 L 858,389 L 834,367 L 805,352 L 776,346 L 565,346 L 534,310 L 509,291 L 477,275 L 432,265 L 386,268 L 340,285 L 306,309 L 274,346 Z" fill="none" stroke="#1C1F3B" stroke-width="45" stroke-linejoin="round" stroke-linecap="round"/>
  <path d="M 142,122 L 144,148 L 158,176 L 176,192 L 203,202 L 230,201 L 252,192 L 268,179 L 284,154 L 332,154 L 335,240 L 402,226 L 434,228 L 480,239 L 482,154 L 530,154 L 542,174 L 564,193 L 590,202 L 619,200 L 638,192 L 657,175 L 672,141 L 670,109 L 656,83 L 637,67 L 606,57 L 582,59 L 558,70 L 543,84 L 532,104 L 282,104 L 272,85 L 255,69 L 228,58 L 206,57 L 175,68 L 159,82 L 147,102 Z" fill="none" stroke="#1C1F3B" stroke-width="45" stroke-linejoin="round" stroke-linecap="round"/>
</svg>