<svg xmlns="http://www.w3.org/2000/svg" viewBox="0 0 984 984">
  
  <path d="M 307,876 L 308,924 L 673,923 L 673,875 L 618,872 L 610,805 L 515,822 L 442,820 L 372,805 L 361,874 Z" fill="none" stroke="white" stroke-width="45" stroke-linejoin="round" stroke-linecap="round"/>
  <path d="M 828,627 L 807,565 L 780,523 L 744,490 L 651,436 L 643,481 L 629,512 L 614,533 L 573,568 L 670,624 L 708,636 L 755,641 L 700,697 L 653,728 L 608,748 L 595,640 L 506,588 L 488,587 L 396,639 L 383,747 L 333,725 L 289,695 L 257,735 L 313,773 L 374,799 L 379,798 L 384,750 L 452,765 L 517,767 L 563,761 L 607,747 L 612,791 L 617,800 L 678,774 L 738,734 L 789,684 Z" fill="none" stroke="white" stroke-width="45" stroke-linejoin="round" stroke-linecap="round"/>
  <path d="M 490,333 L 446,346 L 416,371 L 397,408 L 394,446 L 406,485 L 428,513 L 466,534 L 507,538 L 544,527 L 577,500 L 595,467 L 599,423 L 588,388 L 563,357 L 529,338 Z" fill="none" stroke="white" stroke-width="45" stroke-linejoin="round" stroke-linecap="round"/>
  <path d="M 491,411 L 509,414 L 520,427 L 519,447 L 504,460 L 483,457 L 472,442 L 475,422 Z" fill="none" stroke="white" stroke-width="45" stroke-linejoin="round" stroke-linecap="round"/>
  <path d="M 357,80 L 293,110 L 245,145 L 213,176 L 171,231 L 135,305 L 115,389 L 114,474 L 130,552 L 164,628 L 240,641 L 291,635 L 339,616 L 418,571 L 419,567 L 379,534 L 362,510 L 348,477 L 342,437 L 239,498 L 212,525 L 189,559 L 175,522 L 166,476 L 167,388 L 175,349 L 193,299 L 226,242 L 275,188 L 319,155 L 375,127 Z" fill="none" stroke="white" stroke-width="45" stroke-linejoin="round" stroke-linecap="round"/>
  <path d="M 495,66 L 456,114 L 437,159 L 431,192 L 431,302 L 466,288 L 495,283 L 534,286 L 578,301 L 576,189 L 566,151 L 550,116 L 627,137 L 663,155 L 702,182 L 763,247 L 794,302 L 812,356 L 820,415 L 818,477 L 865,483 L 869,400 L 855,324 L 824,250 L 778,185 L 716,129 L 644,89 L 558,65 L 504,59 Z" fill="none" stroke="white" stroke-width="45" stroke-linejoin="round" stroke-linecap="round"/>
</svg>