<svg xmlns="http://www.w3.org/2000/svg" viewBox="0 0 984 984">
  
  <path d="M 180,466 L 124,548 L 100,598 L 77,665 L 65,721 L 59,778 L 60,924 L 516,923 L 516,780 L 504,689 L 488,632 L 468,582 L 414,490 L 394,466 Z" fill="none" stroke="#80C7C2" stroke-width="45" stroke-linejoin="round" stroke-linecap="round"/>
  <path d="M 876,370 L 876,418 L 923,418 L 923,370 Z" fill="none" stroke="#80C7C2" stroke-width="45" stroke-linejoin="round" stroke-linecap="round"/>
  <path d="M 780,322 L 780,370 L 828,370 L 828,322 Z" fill="none" stroke="#80C7C2" stroke-width="45" stroke-linejoin="round" stroke-linecap="round"/>
  <path d="M 875,251 L 877,299 L 923,298 L 923,250 Z" fill="none" stroke="#80C7C2" stroke-width="45" stroke-linejoin="round" stroke-linecap="round"/>
  <path d="M 683,250 L 683,298 L 729,299 L 730,250 Z" fill="none" stroke="#80C7C2" stroke-width="45" stroke-linejoin="round" stroke-linecap="round"/>
  <path d="M 780,202 L 781,250 L 828,249 L 828,202 Z" fill="none" stroke="#80C7C2" stroke-width="45" stroke-linejoin="round" stroke-linecap="round"/>
  <path d="M 876,153 L 876,201 L 923,200 L 922,153 Z" fill="none" stroke="#80C7C2" stroke-width="45" stroke-linejoin="round" stroke-linecap="round"/>
  <path d="M 683,154 L 684,201 L 731,200 L 730,153 Z" fill="none" stroke="#80C7C2" stroke-width="45" stroke-linejoin="round" stroke-linecap="round"/>
  <path d="M 468,154 L 468,314 L 483,355 L 513,391 L 544,410 L 574,418 L 613,418 L 613,369 L 576,368 L 557,362 L 533,343 L 522,325 L 565,320 L 564,153 Z" fill="none" stroke="#80C7C2" stroke-width="45" stroke-linejoin="round" stroke-linecap="round"/>
  <path d="M 155,154 L 155,294 L 226,346 L 227,418 L 371,418 L 371,348 L 419,345 L 418,153 Z" fill="none" stroke="#80C7C2" stroke-width="45" stroke-linejoin="round" stroke-linecap="round"/>
  <path d="M 779,107 L 781,154 L 828,153 L 827,105 Z" fill="none" stroke="#80C7C2" stroke-width="45" stroke-linejoin="round" stroke-linecap="round"/>
  <path d="M 877,57 L 876,106 L 923,105 L 922,57 Z" fill="none" stroke="#80C7C2" stroke-width="45" stroke-linejoin="round" stroke-linecap="round"/>
</svg>