<svg xmlns="http://www.w3.org/2000/svg" viewBox="0 0 984 984">
  
  <path d="M 826,189 L 531,189 L 532,239 L 589,240 L 627,336 L 409,335 L 410,288 L 458,286 L 457,238 L 310,238 L 311,288 L 359,290 L 358,355 L 305,437 L 242,422 L 185,428 L 129,453 L 85,494 L 56,547 L 46,599 L 51,652 L 77,711 L 98,737 L 125,760 L 150,775 L 189,789 L 252,793 L 282,787 L 321,771 L 369,733 L 390,705 L 404,676 L 423,680 L 453,678 L 473,669 L 491,653 L 509,609 L 634,408 L 651,451 L 619,473 L 593,499 L 571,534 L 558,575 L 559,642 L 568,671 L 584,701 L 615,736 L 644,760 L 669,775 L 708,789 L 743,794 L 784,791 L 821,780 L 856,761 L 901,717 L 930,657 L 936,594 L 930,559 L 918,527 L 899,496 L 874,469 L 826,438 L 761,422 L 698,430 L 618,240 L 775,239 L 775,253 L 767,269 L 753,282 L 728,290 L 729,341 L 745,340 L 786,322 L 815,288 L 826,255 Z" fill="none" stroke="#80C7C2" stroke-width="45" stroke-linejoin="round" stroke-linecap="round"/>
  <path d="M 598,389 L 495,560 L 456,540 L 433,539 L 406,545 L 385,503 L 353,467 L 405,386 Z" fill="none" stroke="#80C7C2" stroke-width="45" stroke-linejoin="round" stroke-linecap="round"/>
</svg>