<svg xmlns="http://www.w3.org/2000/svg" viewBox="0 0 984 984">
  
  <path d="M 206,869 L 207,917 L 815,916 L 814,868 L 717,866 L 716,771 L 619,772 L 617,868 L 427,868 L 424,771 L 327,772 L 325,868 Z" fill="none" stroke="white" stroke-width="45" stroke-linejoin="round" stroke-linecap="round"/>
  <path d="M 569,72 L 535,89 L 528,98 L 551,137 L 563,180 L 623,224 L 655,273 L 666,311 L 668,357 L 662,389 L 650,420 L 675,446 L 696,477 L 710,510 L 717,542 L 718,588 L 707,637 L 684,682 L 650,721 L 786,722 L 827,712 L 859,695 L 893,663 L 913,629 L 923,590 L 922,544 L 906,498 L 888,472 L 840,432 L 863,393 L 872,363 L 873,328 L 863,289 L 849,266 L 829,246 L 771,216 L 765,175 L 752,143 L 734,117 L 708,93 L 676,75 L 645,66 L 608,64 Z" fill="none" stroke="white" stroke-width="45" stroke-linejoin="round" stroke-linecap="round"/>
  <path d="M 312,73 L 276,92 L 243,124 L 221,165 L 212,216 L 152,247 L 128,273 L 117,294 L 109,329 L 111,368 L 120,395 L 142,432 L 95,472 L 68,517 L 60,547 L 59,589 L 70,630 L 89,662 L 115,688 L 150,709 L 188,720 L 517,722 L 572,711 L 612,688 L 643,655 L 659,624 L 668,581 L 665,537 L 650,497 L 621,460 L 584,432 L 609,389 L 616,364 L 617,326 L 609,293 L 598,272 L 574,246 L 517,216 L 510,171 L 496,139 L 476,112 L 453,92 L 417,73 L 384,65 L 344,65 Z" fill="none" stroke="white" stroke-width="45" stroke-linejoin="round" stroke-linecap="round"/>
</svg>