<svg xmlns="http://www.w3.org/2000/svg" viewBox="0 0 984 984">
  
  <path d="M 153,250 L 103,925 L 881,924 L 827,249 L 565,249 L 535,287 L 497,301 L 473,299 L 451,290 L 430,271 L 417,249 Z" fill="none" stroke="#80C7C2" stroke-width="45" stroke-linejoin="round" stroke-linecap="round"/>
  <path d="M 464,706 L 552,619 L 584,652 L 556,684 L 634,681 L 614,648 L 652,623 L 721,731 L 555,731 L 584,763 L 551,795 Z" fill="none" stroke="#80C7C2" stroke-width="45" stroke-linejoin="round" stroke-linecap="round"/>
  <path d="M 427,527 L 453,648 L 408,656 L 398,616 L 357,684 L 420,685 L 419,731 L 270,729 L 357,592 L 315,598 L 305,554 Z" fill="none" stroke="#80C7C2" stroke-width="45" stroke-linejoin="round" stroke-linecap="round"/>
  <path d="M 490,372 L 582,513 L 593,469 L 640,479 L 613,606 L 484,579 L 495,532 L 539,539 L 490,465 L 464,505 L 426,482 L 424,477 Z" fill="none" stroke="#80C7C2" stroke-width="45" stroke-linejoin="round" stroke-linecap="round"/>
  <path d="M 484,210 L 468,221 L 464,239 L 475,257 L 495,261 L 512,249 L 515,228 L 502,212 Z" fill="none" stroke="#80C7C2" stroke-width="45" stroke-linejoin="round" stroke-linecap="round"/>
  <path d="M 108,58 L 108,202 L 419,203 L 448,169 L 469,158 L 492,154 L 532,164 L 552,180 L 565,202 L 879,202 L 878,57 Z" fill="none" stroke="#80C7C2" stroke-width="45" stroke-linejoin="round" stroke-linecap="round"/>
</svg>