<svg xmlns="http://www.w3.org/2000/svg" viewBox="0 0 100 100">
  <g fill="none" stroke="#1C1F3B" stroke-width="2.5" stroke-linejoin="round" stroke-linecap="round">
    <rect x="5" y="32" width="90" height="36" rx="1"/>
    <line x1="34" y1="32" x2="34" y2="68"/>
    <line x1="49" y1="32" x2="49" y2="68"/>
    <line x1="64" y1="32" x2="64" y2="68"/>
    <line x1="79" y1="32" x2="79" y2="68"/>
    <line x1="19" y1="32" x2="19" y2="68"/>
    <line x1="5" y1="41" x2="10" y2="41"/>
    <line x1="5" y1="50" x2="10" y2="50"/>
    <line x1="5" y1="59" x2="10" y2="59"/>
    <line x1="11" y1="40" x2="11" y2="60"/>
    <circle cx="13" cy="50" r="2.5"/>
    <rect x="5" y="32" width="4" height="4"/>
    <rect x="91" y="32" width="4" height="4"/>
    <rect x="5" y="64" width="4" height="4"/>
    <rect x="91" y="64" width="4" height="4"/>
    <text x="50" y="27" text-anchor="middle" font-size="10" font-family="Arial" font-weight="bold" stroke="none" fill="#1C1F3B">20'</text>
  </g>
</svg>