<svg xmlns="http://www.w3.org/2000/svg" viewBox="0 0 100 100">
  <g fill="none" stroke="#1C1F3B" stroke-width="2.5" stroke-linejoin="round" stroke-linecap="round">
    <rect x="5" y="32" width="90" height="36" rx="1"/>
    <line x1="25" y1="32" x2="25" y2="68"/>
    <line x1="35" y1="32" x2="35" y2="68"/>
    <line x1="45" y1="32" x2="45" y2="68"/>
    <line x1="55" y1="32" x2="55" y2="68"/>
    <line x1="65" y1="32" x2="65" y2="68"/>
    <line x1="75" y1="32" x2="75" y2="68"/>
    <line x1="85" y1="32" x2="85" y2="68"/>
    <line x1="15" y1="32" x2="15" y2="68"/>
    <line x1="5" y1="41" x2="10" y2="41"/>
    <line x1="5" y1="50" x2="10" y2="50"/>
    <line x1="5" y1="59" x2="10" y2="59"/>
    <line x1="10" y1="40" x2="10" y2="60"/>
    <circle cx="12" cy="50" r="2.5"/>
    <rect x="5" y="32" width="4" height="4"/>
    <rect x="91" y="32" width="4" height="4"/>
    <rect x="5" y="64" width="4" height="4"/>
    <rect x="91" y="64" width="4" height="4"/>
    <text x="50" y="27" text-anchor="middle" font-size="10" font-family="Arial" font-weight="bold" stroke="none" fill="#1C1F3B">40'</text>
  </g>
</svg>