<svg xmlns="http://www.w3.org/2000/svg" viewBox="0 0 984 984">
  
  <path d="M 262,781 L 263,925 L 721,924 L 720,780 Z" fill="none" stroke="white" stroke-width="45" stroke-linejoin="round" stroke-linecap="round"/>
  <path d="M 262,371 L 263,732 L 720,731 L 719,370 Z" fill="none" stroke="white" stroke-width="45" stroke-linejoin="round" stroke-linecap="round"/>
  <path d="M 359,421 L 514,420 L 544,428 L 572,444 L 600,473 L 617,508 L 622,533 L 621,610 L 473,610 L 442,603 L 413,588 L 384,560 L 363,517 Z" fill="none" stroke="white" stroke-width="45" stroke-linejoin="round" stroke-linecap="round"/>
  <path d="M 407,468 L 407,496 L 413,518 L 424,536 L 445,554 L 469,563 L 494,564 L 450,527 L 478,490 L 552,546 L 550,524 L 541,503 L 516,478 L 484,467 Z" fill="none" stroke="white" stroke-width="45" stroke-linejoin="round" stroke-linecap="round"/>
  <path d="M 262,155 L 263,299 L 721,298 L 720,154 Z" fill="none" stroke="white" stroke-width="45" stroke-linejoin="round" stroke-linecap="round"/>
  <path d="M 358,59 L 359,106 L 623,105 L 622,57 Z" fill="none" stroke="white" stroke-width="45" stroke-linejoin="round" stroke-linecap="round"/>
</svg>