<svg xmlns="http://www.w3.org/2000/svg" viewBox="0 0 984 984">
  
  <path d="M 743,541 L 699,567 L 832,787 L 559,786 L 589,755 L 553,720 L 462,815 L 551,904 L 589,869 L 559,839 L 921,835 Z" fill="none" stroke="#1C1F3B" stroke-width="45" stroke-linejoin="round" stroke-linecap="round"/>
  <path d="M 313,461 L 188,495 L 200,542 L 240,536 L 60,835 L 410,836 L 409,786 L 148,785 L 285,559 L 299,599 L 348,587 Z" fill="none" stroke="#1C1F3B" stroke-width="45" stroke-linejoin="round" stroke-linecap="round"/>
  <path d="M 486,390 L 395,543 L 379,590 L 385,635 L 406,670 L 442,696 L 482,705 L 522,698 L 555,678 L 578,649 L 590,610 L 590,587 L 583,561 Z" fill="none" stroke="#1C1F3B" stroke-width="45" stroke-linejoin="round" stroke-linecap="round"/>
  <path d="M 483,78 L 303,390 L 346,416 L 350,414 L 485,181 L 626,423 L 581,414 L 569,465 L 703,499 L 737,366 L 686,353 L 675,394 L 671,395 Z" fill="none" stroke="#1C1F3B" stroke-width="45" stroke-linejoin="round" stroke-linecap="round"/>
</svg>