<svg xmlns="http://www.w3.org/2000/svg" viewBox="0 0 984 984">
  
  <path d="M 310,877 L 312,925 L 672,924 L 671,876 L 620,876 L 602,828 L 416,828 L 397,876 Z" fill="none" stroke="white" stroke-width="45" stroke-linejoin="round" stroke-linecap="round"/>
  <path d="M 703,637 L 727,782 L 872,782 L 847,636 Z" fill="none" stroke="white" stroke-width="45" stroke-linejoin="round" stroke-linecap="round"/>
  <path d="M 528,638 L 529,782 L 677,781 L 652,636 Z" fill="none" stroke="white" stroke-width="45" stroke-linejoin="round" stroke-linecap="round"/>
  <path d="M 332,637 L 309,782 L 457,781 L 456,636 Z" fill="none" stroke="white" stroke-width="45" stroke-linejoin="round" stroke-linecap="round"/>
  <path d="M 135,636 L 111,782 L 255,781 L 279,638 Z" fill="none" stroke="white" stroke-width="45" stroke-linejoin="round" stroke-linecap="round"/>
  <path d="M 669,420 L 694,566 L 837,565 L 813,420 Z" fill="none" stroke="white" stroke-width="45" stroke-linejoin="round" stroke-linecap="round"/>
  <path d="M 528,420 L 528,565 L 644,565 L 619,420 Z" fill="none" stroke="white" stroke-width="45" stroke-linejoin="round" stroke-linecap="round"/>
  <path d="M 363,421 L 341,566 L 456,565 L 456,420 Z" fill="none" stroke="white" stroke-width="45" stroke-linejoin="round" stroke-linecap="round"/>
  <path d="M 168,420 L 145,566 L 288,566 L 312,420 Z" fill="none" stroke="white" stroke-width="45" stroke-linejoin="round" stroke-linecap="round"/>
  <path d="M 215,323 L 216,371 L 770,369 L 769,322 L 647,321 L 636,277 L 616,239 L 685,162 L 650,126 L 581,201 L 542,177 L 507,167 L 503,57 L 455,59 L 454,167 L 419,177 L 380,201 L 309,126 L 276,163 L 344,239 L 322,284 L 314,320 Z" fill="none" stroke="white" stroke-width="45" stroke-linejoin="round" stroke-linecap="round"/>
</svg>