<svg xmlns="http://www.w3.org/2000/svg" viewBox="0 0 984 984">
  
  <path d="M 890,59 L 779,166 L 719,108 L 482,108 L 59,527 L 450,923 L 873,500 L 874,265 L 815,203 L 924,93 Z" fill="none" stroke="#1C1F3B" stroke-width="45" stroke-linejoin="round" stroke-linecap="round"/>
  <path d="M 315,547 L 409,545 L 411,592 L 401,595 L 505,691 L 468,722 L 366,629 L 362,630 L 361,642 L 315,641 Z" fill="none" stroke="#1C1F3B" stroke-width="45" stroke-linejoin="round" stroke-linecap="round"/>
  <path d="M 576,433 L 579,437 L 546,570 L 555,568 L 579,609 L 498,658 L 449,576 L 490,551 L 498,557 L 531,423 Z" fill="none" stroke="#1C1F3B" stroke-width="45" stroke-linejoin="round" stroke-linecap="round"/>
  <path d="M 498,440 L 447,521 L 407,494 L 411,487 L 274,519 L 262,473 L 397,439 L 393,427 L 417,390 Z" fill="none" stroke="#1C1F3B" stroke-width="45" stroke-linejoin="round" stroke-linecap="round"/>
  <path d="M 658,243 L 689,248 L 712,262 L 727,280 L 737,308 L 736,336 L 724,363 L 703,383 L 671,394 L 638,391 L 615,378 L 596,355 L 587,325 L 590,297 L 604,271 L 625,253 Z" fill="none" stroke="#1C1F3B" stroke-width="45" stroke-linejoin="round" stroke-linecap="round"/>
  <path d="M 657,293 L 639,305 L 635,321 L 647,341 L 666,345 L 683,333 L 687,316 L 677,298 Z" fill="none" stroke="#1C1F3B" stroke-width="45" stroke-linejoin="round" stroke-linecap="round"/>
</svg>