<svg xmlns="http://www.w3.org/2000/svg" viewBox="0 0 984 984">
  
  <path d="M 58,563 L 59,924 L 924,923 L 923,580 L 700,418 L 683,419 L 679,540 L 518,419 L 468,418 L 465,562 Z" fill="none" stroke="white" stroke-width="45" stroke-linejoin="round" stroke-linecap="round"/>
  <path d="M 685,659 L 826,660 L 824,803 L 684,801 Z" fill="none" stroke="white" stroke-width="45" stroke-linejoin="round" stroke-linecap="round"/>
  <path d="M 730,707 L 731,755 L 778,754 L 777,706 Z" fill="none" stroke="white" stroke-width="45" stroke-linejoin="round" stroke-linecap="round"/>
  <path d="M 421,659 L 562,660 L 560,803 L 420,802 Z" fill="none" stroke="white" stroke-width="45" stroke-linejoin="round" stroke-linecap="round"/>
  <path d="M 466,707 L 468,755 L 514,754 L 513,706 Z" fill="none" stroke="white" stroke-width="45" stroke-linejoin="round" stroke-linecap="round"/>
  <path d="M 180,659 L 322,661 L 319,803 L 179,801 Z" fill="none" stroke="white" stroke-width="45" stroke-linejoin="round" stroke-linecap="round"/>
  <path d="M 226,707 L 227,755 L 272,755 L 273,706 Z" fill="none" stroke="white" stroke-width="45" stroke-linejoin="round" stroke-linecap="round"/>
  <path d="M 274,322 L 274,514 L 370,514 L 371,324 Z" fill="none" stroke="white" stroke-width="45" stroke-linejoin="round" stroke-linecap="round"/>
  <path d="M 81,323 L 82,514 L 177,513 L 176,322 Z" fill="none" stroke="white" stroke-width="45" stroke-linejoin="round" stroke-linecap="round"/>
  <path d="M 611,57 L 477,58 L 443,68 L 421,81 L 397,104 L 379,135 L 370,176 L 371,231 L 490,129 L 521,164 L 425,250 L 510,248 L 536,240 L 562,225 L 590,196 L 606,164 L 612,133 Z" fill="none" stroke="white" stroke-width="45" stroke-linejoin="round" stroke-linecap="round"/>
  <path d="M 322,57 L 189,58 L 162,65 L 134,80 L 107,106 L 89,139 L 82,170 L 82,231 L 202,129 L 232,165 L 137,250 L 216,249 L 240,243 L 268,229 L 300,198 L 319,159 L 323,139 Z" fill="none" stroke="white" stroke-width="45" stroke-linejoin="round" stroke-linecap="round"/>
</svg>