<svg xmlns="http://www.w3.org/2000/svg" viewBox="0 0 984 984">
  
  <path d="M 406,821 L 406,854 L 412,877 L 427,901 L 453,919 L 489,923 L 507,918 L 535,897 L 547,877 L 553,852 L 552,820 Z" fill="none" stroke="white" stroke-width="45" stroke-linejoin="round" stroke-linecap="round"/>
  <path d="M 328,723 L 377,771 L 590,771 L 640,722 Z" fill="none" stroke="white" stroke-width="45" stroke-linejoin="round" stroke-linecap="round"/>
  <path d="M 308,625 L 310,673 L 674,672 L 673,624 Z" fill="none" stroke="white" stroke-width="45" stroke-linejoin="round" stroke-linecap="round"/>
  <path d="M 306,125 L 264,168 L 227,229 L 207,294 L 203,360 L 210,408 L 227,459 L 259,514 L 307,564 L 308,577 L 674,576 L 675,563 L 717,521 L 752,465 L 770,415 L 778,367 L 777,312 L 766,260 L 741,203 L 713,163 L 675,125 L 626,92 L 572,70 L 521,60 L 461,60 L 403,72 L 348,96 Z" fill="none" stroke="white" stroke-width="45" stroke-linejoin="round" stroke-linecap="round"/>
  <path d="M 397,405 L 460,341 L 494,375 L 490,382 L 624,383 L 623,429 L 491,429 L 494,438 L 462,470 Z" fill="none" stroke="white" stroke-width="45" stroke-linejoin="round" stroke-linecap="round"/>
  <path d="M 449,206 L 473,301 L 425,311 L 423,304 L 350,423 L 307,401 L 378,279 L 367,275 L 356,231 Z" fill="none" stroke="white" stroke-width="45" stroke-linejoin="round" stroke-linecap="round"/>
  <path d="M 465,168 L 505,146 L 578,266 L 583,257 L 631,270 L 607,363 L 513,340 L 524,294 L 535,291 L 463,173 Z" fill="none" stroke="white" stroke-width="45" stroke-linejoin="round" stroke-linecap="round"/>
</svg>