<svg xmlns="http://www.w3.org/2000/svg" viewBox="0 0 984 984">
  
  <path d="M 708,765 L 680,775 L 661,791 L 646,819 L 643,847 L 653,879 L 671,900 L 698,915 L 726,918 L 757,908 L 779,890 L 792,868 L 797,837 L 789,807 L 769,782 L 744,768 Z" fill="none" stroke="white" stroke-width="45" stroke-linejoin="round" stroke-linecap="round"/>
  <path d="M 250,765 L 223,774 L 200,794 L 188,817 L 185,852 L 195,880 L 216,903 L 243,916 L 268,918 L 300,907 L 320,890 L 335,861 L 337,831 L 327,802 L 305,778 L 278,766 Z" fill="none" stroke="white" stroke-width="45" stroke-linejoin="round" stroke-linecap="round"/>
  <path d="M 58,617 L 60,881 L 137,880 L 138,823 L 158,777 L 197,740 L 247,723 L 299,728 L 325,740 L 351,761 L 368,783 L 381,811 L 387,839 L 387,881 L 594,881 L 597,822 L 618,775 L 639,752 L 659,738 L 707,723 L 741,724 L 768,732 L 794,747 L 815,767 L 829,787 L 842,819 L 846,842 L 844,880 L 925,879 L 924,616 L 724,616 L 622,423 L 252,425 L 202,616 Z" fill="none" stroke="white" stroke-width="45" stroke-linejoin="round" stroke-linecap="round"/>
  <path d="M 421,713 L 515,714 L 515,758 L 422,760 Z" fill="none" stroke="white" stroke-width="45" stroke-linejoin="round" stroke-linecap="round"/>
  <path d="M 303,522 L 541,522 L 611,662 L 268,663 Z" fill="none" stroke="white" stroke-width="45" stroke-linejoin="round" stroke-linecap="round"/>
  <path d="M 328,615 L 534,613 L 508,568 L 341,568 Z" fill="none" stroke="white" stroke-width="45" stroke-linejoin="round" stroke-linecap="round"/>
  <path d="M 829,113 L 733,110 L 731,63 L 540,63 L 504,74 L 481,95 L 468,125 L 466,159 L 60,159 L 59,570 L 107,569 L 108,209 L 467,210 L 467,237 L 476,265 L 493,286 L 514,299 L 542,305 L 731,305 L 734,257 L 829,256 L 829,208 L 733,206 L 734,161 L 828,160 Z" fill="none" stroke="white" stroke-width="45" stroke-linejoin="round" stroke-linecap="round"/>
</svg>