<svg xmlns="http://www.w3.org/2000/svg" viewBox="0 0 984 984">
  
  <path d="M 922,688 L 785,460 L 771,563 L 677,524 L 772,688 L 574,689 L 570,616 L 374,765 L 572,912 L 574,839 L 861,839 Z" fill="none" stroke="#80C7C2" stroke-width="45" stroke-linejoin="round" stroke-linecap="round"/>
  <path d="M 350,322 L 121,419 L 193,464 L 60,693 L 139,840 L 375,838 L 278,765 L 374,690 L 225,687 L 313,530 L 380,566 Z" fill="none" stroke="#80C7C2" stroke-width="45" stroke-linejoin="round" stroke-linecap="round"/>
  <path d="M 420,69 L 300,276 L 400,235 L 416,354 L 494,214 L 501,208 L 579,342 L 504,388 L 746,489 L 775,230 L 698,274 L 577,69 Z" fill="none" stroke="#80C7C2" stroke-width="45" stroke-linejoin="round" stroke-linecap="round"/>
</svg>