<svg xmlns="http://www.w3.org/2000/svg" viewBox="0 0 984 984">
  
  <path d="M 382,317 L 368,333 L 362,350 L 368,385 L 327,409 L 283,448 L 251,490 L 223,548 L 211,594 L 207,631 L 206,823 L 158,824 L 159,923 L 825,922 L 824,823 L 775,822 L 772,599 L 753,532 L 721,475 L 673,423 L 614,385 L 620,366 L 617,339 L 600,317 L 585,309 L 409,306 Z" fill="none" stroke="white" stroke-width="45" stroke-linejoin="round" stroke-linecap="round"/>
  <path d="M 421,749 L 486,684 L 519,717 L 516,726 L 651,727 L 651,772 L 515,774 L 519,783 L 485,815 Z" fill="none" stroke="white" stroke-width="45" stroke-linejoin="round" stroke-linecap="round"/>
  <path d="M 465,544 L 486,639 L 444,649 L 434,642 L 361,764 L 319,739 L 390,617 L 380,613 L 370,566 Z" fill="none" stroke="white" stroke-width="45" stroke-linejoin="round" stroke-linecap="round"/>
  <path d="M 518,481 L 592,601 L 602,595 L 646,608 L 622,701 L 528,677 L 540,630 L 549,629 L 476,507 Z" fill="none" stroke="white" stroke-width="45" stroke-linejoin="round" stroke-linecap="round"/>
  <path d="M 355,60 L 355,146 L 362,179 L 386,222 L 423,253 L 472,268 L 528,264 L 575,241 L 598,219 L 612,198 L 626,153 L 625,59 Z" fill="none" stroke="white" stroke-width="45" stroke-linejoin="round" stroke-linecap="round"/>
</svg>