<svg xmlns="http://www.w3.org/2000/svg" viewBox="0 0 984 984">
  
  <path d="M 57,251 L 57,297 L 105,300 L 106,924 L 876,924 L 877,299 L 925,298 L 924,250 Z" fill="none" stroke="#1C1F3B" stroke-width="45" stroke-linejoin="round" stroke-linecap="round"/>
  <path d="M 456,754 L 543,667 L 576,700 L 548,732 L 626,729 L 607,694 L 644,671 L 713,777 L 547,779 L 576,811 L 542,843 Z" fill="none" stroke="#1C1F3B" stroke-width="45" stroke-linejoin="round" stroke-linecap="round"/>
  <path d="M 425,575 L 451,696 L 406,704 L 398,667 L 394,666 L 354,730 L 418,733 L 418,777 L 271,779 L 355,641 L 354,638 L 313,646 L 305,601 Z" fill="none" stroke="#1C1F3B" stroke-width="45" stroke-linejoin="round" stroke-linecap="round"/>
  <path d="M 480,400 L 484,399 L 573,537 L 584,495 L 632,506 L 604,633 L 477,605 L 488,557 L 530,563 L 483,491 L 455,530 L 417,506 L 423,490 Z" fill="none" stroke="#1C1F3B" stroke-width="45" stroke-linejoin="round" stroke-linecap="round"/>
  <path d="M 562,107 L 564,203 L 827,202 L 826,108 L 757,106 L 755,58 L 610,59 L 610,104 Z" fill="none" stroke="#1C1F3B" stroke-width="45" stroke-linejoin="round" stroke-linecap="round"/>
  <path d="M 153,107 L 155,203 L 418,202 L 418,106 L 348,106 L 346,58 L 201,59 L 201,104 Z" fill="none" stroke="#1C1F3B" stroke-width="45" stroke-linejoin="round" stroke-linecap="round"/>
</svg>