<?xml version='1.0' encoding='UTF-8'?>
<svg xmlns="http://www.w3.org/2000/svg" viewBox="1601.0 145.2 625.7 608.3" width="1920" height="1867" data-region="Asie du Sud-Est" data-version="2.0" data-source="POF design system v3.3.0 - vectorized regional crop"><defs /><rect x="1600.98" y="145.2" width="625.69" height="608.3399999999999" fill="#FFFFFF" /><g id="pof-map-base" fill="#EAEBED" stroke="#FFFFFF" stroke-width="0.8"><path d="M1726.98,236.59L1724.77,241.56L1720.14,242.26L1723.18,249.78L1721.30,253.18L1708.33,250.70L1709.51,264.19L1707.07,265.87L1696.20,268.89L1706.73,282.06L1703.24,284.04L1705.32,288.37L1701.11,287.26L1697.02,284.52L1687.58,283.73L1677.29,283.52L1675.35,284.36L1665.47,281.16L1662.51,282.74L1663.07,287.22L1652.05,284.61L1648.34,285.68L1648.03,289.01L1644.93,290.42L1638.40,295.73L1637.31,301.19L1635.00,301.24L1632.22,297.62L1624.23,297.37L1621.13,291.13L1618.09,291.08L1616.25,283.45L1607.20,277.90L1596.85,278.49L1589.98,279.60L1582.13,272.77L1576.31,269.90L1565.32,264.49L1564.00,263.83L1549.59,268.30L1557.09,296.30L1553.99,296.68L1548.18,290.70L1543.47,288.57L1536.83,290.15L1534.69,292.69L1533.91,290.83L1534.67,287.66L1532.86,285.01L1525.09,282.42L1520.69,275.61L1516.85,273.69L1516.05,271.22L1522.17,271.94L1521.04,266.41L1525.90,265.18L1531.49,266.31L1530.68,258.95L1528.37,254.29L1522.44,254.65L1516.85,252.82L1510.72,256.13L1505.47,257.71L1502.11,256.49L1501.78,252.62L1496.73,247.60L1492.33,247.81L1486.03,242.72L1488.06,237.06L1485.94,235.54L1488.51,227.36L1495.73,231.67L1494.98,226.24L1504.72,218.19L1513.76,218.00L1528.23,223.12L1536.13,226.12L1541.33,222.99L1550.56,222.84L1559.37,226.68L1560.32,224.48L1568.66,224.80L1568.88,221.29L1557.61,216.21L1561.87,212.62L1560.04,210.62L1564.86,208.71L1558.78,203.69L1560.44,201.19L1580.79,198.65L1582.81,196.85L1595.87,194.17L1599.61,191.16L1610.50,192.72L1615.76,200.27L1620.90,198.49L1629.40,200.98L1630.78,204.97L1636.09,204.55L1647.11,197.66L1646.15,199.95L1656.22,205.60L1678.08,224.32L1679.39,220.44L1689.46,224.71L1696.97,222.80L1700.85,224.13L1705.73,228.42L1710.53,229.87L1714.54,233.03L1721.68,232.03L1726.98,236.59Z" data-iso2="KZ" data-iso3="KAZ" data-name="Kazakhstan" /><path d="M1557.09,296.30L1549.59,268.30L1564.00,263.83L1565.32,264.49L1576.31,269.90L1582.13,272.77L1589.98,279.60L1596.85,278.49L1607.20,277.90L1616.25,283.45L1618.09,291.08L1621.13,291.13L1624.23,297.37L1632.22,297.62L1635.00,301.24L1637.31,301.19L1638.40,295.73L1644.93,290.42L1648.03,289.01L1650.11,289.76L1646.47,294.69L1651.95,297.56L1655.79,295.66L1664.44,299.68L1658.13,305.18L1653.15,304.43L1650.62,304.62L1649.10,302.50L1649.32,298.96L1641.52,300.74L1640.97,305.64L1639.19,309.86L1633.85,309.50L1633.14,312.87L1638.25,314.70L1641.13,320.40L1639.55,328.16L1634.36,326.54L1630.82,326.49L1629.82,321.80L1620.59,318.52L1613.05,314.77L1608.03,311.16L1599.49,305.88L1594.34,298.01L1591.87,296.63L1585.24,296.98L1582.45,295.42L1580.15,289.34L1570.74,285.32L1566.71,289.74L1562.09,292.36L1564.08,296.20L1557.09,296.30Z" data-iso2="UZ" data-iso3="UZB" data-name="Uzbekistan" /><path d="M2166.67,633.85L2178.22,639.15L2190.56,643.56L2195.02,647.50L2198.56,651.36L2199.31,655.90L2210.29,660.65L2211.64,664.73L2205.34,665.56L2206.44,670.68L2212.06,675.73L2215.70,683.89L2219.60,683.63L2218.98,687.04L2224.07,688.35L2221.88,689.80L2228.71,693.03L2227.70,695.26L2223.16,695.79L2221.73,693.80L2216.02,692.94L2209.32,691.78L2204.58,686.87L2201.15,682.64L2198.25,675.91L2189.70,672.55L2183.78,674.74L2179.42,677.28L2179.77,682.95L2174.21,685.60L2170.54,684.31L2163.57,683.99L2165.43,658.92L2166.67,633.85ZM2245.33,642.01L2247.78,644.47L2248.35,648.47L2246.10,650.52L2245.10,645.98L2243.69,643.00L2240.75,640.48L2237.05,637.20L2232.24,634.94L2234.21,633.08L2237.79,635.24L2240.02,636.93L2242.78,638.78L2245.33,642.01ZM2235.20,658.78L2231.35,660.65L2227.74,662.45L2224.14,662.44L2218.74,660.21L2215.02,658.06L2215.74,655.68L2221.75,656.80L2225.50,656.20L2226.76,652.51L2227.75,652.32L2228.14,656.41L2232.05,655.82L2234.14,653.19L2238.10,650.45L2237.63,645.91L2241.70,645.77L2243.00,647.03L2242.60,651.30L2240.01,655.99L2236.42,656.62L2235.20,658.78ZM2258.93,654.93L2260.86,656.67L2263.79,661.55L2266.79,664.16L2265.67,666.31L2263.71,667.08L2261.01,664.13L2258.41,659.24L2257.36,653.38L2258.35,652.64L2258.93,654.93Z" data-iso2="PG" data-iso3="PNG" data-name="Papua New Guinea" /><path d="M2166.67,633.85L2165.43,658.92L2163.57,683.99L2158.10,677.68L2151.36,676.13L2149.50,678.32L2140.90,678.56L2144.29,672.30L2148.72,670.16L2147.55,661.80L2144.71,655.34L2131.93,648.83L2126.37,648.18L2116.53,641.07L2114.35,644.81L2111.71,645.49L2110.31,642.67L2110.44,639.33L2105.40,635.55L2112.82,632.78L2117.66,632.93L2117.16,630.89L2107.22,630.87L2104.65,626.29L2098.62,624.87L2095.81,621.07L2104.99,619.20L2108.50,616.70L2119.37,619.86L2120.40,622.71L2121.94,635.15L2128.78,639.76L2134.78,631.60L2142.71,626.96L2148.75,626.95L2154.48,629.63L2159.43,632.38L2166.67,633.85ZM2054.98,682.26L2055.54,683.77L2055.46,686.11L2050.54,691.85L2044.59,693.54L2043.87,692.62L2044.71,690.01L2048.03,685.31L2054.98,682.26ZM2118.74,666.89L2118.47,661.10L2119.85,658.34L2121.43,655.74L2122.83,657.99L2122.58,661.66L2118.74,666.89ZM2009.19,582.03L2005.61,588.97L2010.85,596.26L2009.77,599.80L2017.52,606.91L2009.48,607.82L2007.25,613.07L2007.51,620.04L2000.89,625.30L2000.52,632.96L1997.46,644.72L1996.58,641.98L1988.72,645.44L1986.22,640.74L1981.40,640.31L1978.10,637.84L1969.93,640.61L1967.58,636.89L1963.12,637.31L1957.55,636.42L1956.79,626.11L1953.44,623.97L1950.25,617.39L1949.31,610.66L1950.02,603.53L1953.95,598.42L1955.19,603.56L1959.90,607.91L1964.26,606.34L1968.61,606.90L1972.51,603.01L1975.75,602.33L1982.22,604.49L1987.73,602.85L1990.93,592.15L1993.45,589.48L1995.44,580.73L2003.24,580.73L2009.19,582.03ZM2087.62,635.41L2095.01,637.65L2097.22,643.53L2091.63,640.36L2085.99,639.72L2082.13,640.23L2077.44,639.96L2079.22,635.73L2087.62,635.41ZM2070.36,643.01L2065.73,641.60L2064.55,638.29L2071.43,637.92L2073.01,640.46L2070.36,643.01ZM2078.02,597.13L2078.62,601.33L2082.64,602.00L2083.34,605.14L2083.06,611.87L2079.55,611.11L2078.52,615.79L2081.29,619.85L2079.37,620.78L2076.68,615.90L2074.60,606.07L2075.84,599.93L2078.02,597.13ZM2044.23,607.12L2052.04,606.80L2058.65,601.21L2059.88,602.93L2054.52,610.56L2049.42,612.04L2042.88,610.54L2031.56,610.92L2025.62,612.03L2024.65,617.85L2030.63,624.69L2034.36,621.21L2047.06,618.59L2046.46,622.13L2043.51,621.01L2040.49,625.52L2034.44,628.50L2040.54,638.36L2039.19,641.00L2044.88,649.88L2044.56,654.93L2040.81,657.20L2038.30,654.49L2041.90,648.19L2035.10,651.17L2033.51,649.04L2034.54,646.07L2029.84,641.56L2030.63,634.07L2026.02,636.40L2026.23,645.37L2025.95,656.38L2021.59,657.49L2018.79,655.24L2021.10,648.16L2020.38,640.73L2017.52,640.68L2015.61,635.41L2018.58,630.37L2019.69,624.26L2023.20,612.67L2024.61,609.50L2030.31,603.78L2035.65,606.05L2044.23,607.12ZM2022.45,692.76L2013.94,687.37L2020.38,685.86L2023.74,688.20L2025.90,690.54L2025.31,692.62L2022.45,692.76ZM2030.63,679.52L2035.19,678.93L2041.47,676.12L2040.15,680.39L2029.81,682.57L2020.88,681.62L2021.07,678.81L2026.56,677.21L2030.63,679.52ZM2009.87,678.18L2014.10,677.55L2015.54,680.82L2007.59,682.36L2002.82,683.40L1999.19,683.34L2001.85,678.91L2005.56,678.85L2007.57,676.13L2009.87,678.18ZM1944.58,663.25L1945.35,665.99L1958.29,666.75L1959.97,663.58L1972.33,667.28L1974.49,672.27L1984.57,673.67L1992.56,678.24L1984.62,681.17L1977.40,678.07L1971.26,678.28L1964.27,677.71L1958.02,676.33L1950.36,673.40L1945.44,672.63L1942.56,673.60L1930.39,670.43L1929.41,667.12L1923.24,666.56L1928.27,659.21L1936.48,659.66L1941.79,662.67L1944.58,663.25ZM1918.12,622.20L1919.18,627.56L1921.45,631.86L1926.42,632.54L1929.57,637.41L1927.51,646.97L1926.70,658.87L1919.18,659.03L1913.77,652.60L1905.32,646.32L1902.59,641.65L1897.65,635.39L1894.43,629.62L1889.43,618.86L1883.48,612.44L1881.44,605.83L1878.84,599.83L1872.60,594.98L1868.86,588.40L1863.60,584.09L1856.20,575.62L1855.44,571.70L1859.82,572.01L1870.39,573.50L1876.70,581.02L1882.14,586.24L1885.99,589.44L1892.65,597.71L1899.56,597.83L1905.37,603.09L1909.38,609.54L1914.57,613.05L1911.82,619.33L1915.68,622.00L1918.12,622.20Z" data-iso2="ID" data-iso3="IDN" data-name="Indonesia" /><path d="M2070.20,83.60L2071.89,80.97L2079.17,85.29L2074.41,85.62L2070.20,83.60ZM1505.47,257.71L1503.79,262.18L1498.21,263.42L1493.94,271.23L1501.11,278.42L1501.64,283.53L1510.35,292.49L1510.35,292.49L1507.30,295.56L1506.64,297.50L1503.77,296.98L1498.54,292.35L1496.75,292.10L1492.49,290.33L1489.95,287.21L1483.86,285.62L1480.36,286.81L1478.99,285.40L1469.87,281.76L1460.58,280.53L1455.14,279.23L1454.56,280.13L1445.55,273.72L1438.06,270.86L1432.01,266.42L1436.22,265.21L1440.08,258.90L1436.14,255.92L1444.43,252.85L1443.94,251.20L1438.79,252.42L1438.33,249.08L1441.00,246.98L1446.68,246.43L1447.11,243.93L1444.93,239.81L1446.50,235.90L1445.95,233.71L1436.72,231.29L1433.29,231.37L1428.92,227.88L1424.65,229.06L1416.65,226.45L1416.48,224.99L1413.75,221.78L1409.01,221.42L1408.07,219.12L1409.22,217.63L1404.65,213.45L1398.78,214.16L1396.95,213.79L1395.81,215.47L1393.58,215.17L1393.58,215.17L1391.25,210.46L1389.42,208.02L1390.40,207.33L1395.09,207.59L1397.01,205.98L1394.96,204.03L1390.83,202.74L1390.91,201.42L1388.31,200.09L1383.78,195.32L1384.61,193.36L1383.36,189.96L1377.49,188.23L1374.71,189.09L1373.56,187.30L1367.29,185.49L1364.68,181.23L1363.54,177.75L1360.55,176.10L1362.49,173.83L1359.57,167.18L1362.66,163.10L1361.59,161.86L1361.59,161.86L1366.96,157.96L1360.59,154.62L1360.59,154.62L1370.15,145.70L1374.15,141.70L1375.30,138.17L1366.39,133.46L1367.47,129.01L1361.59,123.96L1363.66,118.17L1355.89,110.57L1359.29,105.58L1350.55,101.20L1350.14,96.64L1353.98,96.04L1361.65,93.45L1361.65,93.45L1366.07,91.21L1375.28,95.11L1389.25,96.65L1410.48,104.04L1415.41,107.17L1417.26,111.58L1412.80,115.09L1405.04,116.87L1380.82,111.80L1377.34,112.64L1387.01,117.54L1388.22,120.66L1390.49,127.58L1397.77,129.66L1402.36,131.43L1402.07,128.12L1398.09,125.20L1400.62,122.64L1414.41,126.86L1418.25,125.20L1413.18,120.25L1422.89,113.68L1427.72,114.07L1433.31,116.41L1434.60,111.82L1428.93,107.86L1429.92,103.92L1424.72,99.86L1439.45,101.95L1443.77,105.63L1437.73,106.45L1439.18,110.13L1444.03,112.41L1451.29,110.96L1450.82,106.74L1459.98,103.60L1474.81,97.99L1478.69,98.31L1475.65,102.27L1482.15,102.96L1484.66,100.72L1493.89,100.54L1499.89,97.84L1507.57,101.77L1510.94,97.45L1503.77,93.70L1505.18,91.57L1520.73,93.52L1528.69,95.54L1550.98,102.99L1552.27,99.56L1545.18,96.13L1544.21,94.75L1537.91,94.12L1537.69,91.06L1532.05,86.08L1530.65,84.05L1535.84,78.34L1535.13,72.69L1537.78,71.47L1551.41,73.10L1554.88,76.56L1553.88,81.65L1558.24,83.66L1562.77,88.10L1567.40,96.93L1575.41,100.92L1576.02,105.30L1571.81,114.73L1578.22,115.71L1578.80,113.31L1583.34,111.60L1582.65,108.31L1585.02,105.17L1579.72,101.44L1579.24,97.13L1573.49,96.60L1569.96,93.00L1569.54,86.57L1559.73,81.40L1565.28,77.18L1560.93,72.76L1563.17,72.62L1568.23,76.06L1570.73,82.11L1576.70,83.26L1571.23,78.72L1577.37,76.27L1586.97,75.94L1598.55,79.50L1590.22,74.30L1584.39,67.73L1591.43,66.50L1602.86,66.77L1612.21,65.97L1605.51,62.79L1607.05,58.83L1612.13,58.66L1617.96,55.70L1629.07,54.90L1628.81,53.28L1640.02,52.73L1645.20,54.06L1651.67,50.92L1660.01,51.02L1658.17,48.50L1659.34,46.04L1666.71,43.70L1676.68,45.55L1672.51,46.96L1683.70,47.85L1688.64,50.73L1690.87,49.31L1704.00,49.39L1717.93,52.25L1724.50,54.46L1727.43,57.56L1724.64,59.34L1716.69,62.69L1715.34,64.49L1722.09,65.34L1730.76,66.88L1733.58,65.72L1740.59,69.65L1740.77,68.06L1747.07,67.09L1763.26,68.10L1767.90,70.98L1788.68,71.90L1783.01,67.20L1794.29,68.27L1801.70,68.24L1813.50,71.48L1820.77,75.45L1821.23,78.06L1833.32,83.01L1844.03,85.58L1840.46,78.96L1851.72,81.79L1857.73,80.10L1869.51,82.03L1870.74,80.27L1879.74,81.15L1868.48,75.34L1870.99,72.65L1919.51,76.68L1928.94,80.40L1948.40,85.23L1966.17,84.03L1977.32,85.08L1985.21,87.71L1991.39,92.39L2000.05,94.23L2004.72,92.91L2013.17,92.74L2024.30,94.01L2032.54,93.29L2049.69,99.05L2052.73,96.97L2042.52,92.84L2040.33,89.98L2058.70,91.78L2068.27,91.39L2087.23,94.47L2098.60,97.30L2138.37,123.74L2138.38,123.78L2136.00,126.76L2128.57,126.26L2138.36,129.89L2149.36,135.53L2154.36,137.38L2158.91,140.24L2160.06,142.07L2148.12,140.56L2140.25,145.78L2136.57,146.59L2134.71,151.49L2132.32,155.80L2134.31,158.99L2120.53,154.13L2113.18,159.65L2107.55,157.03L2105.95,160.05L2097.53,159.09L2101.25,163.73L2102.60,170.61L2106.07,173.49L2114.19,175.09L2125.08,185.56L2120.16,185.82L2124.25,191.88L2129.92,195.01L2123.84,198.73L2130.32,207.08L2123.50,208.87L2128.97,216.34L2126.95,223.23L2120.11,218.14L2107.43,207.40L2088.07,191.19L2080.33,181.17L2080.44,176.89L2077.10,173.54L2083.94,171.94L2083.64,163.00L2084.52,155.75L2087.48,150.16L2079.62,140.36L2073.91,140.95L2077.79,146.66L2073.39,154.33L2058.77,145.75L2047.78,148.11L2047.76,159.86L2057.09,164.20L2046.90,166.05L2039.21,166.78L2034.06,161.66L2024.42,160.59L2021.39,164.06L2003.40,162.84L1987.58,164.94L1983.39,178.87L1977.40,195.92L1987.17,196.84L1993.99,201.40L2000.97,203.03L2001.41,199.38L2008.10,199.85L2023.52,207.90L2029.13,214.16L2030.76,221.54L2037.38,230.40L2043.75,242.33L2042.48,253.19L2044.05,258.39L2041.71,267.18L2039.19,275.92L2038.07,280.41L2032.64,284.86L2028.81,284.96L2022.67,281.27L2017.78,286.83L2018.32,289.36L2018.32,289.36L2018.32,289.36L2018.32,289.36L2016.67,288.03L2016.67,288.03L2014.32,284.17L2017.34,283.96L2012.71,275.00L2007.04,268.51L2010.57,265.84L2018.80,267.18L2018.11,259.83L2014.68,251.59L2015.13,248.84L2013.57,242.09L2005.26,244.30L2002.11,247.26L1993.01,247.25L1985.79,240.21L1975.06,234.91L1963.09,232.52L1955.70,225.24L1950.30,220.69L1945.74,217.51L1936.48,210.08L1929.31,207.38L1919.01,205.20L1911.54,205.40L1905.40,206.72L1903.36,210.37L1907.83,212.12L1910.87,216.19L1909.33,218.55L1909.51,226.41L1911.77,229.68L1906.53,234.38L1897.62,231.57L1890.98,232.19L1886.29,229.70L1882.24,228.89L1876.90,234.14L1869.86,235.37L1865.53,237.22L1857.34,236.01L1851.89,236.08L1846.04,232.27L1838.13,228.70L1831.65,227.72L1824.78,228.69L1820.02,230.07L1809.85,226.94L1805.46,221.39L1797.46,219.49L1791.66,218.62L1783.33,215.57L1781.73,223.23L1786.57,227.60L1783.66,232.78L1774.13,230.91L1768.10,230.64L1762.32,227.17L1756.13,227.06L1749.82,224.78L1742.71,228.27L1734.64,234.68L1729.01,235.97L1726.98,236.59L1721.68,232.03L1714.54,233.03L1710.53,229.87L1705.73,228.42L1700.85,224.13L1696.97,222.80L1689.46,224.71L1679.39,220.44L1678.08,224.32L1656.22,205.60L1646.15,199.95L1647.11,197.66L1636.09,204.55L1630.78,204.97L1629.40,200.98L1620.90,198.49L1615.76,200.27L1610.50,192.72L1599.61,191.16L1595.87,194.17L1582.81,196.85L1580.79,198.65L1560.44,201.19L1558.78,203.69L1564.86,208.71L1560.04,210.62L1561.87,212.62L1557.61,216.21L1568.88,221.29L1568.66,224.80L1560.32,224.48L1559.37,226.68L1550.56,222.84L1541.33,222.99L1536.13,226.12L1528.23,223.12L1513.76,218.00L1504.72,218.19L1494.98,226.24L1495.73,231.67L1488.51,227.36L1485.94,235.54L1488.06,237.06L1486.03,242.72L1492.33,247.81L1496.73,247.60L1501.78,252.62L1502.11,256.49L1505.47,257.71ZM1598.16,25.90L1605.63,24.79L1617.09,27.29L1633.51,32.27L1638.88,37.10L1630.37,37.78L1616.40,36.20L1606.74,34.15L1598.75,30.37L1591.74,29.35L1598.16,25.90ZM1648.40,34.93L1663.52,38.02L1665.30,40.27L1643.57,42.43L1642.03,35.18L1644.72,34.58L1648.40,34.93ZM1833.26,52.75L1845.57,53.01L1867.14,56.16L1870.81,60.61L1853.64,60.44L1848.21,61.87L1833.15,57.96L1829.12,53.86L1833.26,52.75ZM1883.55,57.45L1897.64,59.02L1896.30,61.40L1888.08,60.86L1875.69,58.49L1873.57,56.55L1883.55,57.45ZM1863.59,69.44L1864.49,67.02L1869.47,66.45L1879.57,68.79L1882.51,70.41L1875.47,70.45L1864.87,69.77L1863.59,69.44ZM1396.47,28.08L1404.03,27.16L1410.32,27.10L1412.09,28.46L1413.67,27.25L1417.02,26.43L1423.98,27.53L1422.91,28.30L1417.75,28.97L1414.24,29.36L1414.22,30.20L1409.86,31.06L1404.51,29.83L1405.87,28.24L1396.47,28.08ZM1338.69,198.85L1328.21,198.96L1321.08,198.13L1321.97,194.93L1329.48,192.57L1335.60,193.84L1338.28,195.00L1337.96,196.99L1338.69,198.85ZM1458.14,67.11L1466.10,61.77L1463.17,59.04L1471.32,55.88L1483.56,52.07L1497.66,50.97L1503.60,48.80L1511.63,48.05L1516.63,50.35L1515.12,52.18L1501.43,55.11L1489.62,57.96L1479.16,63.70L1475.84,69.67L1471.81,75.62L1475.56,80.82L1487.52,86.00L1484.95,86.56L1468.71,85.74L1466.03,82.92L1456.50,81.23L1454.13,77.84L1458.31,76.50L1456.40,73.11L1462.84,67.86L1458.14,67.11ZM2028.53,203.40L2036.82,210.47L2042.95,217.72L2051.62,225.18L2068.08,238.37L2057.39,235.90L2061.88,246.71L2073.31,254.41L2076.88,259.68L2069.09,255.13L2069.24,260.97L2063.68,254.64L2059.09,247.32L2052.42,239.25L2049.46,233.60L2041.77,223.67L2032.28,216.40L2024.09,206.35L2026.39,202.98L2021.04,199.59L2022.65,198.57L2028.53,203.40ZM327.18,108.83L320.73,112.96L321.76,114.62L327.58,109.79L339.87,110.78L341.02,117.02L331.88,119.95L322.50,120.65L313.23,127.27L309.21,128.68L304.62,128.48L303.94,126.11L299.83,124.13L302.82,121.20L299.18,120.09L292.08,120.97L292.70,118.61L297.45,116.12L289.00,117.71L286.70,120.88L279.63,123.74L319.40,97.30L323.83,102.28L327.18,108.83ZM345.78,84.91L338.83,85.29L346.11,80.97L347.18,80.71L351.22,80.72L355.12,82.53L353.27,83.39L345.78,84.91ZM1411.42,260.93L1412.70,259.06L1417.27,260.68L1419.27,260.97L1420.31,262.46L1421.27,262.69L1421.43,263.35L1424.71,265.17L1430.82,264.72L1430.11,267.41L1423.67,268.72L1416.11,273.10L1412.47,271.56L1413.24,268.01L1406.24,265.79L1407.09,264.34L1412.49,261.84L1411.42,260.93Z" data-iso2="RU" data-iso3="RUS" data-name="Russia" /><path d="M2054.98,682.26L2055.92,680.44L2061.88,678.71L2066.63,678.45L2068.82,677.49L2071.31,678.45L2068.65,680.53L2061.32,683.90L2055.46,686.11L2055.54,683.77L2054.98,682.26Z" data-iso2="TL" data-iso3="TLS" data-name="Timor-Leste" /><path d="M1575.70,439.18L1575.59,436.08L1577.23,432.90L1576.95,429.75L1579.80,428.24L1578.52,427.17L1578.55,422.16L1581.92,422.13L1585.44,427.38L1589.42,430.18L1594.38,431.18L1598.44,432.58L1601.87,436.99L1603.91,439.55L1606.38,440.52L1606.53,442.24L1604.54,446.82L1603.67,448.98L1601.08,451.44L1599.06,456.71L1596.00,456.31L1594.77,458.14L1594.03,462.04L1595.29,467.18L1594.74,468.13L1591.66,468.10L1587.72,470.98L1587.37,474.73L1585.97,476.35L1581.80,476.29L1579.33,478.22L1579.60,481.33L1576.52,483.47L1572.76,482.74L1568.47,485.34L1565.40,485.77L1562.82,480.40L1556.63,467.70L1576.07,460.01L1579.22,444.63L1575.70,439.18ZM1580.36,416.06L1578.80,413.43L1580.42,410.81L1581.31,411.48L1581.06,414.66L1580.36,416.06Z" data-iso2="OM" data-iso3="OMN" data-name="Oman" /><path d="M1901.42,520.11L1898.89,510.82L1902.50,504.43L1911.04,502.96L1917.48,504.06L1923.39,507.08L1925.80,501.78L1932.11,504.61L1934.27,509.74L1934.42,518.95L1923.64,524.87L1927.02,529.53L1919.98,530.09L1914.38,533.19L1908.63,532.07L1905.55,528.06L1901.42,520.11Z" data-iso2="KH" data-iso3="KHM" data-name="Cambodia" /><path d="M1917.48,504.06L1911.04,502.96L1902.50,504.43L1898.89,510.82L1901.42,520.11L1895.02,516.58L1889.27,516.73L1889.65,510.68L1883.72,510.73L1884.01,519.19L1881.34,530.42L1879.66,537.22L1880.51,542.78L1884.94,543.03L1888.13,550.05L1889.74,556.70L1893.76,561.11L1897.91,562.00L1901.63,566.00L1899.56,569.16L1895.13,570.08L1894.41,566.13L1888.71,562.76L1887.60,564.13L1884.77,561.18L1883.41,557.37L1879.56,553.02L1876.07,549.38L1875.22,553.90L1873.68,549.62L1874.12,544.83L1875.61,537.45L1878.29,529.54L1881.39,522.37L1878.10,515.36L1877.85,511.79L1876.64,507.49L1871.47,501.38L1869.42,497.52L1871.57,496.10L1873.19,489.41L1869.77,484.34L1864.76,478.72L1860.58,471.97L1863.21,470.57L1865.06,462.26L1869.73,461.91L1873.13,458.58L1876.69,456.80L1879.93,459.17L1881.00,463.79L1885.57,464.15L1885.12,472.25L1886.26,479.15L1892.67,474.56L1894.87,475.91L1898.76,475.69L1899.71,473.01L1904.85,473.54L1910.87,479.79L1912.37,487.38L1918.72,494.09L1919.25,500.60L1917.48,504.06Z" data-iso2="TH" data-iso3="THA" data-name="Thailand" /><path d="M1932.11,504.61L1925.80,501.78L1923.39,507.08L1917.48,504.06L1919.25,500.60L1918.72,494.09L1912.37,487.38L1910.87,479.79L1904.85,473.54L1899.71,473.01L1898.76,475.69L1894.87,475.91L1892.67,474.56L1886.26,479.15L1885.12,472.25L1885.57,464.15L1881.00,463.79L1879.93,459.17L1876.69,456.80L1877.69,453.97L1882.59,448.96L1883.47,450.77L1887.05,450.98L1884.67,442.18L1887.93,441.05L1892.79,447.13L1896.87,454.12L1905.09,454.18L1908.71,460.88L1904.76,462.90L1903.26,465.66L1911.97,470.27L1918.91,479.36L1924.12,486.13L1929.95,491.48L1932.38,496.92L1932.11,504.61Z" data-iso2="LA" data-iso3="LAO" data-name="Laos" /><path d="M1876.69,456.80L1873.13,458.58L1869.73,461.91L1865.06,462.26L1863.21,470.57L1860.58,471.97L1864.76,478.72L1869.77,484.34L1873.19,489.41L1871.57,496.10L1869.42,497.52L1871.47,501.38L1876.64,507.49L1877.85,511.79L1878.10,515.36L1881.39,522.37L1878.29,529.54L1875.61,537.45L1874.54,531.74L1876.14,525.85L1873.47,521.30L1873.23,512.92L1870.09,508.93L1866.89,499.72L1864.49,490.01L1860.76,483.64L1856.85,487.49L1849.90,492.98L1846.04,492.29L1841.66,490.49L1842.77,480.96L1840.41,473.75L1833.96,464.89L1834.39,462.11L1830.35,461.13L1824.75,454.85L1823.46,448.66L1825.94,449.83L1825.30,444.31L1828.31,442.49L1827.12,439.22L1828.23,436.60L1827.22,428.64L1832.69,430.39L1834.57,424.05L1834.23,420.30L1836.66,413.85L1835.58,409.45L1842.98,404.13L1847.98,405.52L1846.39,400.79L1848.37,399.38L1847.20,396.46L1850.90,395.89L1854.15,400.42L1857.44,402.26L1858.93,408.14L1859.98,414.49L1854.98,420.91L1855.81,430.03L1862.58,428.76L1865.36,435.84L1869.80,437.33L1868.88,443.72L1874.27,446.61L1877.37,448.02L1881.90,445.78L1882.59,448.96L1877.69,453.97L1876.69,456.80Z" data-iso2="MM" data-iso3="MMR" data-name="Myanmar" /><path d="M1914.38,533.19L1919.98,530.09L1927.02,529.53L1923.64,524.87L1934.42,518.95L1934.27,509.74L1932.11,504.61L1932.38,496.92L1929.95,491.48L1924.12,486.13L1918.91,479.36L1911.97,470.27L1903.26,465.66L1904.76,462.90L1908.71,460.88L1905.09,454.18L1896.87,454.12L1892.79,447.13L1887.93,441.05L1891.19,439.18L1896.49,439.21L1902.80,438.33L1907.75,434.23L1911.45,437.11L1917.77,438.52L1917.47,442.95L1921.16,446.07L1928.19,448.07L1920.36,454.65L1915.94,461.92L1915.31,467.26L1921.67,475.36L1929.43,485.42L1936.20,490.17L1941.13,496.34L1945.96,510.58L1946.46,524.11L1941.29,529.18L1933.98,534.13L1928.96,540.54L1921.02,547.70L1918.22,542.77L1919.74,537.56L1914.38,533.19Z" data-iso2="VN" data-iso3="VNM" data-name="Vietnam" /><path d="M2018.32,289.36L2018.32,289.36L2018.32,289.36L2018.32,289.36ZM2016.67,288.03L2016.67,288.03L2018.32,289.36L2015.70,288.91L2014.53,291.48L2014.18,294.08L2017.52,299.55L2015.24,301.24L2014.87,302.59L2013.74,304.84L2010.25,306.10L2008.61,308.15L2010.14,311.46L2009.84,312.31L2012.97,313.55L2018.24,316.91L2018.25,318.76L2015.81,319.27L2011.53,319.64L2010.74,323.10L2007.79,322.83L2007.72,323.52L2003.95,322.06L2003.87,323.50L2002.32,324.14L2001.41,322.70L1999.44,321.99L1997.16,320.77L1997.27,317.40L1998.31,316.50L1997.06,315.10L1996.60,310.97L1995.55,309.72L1991.46,308.89L1987.45,306.84L1989.98,301.94L1994.62,297.84L1995.88,292.43L2000.17,294.82L2005.70,295.10L2002.44,291.08L2010.08,287.80L2010.00,283.54L2016.67,288.03Z" data-iso2="KP" data-iso3="PRK" data-name="North Korea" /><path d="M2007.72,323.52L2007.79,322.83L2010.74,323.10L2011.53,319.64L2015.81,319.27L2018.25,318.76L2018.24,316.91L2028.13,325.95L2032.06,330.93L2036.16,339.77L2035.62,344.00L2030.46,345.47L2026.70,348.66L2021.19,349.32L2018.71,345.13L2017.40,339.37L2011.01,331.38L2015.14,330.09L2007.72,323.52Z" data-iso2="KR" data-iso3="KOR" data-name="South Korea" /><path d="M1729.01,235.97L1734.64,234.68L1742.71,228.27L1749.82,224.78L1756.13,227.06L1762.32,227.17L1768.10,230.64L1774.13,230.91L1783.66,232.78L1786.57,227.60L1781.73,223.23L1783.33,215.57L1791.66,218.62L1797.46,219.49L1805.46,221.39L1809.85,226.94L1820.02,230.07L1824.78,228.69L1831.65,227.72L1838.13,228.70L1846.04,232.27L1851.89,236.08L1857.34,236.01L1865.53,237.22L1869.86,235.37L1876.90,234.14L1882.24,228.89L1886.29,229.70L1890.98,232.19L1897.62,231.57L1898.31,237.19L1898.68,244.66L1902.05,247.73L1904.87,246.77L1911.48,247.94L1914.40,245.18L1920.66,247.57L1929.28,252.82L1930.22,255.50L1924.96,254.65L1916.80,255.65L1913.80,257.79L1912.21,262.77L1904.59,265.70L1900.73,269.71L1893.64,268.18L1889.84,267.50L1889.26,272.37L1892.75,275.29L1895.07,277.79L1892.10,280.34L1889.78,284.41L1883.92,287.08L1874.80,287.37L1866.09,290.01L1860.80,294.10L1856.95,291.73L1849.45,291.74L1838.15,287.12L1831.53,285.99L1823.80,287.04L1810.29,285.34L1803.56,285.52L1797.94,281.00L1792.00,274.01L1787.84,273.17L1778.34,268.45L1769.67,267.40L1761.87,266.11L1758.24,262.83L1756.62,254.03L1749.70,247.97L1739.87,245.16L1733.02,241.19L1729.01,235.97Z" data-iso2="MN" data-iso3="MNG" data-name="Mongolia" /><path d="M1847.20,396.46L1848.37,399.38L1846.39,400.79L1847.98,405.52L1842.98,404.13L1835.58,409.45L1836.66,413.85L1834.23,420.30L1834.57,424.05L1832.69,430.39L1827.22,428.64L1828.23,436.60L1827.12,439.22L1828.31,442.49L1825.30,444.31L1819.96,432.11L1818.14,432.13L1817.81,437.05L1813.57,433.06L1814.92,428.68L1817.81,428.24L1819.77,421.73L1815.73,420.42L1809.62,420.53L1803.14,419.48L1801.60,414.13L1798.38,413.75L1792.54,410.43L1791.17,415.64L1796.65,419.72L1793.00,422.58L1791.99,425.38L1796.39,427.45L1795.98,432.08L1799.14,437.87L1801.07,444.20L1800.50,447.01L1795.96,446.91L1787.97,448.51L1789.11,454.29L1786.14,458.85L1777.19,464.02L1770.82,473.07L1766.36,477.93L1760.26,482.96L1760.64,486.50L1757.50,488.39L1751.75,491.15L1748.65,491.56L1747.22,497.42L1749.54,507.43L1750.43,513.81L1748.12,521.12L1748.96,534.18L1745.49,534.56L1742.75,540.42L1744.94,542.96L1738.89,545.14L1736.86,550.37L1734.25,552.58L1727.49,545.40L1723.78,534.63L1720.72,526.87L1718.12,523.23L1714.02,515.84L1711.60,506.22L1710.04,501.42L1702.96,490.85L1698.69,475.95L1695.65,466.10L1694.68,456.79L1692.60,449.58L1683.40,454.19L1678.61,453.26L1668.92,443.94L1671.81,441.16L1669.51,438.14L1660.98,431.61L1664.77,426.48L1679.35,426.50L1677.16,419.90L1672.90,416.00L1671.29,410.08L1666.46,406.62L1672.40,398.56L1680.12,399.14L1685.55,391.08L1688.16,383.27L1692.90,375.55L1691.62,370.07L1696.15,365.62L1690.05,361.82L1686.60,356.61L1682.70,349.88L1685.03,346.56L1695.23,348.44L1702.09,347.29L1706.58,340.83L1715.85,349.84L1716.81,356.12L1720.36,360.05L1721.11,363.98L1716.22,362.95L1720.04,371.43L1727.53,376.30L1737.78,381.68L1734.40,385.17L1733.35,392.37L1740.28,395.28L1747.20,399.05L1756.60,403.37L1765.80,404.36L1770.33,408.27L1775.55,409.01L1783.81,410.80L1789.27,410.67L1789.45,407.63L1787.62,402.74L1787.45,399.43L1791.11,397.81L1792.92,403.87L1793.37,405.41L1799.92,408.33L1803.82,407.12L1809.48,407.64L1814.81,407.41L1814.30,402.69L1811.10,400.23L1816.19,399.27L1820.87,393.55L1827.25,388.65L1833.19,390.54L1837.05,387.30L1841.30,392.08L1839.86,395.32L1847.20,396.46Z" data-iso2="IN" data-iso3="IND" data-name="India" /><path d="M1825.30,444.31L1825.94,449.83L1823.46,448.66L1824.75,454.85L1822.29,450.84L1821.36,446.92L1819.57,443.22L1816.14,438.74L1809.97,438.44L1811.04,441.61L1809.56,445.89L1806.51,444.33L1805.74,445.73L1803.74,444.89L1801.07,444.20L1799.14,437.87L1795.98,432.08L1796.39,427.45L1791.99,425.38L1793.00,422.58L1796.65,419.72L1791.17,415.64L1792.54,410.43L1798.38,413.75L1801.60,414.13L1803.14,419.48L1809.62,420.53L1815.73,420.42L1819.77,421.73L1817.81,428.24L1814.92,428.68L1813.57,433.06L1817.81,437.05L1818.14,432.13L1819.96,432.11L1825.30,444.31Z" data-iso2="BD" data-iso3="BGD" data-name="Bangladesh" /><path d="M1811.10,400.23L1814.30,402.69L1814.81,407.41L1809.48,407.64L1803.82,407.12L1799.92,408.33L1793.37,405.41L1792.92,403.87L1796.08,398.15L1799.20,396.20L1804.27,397.98L1807.78,398.16L1811.10,400.23Z" data-iso2="BT" data-iso3="BTN" data-name="Bhutan" /><path d="M1787.45,399.43L1787.62,402.74L1789.45,407.63L1789.27,410.67L1783.81,410.80L1775.55,409.01L1770.33,408.27L1765.80,404.36L1756.60,403.37L1747.20,399.05L1740.28,395.28L1733.35,392.37L1734.40,385.17L1737.78,381.68L1740.08,379.84L1745.83,382.20L1753.53,387.22L1757.44,388.32L1760.42,392.02L1765.83,393.53L1771.86,396.91L1779.64,398.68L1787.45,399.43Z" data-iso2="NP" data-iso3="NPL" data-name="Nepal" /><path d="M1706.58,340.83L1702.09,347.29L1695.23,348.44L1685.03,346.56L1682.70,349.88L1686.60,356.61L1690.05,361.82L1696.15,365.62L1691.62,370.07L1692.90,375.55L1688.16,383.27L1685.55,391.08L1680.12,399.14L1672.40,398.56L1666.46,406.62L1671.29,410.08L1672.90,416.00L1677.16,419.90L1679.35,426.50L1664.77,426.48L1660.98,431.61L1655.89,429.67L1653.25,424.14L1647.40,418.28L1635.41,419.73L1624.69,419.87L1615.51,420.95L1616.90,412.01L1625.87,408.04L1624.83,404.50L1621.50,403.25L1620.32,396.48L1613.54,393.10L1610.18,388.45L1606.30,384.41L1617.88,388.33L1624.23,387.18L1628.30,388.16L1629.34,386.48L1634.01,387.15L1641.94,383.95L1640.97,377.41L1643.77,373.05L1648.61,373.06L1648.89,370.91L1653.65,369.91L1656.19,370.62L1658.28,368.46L1656.96,363.84L1658.70,359.20L1662.37,357.25L1658.69,352.16L1664.87,352.40L1665.99,349.64L1665.02,346.68L1667.43,343.45L1665.76,339.63L1663.44,336.38L1666.31,333.03L1672.73,331.42L1679.78,330.53L1682.63,329.11L1686.09,328.25L1691.77,331.83L1695.25,337.73L1706.58,340.83Z" data-iso2="PK" data-iso3="PAK" data-name="Pakistan" /><path d="M1630.82,326.49L1634.36,326.54L1639.55,328.16L1641.72,329.09L1645.70,326.63L1648.21,328.11L1649.35,324.60L1653.18,324.76L1653.86,323.63L1653.71,320.54L1655.70,317.88L1659.59,319.62L1659.54,321.96L1661.56,322.32L1662.68,328.77L1665.85,331.28L1667.64,329.67L1670.26,328.91L1673.29,325.47L1677.81,326.04L1684.35,326.05L1686.09,328.25L1682.63,329.11L1679.78,330.53L1672.73,331.42L1666.31,333.03L1663.44,336.38L1665.76,339.63L1667.43,343.45L1665.02,346.68L1665.99,349.64L1664.87,352.40L1658.69,352.16L1662.37,357.25L1658.70,359.20L1656.96,363.84L1658.28,368.46L1656.19,370.62L1653.65,369.91L1648.89,370.91L1648.61,373.06L1643.77,373.05L1640.97,377.41L1641.94,383.95L1634.01,387.15L1629.34,386.48L1628.30,388.16L1624.23,387.18L1617.88,388.33L1606.30,384.41L1611.04,377.43L1609.63,372.48L1604.49,371.18L1603.09,366.30L1599.83,360.15L1601.78,355.94L1598.75,354.81L1599.41,349.21L1600.04,339.64L1607.18,342.55L1611.78,341.53L1612.36,338.05L1617.14,336.89L1620.20,334.55L1620.04,328.41L1625.03,326.93L1625.36,324.20L1628.85,326.25L1630.82,326.49Z" data-iso2="AF" data-iso3="AFG" data-name="Afghanistan" /><path d="M1639.55,328.16L1641.13,320.40L1638.25,314.70L1633.14,312.87L1633.85,309.50L1639.19,309.86L1640.97,305.64L1641.52,300.74L1649.32,298.96L1649.10,302.50L1650.62,304.62L1653.15,304.43L1651.55,306.79L1644.36,305.51L1645.03,309.91L1651.67,309.32L1660.14,311.80L1671.68,310.64L1675.35,317.73L1677.20,316.96L1681.54,318.70L1682.17,321.68L1684.35,326.05L1677.81,326.04L1673.29,325.47L1670.26,328.91L1667.64,329.67L1665.85,331.28L1662.68,328.77L1661.56,322.32L1659.54,321.96L1659.59,319.62L1655.70,317.88L1653.71,320.54L1653.86,323.63L1653.18,324.76L1649.35,324.60L1648.21,328.11L1645.70,326.63L1641.72,329.09L1639.55,328.16Z" data-iso2="TJ" data-iso3="TJK" data-name="Tajikistan" /><path d="M1648.03,289.01L1648.34,285.68L1652.05,284.61L1663.07,287.22L1662.51,282.74L1665.47,281.16L1675.35,284.36L1677.29,283.52L1687.58,283.73L1697.02,284.52L1701.11,287.26L1705.32,288.37L1705.08,290.09L1696.77,294.22L1695.60,297.25L1687.92,298.15L1687.17,303.03L1680.23,302.00L1676.39,303.50L1671.53,307.11L1672.94,308.89L1671.68,310.64L1660.14,311.80L1651.67,309.32L1645.03,309.91L1644.36,305.51L1651.55,306.79L1653.15,304.43L1658.13,305.18L1664.44,299.68L1655.79,295.66L1651.95,297.56L1646.47,294.69L1650.11,289.76L1648.03,289.01Z" data-iso2="KG" data-iso3="KGZ" data-name="Kyrgyzstan" /><path d="M1534.69,292.69L1536.83,290.15L1543.47,288.57L1548.18,290.70L1553.99,296.68L1557.09,296.30L1564.08,296.20L1562.09,292.36L1566.71,289.74L1570.74,285.32L1580.15,289.34L1582.45,295.42L1585.24,296.98L1591.87,296.63L1594.34,298.01L1599.49,305.88L1608.03,311.16L1613.05,314.77L1620.59,318.52L1629.82,321.80L1630.82,326.49L1628.85,326.25L1625.36,324.20L1625.03,326.93L1620.04,328.41L1620.20,334.55L1617.14,336.89L1612.36,338.05L1611.78,341.53L1607.18,342.55L1600.04,339.64L1598.09,333.17L1593.28,332.90L1584.54,326.10L1579.30,325.26L1571.45,321.38L1566.80,320.67L1564.34,322.10L1560.06,321.88L1556.46,326.26L1551.19,327.75L1548.92,322.32L1548.16,314.31L1542.70,311.72L1543.18,306.48L1538.92,306.04L1538.86,299.60L1545.17,301.47L1550.08,299.03L1544.46,294.46L1541.63,290.10L1537.11,292.04L1537.78,297.63L1534.69,292.69Z" data-iso2="TM" data-iso3="TKM" data-name="Turkmenistan" /><path d="M1525.89,383.65L1521.75,379.61L1521.13,375.51L1519.05,375.51L1519.35,369.94L1515.18,364.09L1506.65,359.88L1501.11,352.57L1501.70,346.57L1504.51,343.91L1503.32,339.43L1498.77,337.12L1493.16,327.96L1493.16,327.96L1488.68,321.82L1489.51,319.45L1486.01,310.67L1489.91,308.49L1491.44,311.37L1495.25,314.91L1499.75,315.92L1501.99,315.70L1508.35,310.05L1510.59,309.49L1512.89,311.73L1511.44,315.52L1516.13,319.53L1517.63,319.15L1520.68,324.80L1526.99,326.40L1532.11,330.25L1541.39,331.57L1550.93,329.54L1551.19,327.75L1556.46,326.26L1560.06,321.88L1564.34,322.10L1566.80,320.67L1571.45,321.38L1579.30,325.26L1584.54,326.10L1593.28,332.90L1598.09,333.17L1600.04,339.64L1599.41,349.21L1598.75,354.81L1601.78,355.94L1599.83,360.15L1603.09,366.30L1604.49,371.18L1609.63,372.48L1611.04,377.43L1606.30,384.41L1610.18,388.45L1613.54,393.10L1620.32,396.48L1621.50,403.25L1624.83,404.50L1625.87,408.04L1616.90,412.01L1615.51,420.95L1602.81,418.63L1595.40,416.86L1587.84,415.86L1583.89,406.43L1580.57,405.07L1575.68,406.44L1569.49,410.16L1561.14,407.61L1553.80,401.70L1547.21,399.51L1541.92,392.21L1535.75,381.95L1532.41,383.20L1527.92,380.65L1525.89,383.65Z" data-iso2="IR" data-iso3="IRN" data-name="Iran" /><path d="M2129.99,927.59L2133.40,928.10L2127.92,937.15L2124.04,939.77L2119.24,945.88L2118.51,943.80L2110.61,949.10L2109.62,948.69L2106.00,948.45L2106.61,941.95L2109.08,936.93L2109.77,930.29L2112.12,926.79L2115.78,927.47L2120.13,930.10L2124.19,929.05L2129.99,927.59ZM2025.72,861.67L2017.34,865.61L2011.06,867.39L2008.23,871.42L2004.60,874.54L1999.07,874.73L1994.76,875.42L1989.63,874.01L1984.67,874.85L1980.12,875.21L1974.68,879.31L1972.95,878.96L1968.87,881.13L1964.81,883.57L1960.26,883.27L1955.97,883.27L1951.07,878.36L1948.18,876.90L1949.96,872.49L1953.55,871.45L1955.29,869.69L1956.07,866.93L1958.76,861.58L1959.61,857.02L1958.74,849.24L1959.06,844.85L1960.68,840.47L1959.55,835.46L1960.02,833.20L1957.97,830.14L1958.75,824.11L1956.52,818.02L1956.39,814.74L1958.49,818.07L1957.95,810.93L1960.71,813.16L1961.96,816.14L1962.77,812.20L1960.86,806.15L1960.74,803.72L1959.68,801.42L1961.29,796.97L1963.02,795.08L1964.66,791.23L1964.78,786.74L1968.51,781.20L1967.97,787.06L1971.72,781.77L1977.58,779.20L1981.40,775.92L1986.99,773.09L1990.12,772.49L1991.79,773.44L1997.55,770.57L2001.75,769.72L2003.05,768.04L2004.94,767.33L2008.60,767.51L2016.02,765.26L2020.26,761.85L2022.70,757.74L2027.31,753.83L2028.14,750.76L2029.03,746.58L2034.82,740.04L2036.53,746.68L2039.65,745.15L2037.87,741.52L2040.58,737.78L2043.28,739.45L2045.03,733.60L2049.28,729.81L2051.35,726.78L2054.93,725.47L2055.34,723.32L2058.17,724.21L2058.56,722.28L2061.67,721.18L2065.07,720.14L2069.55,723.67L2072.62,728.23L2076.82,728.28L2080.99,729.00L2080.20,724.78L2084.30,718.61L2087.61,716.60L2086.82,714.68L2090.31,710.28L2094.73,707.57L2098.07,708.49L2103.92,707.04L2104.26,703.11L2099.60,700.57L2103.32,699.46L2107.58,701.36L2110.80,704.52L2116.25,706.48L2118.28,705.71L2122.17,708.07L2126.38,705.87L2128.84,706.54L2130.60,705.06L2133.23,708.87L2130.89,712.98L2127.90,716.09L2125.55,716.35L2125.89,719.42L2123.34,723.27L2120.37,727.05L2120.50,729.22L2125.14,733.47L2129.89,735.93L2132.88,738.58L2136.89,743.14L2138.78,743.13L2141.92,745.10L2142.48,747.48L2148.37,750.09L2153.31,747.46L2155.43,743.33L2157.43,739.92L2159.04,735.70L2162.16,729.58L2161.84,725.86L2162.69,723.62L2162.59,719.22L2164.32,713.43L2165.83,711.86L2165.13,709.29L2167.29,705.22L2169.09,700.99L2169.52,698.80L2172.36,695.91L2173.83,699.68L2173.71,704.50L2175.27,705.43L2175.14,708.66L2177.06,712.58L2176.93,716.93L2176.27,719.72L2177.74,725.76L2182.53,722.86L2184.23,726.12L2186.94,729.12L2185.65,732.53L2185.86,739.12L2186.13,742.96L2187.63,743.90L2188.12,750.48L2186.64,754.47L2187.70,759.68L2194.08,763.70L2198.00,767.36L2201.74,770.70L2200.45,772.57L2203.18,777.39L2203.85,785.71L2206.90,784.02L2208.81,787.36L2210.71,786.18L2209.85,794.33L2213.32,799.05L2215.60,801.99L2218.98,808.21L2218.94,814.39L2217.69,818.78L2215.63,823.54L2216.42,830.08L2213.47,836.88L2210.94,840.45L2206.36,847.31L2204.60,851.72L2200.88,857.24L2194.80,864.24L2188.23,868.02L2183.00,873.97L2178.98,877.78L2173.72,884.41L2169.27,888.24L2164.62,893.99L2160.94,899.27L2159.92,901.70L2154.79,904.36L2147.55,904.64L2139.95,907.78L2135.36,910.75L2129.65,914.04L2126.38,910.65L2123.28,909.30L2126.48,905.31L2122.22,906.76L2113.60,912.31L2109.32,910.23L2106.41,909.02L2103.10,908.47L2098.18,906.25L2096.58,901.53L2098.38,895.70L2098.83,891.82L2097.21,888.71L2091.51,887.78L2095.38,884.05L2096.48,878.35L2090.89,883.67L2084.53,885.08L2089.85,880.83L2092.85,876.39L2097.02,872.62L2098.99,866.93L2090.88,873.49L2085.69,876.12L2080.47,882.23L2076.90,879.07L2078.91,874.99L2077.29,869.41L2075.10,866.53L2077.06,864.75L2070.65,860.09L2066.18,859.87L2061.40,856.13L2049.51,856.85L2040.06,859.61L2031.70,862.18L2025.72,861.67Z" data-iso2="AU" data-iso3="AUS" data-name="Australia" /><path d="M1763.18,555.99L1762.51,564.00L1759.75,566.18L1753.92,567.94L1750.46,561.83L1748.76,550.77L1751.17,538.29L1756.08,542.56L1759.52,547.98L1763.18,555.99Z" data-iso2="LK" data-iso3="LKA" data-name="Sri Lanka" /><path d="M1941.85,473.88L1935.98,471.49L1934.74,464.87L1937.47,461.39L1944.42,459.23L1948.28,459.42L1950.26,462.35L1947.87,465.74L1947.04,470.18L1941.85,473.88ZM1705.32,288.37L1703.24,284.04L1706.73,282.06L1696.20,268.89L1707.07,265.87L1709.51,264.19L1708.33,250.70L1721.30,253.18L1723.18,249.78L1720.14,242.26L1724.77,241.56L1726.98,236.59L1729.01,235.97L1733.02,241.19L1739.87,245.16L1749.70,247.97L1756.62,254.03L1758.24,262.83L1761.87,266.11L1769.67,267.40L1778.34,268.45L1787.84,273.17L1792.00,274.01L1797.94,281.00L1803.56,285.52L1810.29,285.34L1823.80,287.04L1831.53,285.99L1838.15,287.12L1849.45,291.74L1856.95,291.73L1860.80,294.10L1866.09,290.01L1874.80,287.37L1883.92,287.08L1889.78,284.41L1892.10,280.34L1895.07,277.79L1892.75,275.29L1889.26,272.37L1889.84,267.50L1893.64,268.18L1900.73,269.71L1904.59,265.70L1912.21,262.77L1913.80,257.79L1916.80,255.65L1924.96,254.65L1930.22,255.50L1929.28,252.82L1920.66,247.57L1914.40,245.18L1911.48,247.94L1904.87,246.77L1902.05,247.73L1898.68,244.66L1898.31,237.19L1897.62,231.57L1906.53,234.38L1911.77,229.68L1909.51,226.41L1909.33,218.55L1910.87,216.19L1907.83,212.12L1903.36,210.37L1905.40,206.72L1911.54,205.40L1919.01,205.20L1929.31,207.38L1936.48,210.08L1945.74,217.51L1950.30,220.69L1955.70,225.24L1963.09,232.52L1975.06,234.91L1985.79,240.21L1993.01,247.25L2002.11,247.26L2005.26,244.30L2013.57,242.09L2015.13,248.84L2014.68,251.59L2018.11,259.83L2018.80,267.18L2010.57,265.84L2007.04,268.51L2012.71,275.00L2017.34,283.96L2014.32,284.17L2016.67,288.03L2010.00,283.54L2010.08,287.80L2002.44,291.08L2005.70,295.10L2000.17,294.82L1995.88,292.43L1994.62,297.84L1989.98,301.94L1987.45,306.84L1979.82,309.06L1976.97,312.64L1971.20,314.73L1972.82,311.18L1970.04,308.20L1972.38,303.07L1967.00,299.07L1962.96,301.76L1958.59,307.07L1957.12,312.01L1951.13,312.38L1949.59,315.95L1955.28,321.13L1961.02,322.39L1962.77,325.83L1968.78,328.07L1973.42,322.60L1980.40,325.58L1984.59,325.78L1987.43,329.80L1979.38,331.95L1978.19,336.09L1973.60,339.95L1972.50,345.32L1981.10,349.55L1986.58,357.11L1993.17,364.16L1999.73,370.07L2001.64,375.79L1998.28,377.89L2001.21,381.99L2005.84,384.38L2006.82,390.65L2007.00,396.74L2003.53,397.43L2001.06,405.76L1998.29,415.85L1994.26,425.03L1986.63,432.13L1978.65,438.61L1971.33,439.49L1967.89,442.91L1965.14,440.41L1962.07,444.23L1953.44,448.09L1946.59,449.26L1945.66,457.39L1942.04,457.84L1939.38,452.26L1940.46,449.28L1931.12,446.82L1928.19,448.07L1921.16,446.07L1917.47,442.95L1917.77,438.52L1911.45,437.11L1907.75,434.23L1902.80,438.33L1896.49,439.21L1891.19,439.18L1887.93,441.05L1884.67,442.18L1887.05,450.98L1883.47,450.77L1882.59,448.96L1881.90,445.78L1877.37,448.02L1874.27,446.61L1868.88,443.72L1869.80,437.33L1865.36,435.84L1862.58,428.76L1855.81,430.03L1854.98,420.91L1859.98,414.49L1858.93,408.14L1857.44,402.26L1854.15,400.42L1850.90,395.89L1847.20,396.46L1839.86,395.32L1841.30,392.08L1837.05,387.30L1833.19,390.54L1827.25,388.65L1820.87,393.55L1816.19,399.27L1811.10,400.23L1807.78,398.16L1804.27,397.98L1799.20,396.20L1796.08,398.15L1792.92,403.87L1791.11,397.81L1787.45,399.43L1779.64,398.68L1771.86,396.91L1765.83,393.53L1760.42,392.02L1757.44,388.32L1753.53,387.22L1745.83,382.20L1740.08,379.84L1737.78,381.68L1727.53,376.30L1720.04,371.43L1716.22,362.95L1721.11,363.98L1720.36,360.05L1716.81,356.12L1715.85,349.84L1706.58,340.83L1695.25,337.73L1691.77,331.83L1686.09,328.25L1684.35,326.05L1682.17,321.68L1681.54,318.70L1677.20,316.96L1675.35,317.73L1671.68,310.64L1672.94,308.89L1671.53,307.11L1676.39,303.50L1680.23,302.00L1687.17,303.03L1687.92,298.15L1695.60,297.25L1696.77,294.22L1705.08,290.09L1705.32,288.37Z" data-iso2="CN" data-iso3="CHN" data-name="China" /><path d="M2015.17,426.21L2013.74,438.54L2012.10,444.85L2007.35,438.36L2005.46,432.66L2007.76,425.10L2011.72,419.28L2015.27,421.57L2015.17,426.21Z" data-iso2="CN-TW" data-iso3="TWN" data-name="Taiwan" /><path d="M2024.14,516.13L2019.99,510.27L2025.80,510.55L2028.48,513.32L2027.47,519.97L2024.14,516.13ZM2038.14,537.08L2039.64,534.92L2039.93,530.15L2043.61,529.70L2043.02,534.88L2047.29,527.45L2047.37,534.79L2045.17,537.32L2043.48,542.18L2041.54,544.45L2036.93,539.14L2038.14,537.08ZM2064.80,549.13L2065.88,554.24L2066.58,558.55L2064.73,565.59L2061.74,557.75L2058.83,561.65L2061.35,567.32L2059.61,570.92L2051.37,566.46L2049.12,560.89L2050.94,557.24L2046.40,553.60L2044.49,556.79L2041.28,556.49L2036.55,560.78L2035.28,558.53L2037.49,552.05L2041.60,549.88L2045.07,546.99L2047.73,550.47L2052.72,548.36L2053.55,544.93L2058.32,544.73L2057.41,538.78L2063.21,542.42L2064.10,546.30L2064.80,549.13ZM2010.96,542.19L2002.51,549.49L2005.43,544.11L2009.93,539.36L2013.53,534.04L2016.33,526.40L2018.15,532.67L2014.07,536.90L2010.96,542.19ZM2027.91,473.67L2027.37,476.86L2030.60,482.37L2029.89,488.76L2026.33,491.31L2026.21,497.51L2028.59,503.64L2032.27,504.49L2035.13,503.58L2044.12,507.84L2044.02,512.03L2046.45,513.88L2046.18,517.42L2040.46,513.64L2037.46,509.60L2036.09,512.43L2031.21,507.82L2025.24,508.96L2021.66,507.26L2021.58,504.08L2023.42,502.12L2021.16,500.34L2020.68,503.12L2016.74,498.70L2015.24,495.35L2013.86,487.98L2016.96,490.51L2015.70,478.48L2016.68,471.51L2020.73,471.52L2025.24,473.72L2026.96,471.71L2027.91,473.67ZM2033.37,526.04L2031.93,522.38L2036.24,524.76L2040.54,524.75L2040.74,527.96L2037.94,531.23L2033.87,533.54L2033.28,529.97L2033.37,526.04ZM2056.13,520.30L2058.96,528.89L2053.54,526.85L2053.95,529.43L2056.07,534.17L2053.01,535.90L2052.21,530.49L2050.14,530.09L2048.60,525.43L2052.64,526.04L2052.23,523.13L2047.43,517.26L2053.93,517.43L2056.13,520.30Z" data-iso2="PH" data-iso3="PHL" data-name="Philippines" /><path d="M1887.60,564.13L1888.71,562.76L1894.41,566.13L1895.13,570.08L1899.56,569.16L1901.63,566.00L1903.22,566.72L1907.45,571.36L1910.53,576.51L1911.13,581.69L1910.54,585.19L1911.30,587.83L1911.94,592.38L1914.39,594.50L1917.22,601.31L1917.14,603.91L1912.33,604.42L1905.80,598.72L1897.60,592.62L1896.69,588.70L1892.58,583.55L1891.39,577.18L1888.77,572.99L1889.25,567.39L1887.60,564.13ZM2009.19,582.03L2003.24,580.73L1995.44,580.73L1993.45,589.48L1990.93,592.15L1987.73,602.85L1982.22,604.49L1975.75,602.33L1972.51,603.01L1968.61,606.90L1964.26,606.34L1959.90,607.91L1955.19,603.56L1953.95,598.42L1958.99,601.06L1964.21,599.62L1965.40,593.11L1968.25,591.66L1976.33,589.99L1980.97,583.90L1984.09,579.04L1987.36,583.03L1988.67,580.41L1991.92,580.65L1992.08,575.74L1992.20,571.95L1997.14,566.60L2000.20,560.59L2002.94,560.56L2006.66,564.45L2007.16,567.80L2011.75,569.94L2017.53,572.26L2017.20,575.27L2012.67,575.65L2014.06,579.41L2009.19,582.03Z" data-iso2="MY" data-iso3="MYS" data-name="Malaysia" /><path d="M1992.20,571.95L1992.08,575.74L1991.92,580.65L1988.67,580.41L1987.36,583.03L1984.09,579.04L1986.64,576.16L1992.20,571.95Z" data-iso2="BN" data-iso3="BRN" data-name="Brunei" /><path d="M2101.13,312.56L2099.57,320.27L2103.86,328.18L2104.58,334.31L2107.60,338.15L2106.89,343.57L2100.40,347.19L2089.35,347.66L2084.10,356.43L2078.48,353.48L2075.66,347.73L2065.25,349.43L2059.22,353.05L2051.76,353.20L2060.67,358.86L2061.58,371.93L2058.60,375.17L2054.34,372.18L2053.24,365.24L2048.25,363.01L2043.49,357.73L2048.60,355.36L2049.92,350.53L2054.64,346.55L2056.98,341.30L2068.64,339.01L2076.21,340.58L2076.24,326.93L2082.31,330.60L2087.69,322.92L2089.71,319.95L2088.51,310.59L2082.43,301.99L2082.15,297.17L2087.90,295.77L2097.73,306.36L2101.13,312.56ZM2095.07,276.14L2097.18,272.93L2104.39,281.44L2096.65,283.52L2096.19,291.07L2083.10,285.87L2085.05,294.20L2078.21,294.32L2072.59,286.75L2071.85,280.90L2078.14,280.48L2072.89,269.99L2070.66,264.10L2083.22,271.97L2089.66,274.52L2095.07,276.14ZM2062.05,356.44L2063.64,351.85L2067.69,352.74L2068.91,349.51L2074.36,351.17L2076.34,353.81L2074.72,358.46L2071.02,355.99L2068.48,357.78L2068.64,362.28L2063.53,360.09L2062.05,356.44Z" data-iso2="JP" data-iso3="JPN" data-name="Japan" /></g><g id="pof-country-overlay" _comment="Insert colored paths/shapes here for highlighting. Categorical/heatmap layer."><path d="M2166.67,633.85L2165.43,658.92L2163.57,683.99L2158.10,677.68L2151.36,676.13L2149.50,678.32L2140.90,678.56L2144.29,672.30L2148.72,670.16L2147.55,661.80L2144.71,655.34L2131.93,648.83L2126.37,648.18L2116.53,641.07L2114.35,644.81L2111.71,645.49L2110.31,642.67L2110.44,639.33L2105.40,635.55L2112.82,632.78L2117.66,632.93L2117.16,630.89L2107.22,630.87L2104.65,626.29L2098.62,624.87L2095.81,621.07L2104.99,619.20L2108.50,616.70L2119.37,619.86L2120.40,622.71L2121.94,635.15L2128.78,639.76L2134.78,631.60L2142.71,626.96L2148.75,626.95L2154.48,629.63L2159.43,632.38L2166.67,633.85ZM2054.98,682.26L2055.54,683.77L2055.46,686.11L2050.54,691.85L2044.59,693.54L2043.87,692.62L2044.71,690.01L2048.03,685.31L2054.98,682.26ZM2118.74,666.89L2118.47,661.10L2119.85,658.34L2121.43,655.74L2122.83,657.99L2122.58,661.66L2118.74,666.89ZM2009.19,582.03L2005.61,588.97L2010.85,596.26L2009.77,599.80L2017.52,606.91L2009.48,607.82L2007.25,613.07L2007.51,620.04L2000.89,625.30L2000.52,632.96L1997.46,644.72L1996.58,641.98L1988.72,645.44L1986.22,640.74L1981.40,640.31L1978.10,637.84L1969.93,640.61L1967.58,636.89L1963.12,637.31L1957.55,636.42L1956.79,626.11L1953.44,623.97L1950.25,617.39L1949.31,610.66L1950.02,603.53L1953.95,598.42L1955.19,603.56L1959.90,607.91L1964.26,606.34L1968.61,606.90L1972.51,603.01L1975.75,602.33L1982.22,604.49L1987.73,602.85L1990.93,592.15L1993.45,589.48L1995.44,580.73L2003.24,580.73L2009.19,582.03ZM2087.62,635.41L2095.01,637.65L2097.22,643.53L2091.63,640.36L2085.99,639.72L2082.13,640.23L2077.44,639.96L2079.22,635.73L2087.62,635.41ZM2070.36,643.01L2065.73,641.60L2064.55,638.29L2071.43,637.92L2073.01,640.46L2070.36,643.01ZM2078.02,597.13L2078.62,601.33L2082.64,602.00L2083.34,605.14L2083.06,611.87L2079.55,611.11L2078.52,615.79L2081.29,619.85L2079.37,620.78L2076.68,615.90L2074.60,606.07L2075.84,599.93L2078.02,597.13ZM2044.23,607.12L2052.04,606.80L2058.65,601.21L2059.88,602.93L2054.52,610.56L2049.42,612.04L2042.88,610.54L2031.56,610.92L2025.62,612.03L2024.65,617.85L2030.63,624.69L2034.36,621.21L2047.06,618.59L2046.46,622.13L2043.51,621.01L2040.49,625.52L2034.44,628.50L2040.54,638.36L2039.19,641.00L2044.88,649.88L2044.56,654.93L2040.81,657.20L2038.30,654.49L2041.90,648.19L2035.10,651.17L2033.51,649.04L2034.54,646.07L2029.84,641.56L2030.63,634.07L2026.02,636.40L2026.23,645.37L2025.95,656.38L2021.59,657.49L2018.79,655.24L2021.10,648.16L2020.38,640.73L2017.52,640.68L2015.61,635.41L2018.58,630.37L2019.69,624.26L2023.20,612.67L2024.61,609.50L2030.31,603.78L2035.65,606.05L2044.23,607.12ZM2022.45,692.76L2013.94,687.37L2020.38,685.86L2023.74,688.20L2025.90,690.54L2025.31,692.62L2022.45,692.76ZM2030.63,679.52L2035.19,678.93L2041.47,676.12L2040.15,680.39L2029.81,682.57L2020.88,681.62L2021.07,678.81L2026.56,677.21L2030.63,679.52ZM2009.87,678.18L2014.10,677.55L2015.54,680.82L2007.59,682.36L2002.82,683.40L1999.19,683.34L2001.85,678.91L2005.56,678.85L2007.57,676.13L2009.87,678.18ZM1944.58,663.25L1945.35,665.99L1958.29,666.75L1959.97,663.58L1972.33,667.28L1974.49,672.27L1984.57,673.67L1992.56,678.24L1984.62,681.17L1977.40,678.07L1971.26,678.28L1964.27,677.71L1958.02,676.33L1950.36,673.40L1945.44,672.63L1942.56,673.60L1930.39,670.43L1929.41,667.12L1923.24,666.56L1928.27,659.21L1936.48,659.66L1941.79,662.67L1944.58,663.25ZM1918.12,622.20L1919.18,627.56L1921.45,631.86L1926.42,632.54L1929.57,637.41L1927.51,646.97L1926.70,658.87L1919.18,659.03L1913.77,652.60L1905.32,646.32L1902.59,641.65L1897.65,635.39L1894.43,629.62L1889.43,618.86L1883.48,612.44L1881.44,605.83L1878.84,599.83L1872.60,594.98L1868.86,588.40L1863.60,584.09L1856.20,575.62L1855.44,571.70L1859.82,572.01L1870.39,573.50L1876.70,581.02L1882.14,586.24L1885.99,589.44L1892.65,597.71L1899.56,597.83L1905.37,603.09L1909.38,609.54L1914.57,613.05L1911.82,619.33L1915.68,622.00L1918.12,622.20Z" fill="#435D74" stroke="#FFFFFF" stroke-width="0.8" data-iso2="ID" data-name="Indonesia" /><path d="M2024.14,516.13L2019.99,510.27L2025.80,510.55L2028.48,513.32L2027.47,519.97L2024.14,516.13ZM2038.14,537.08L2039.64,534.92L2039.93,530.15L2043.61,529.70L2043.02,534.88L2047.29,527.45L2047.37,534.79L2045.17,537.32L2043.48,542.18L2041.54,544.45L2036.93,539.14L2038.14,537.08ZM2064.80,549.13L2065.88,554.24L2066.58,558.55L2064.73,565.59L2061.74,557.75L2058.83,561.65L2061.35,567.32L2059.61,570.92L2051.37,566.46L2049.12,560.89L2050.94,557.24L2046.40,553.60L2044.49,556.79L2041.28,556.49L2036.55,560.78L2035.28,558.53L2037.49,552.05L2041.60,549.88L2045.07,546.99L2047.73,550.47L2052.72,548.36L2053.55,544.93L2058.32,544.73L2057.41,538.78L2063.21,542.42L2064.10,546.30L2064.80,549.13ZM2010.96,542.19L2002.51,549.49L2005.43,544.11L2009.93,539.36L2013.53,534.04L2016.33,526.40L2018.15,532.67L2014.07,536.90L2010.96,542.19ZM2027.91,473.67L2027.37,476.86L2030.60,482.37L2029.89,488.76L2026.33,491.31L2026.21,497.51L2028.59,503.64L2032.27,504.49L2035.13,503.58L2044.12,507.84L2044.02,512.03L2046.45,513.88L2046.18,517.42L2040.46,513.64L2037.46,509.60L2036.09,512.43L2031.21,507.82L2025.24,508.96L2021.66,507.26L2021.58,504.08L2023.42,502.12L2021.16,500.34L2020.68,503.12L2016.74,498.70L2015.24,495.35L2013.86,487.98L2016.96,490.51L2015.70,478.48L2016.68,471.51L2020.73,471.52L2025.24,473.72L2026.96,471.71L2027.91,473.67ZM2033.37,526.04L2031.93,522.38L2036.24,524.76L2040.54,524.75L2040.74,527.96L2037.94,531.23L2033.87,533.54L2033.28,529.97L2033.37,526.04ZM2056.13,520.30L2058.96,528.89L2053.54,526.85L2053.95,529.43L2056.07,534.17L2053.01,535.90L2052.21,530.49L2050.14,530.09L2048.60,525.43L2052.64,526.04L2052.23,523.13L2047.43,517.26L2053.93,517.43L2056.13,520.30Z" fill="#435D74" stroke="#FFFFFF" stroke-width="0.8" data-iso2="PH" data-name="Philippines" /><path d="M1914.38,533.19L1919.98,530.09L1927.02,529.53L1923.64,524.87L1934.42,518.95L1934.27,509.74L1932.11,504.61L1932.38,496.92L1929.95,491.48L1924.12,486.13L1918.91,479.36L1911.97,470.27L1903.26,465.66L1904.76,462.90L1908.71,460.88L1905.09,454.18L1896.87,454.12L1892.79,447.13L1887.93,441.05L1891.19,439.18L1896.49,439.21L1902.80,438.33L1907.75,434.23L1911.45,437.11L1917.77,438.52L1917.47,442.95L1921.16,446.07L1928.19,448.07L1920.36,454.65L1915.94,461.92L1915.31,467.26L1921.67,475.36L1929.43,485.42L1936.20,490.17L1941.13,496.34L1945.96,510.58L1946.46,524.11L1941.29,529.18L1933.98,534.13L1928.96,540.54L1921.02,547.70L1918.22,542.77L1919.74,537.56L1914.38,533.19Z" fill="#435D74" stroke="#FFFFFF" stroke-width="0.8" data-iso2="VN" data-name="Vietnam" /><path d="M1901.42,520.11L1898.89,510.82L1902.50,504.43L1911.04,502.96L1917.48,504.06L1923.39,507.08L1925.80,501.78L1932.11,504.61L1934.27,509.74L1934.42,518.95L1923.64,524.87L1927.02,529.53L1919.98,530.09L1914.38,533.19L1908.63,532.07L1905.55,528.06L1901.42,520.11Z" fill="#435D74" stroke="#FFFFFF" stroke-width="0.8" data-iso2="KH" data-name="Cambodia" /></g></svg>