<?xml version='1.0' encoding='UTF-8'?>
<svg xmlns="http://www.w3.org/2000/svg" viewBox="1793.4 409.5 435.2 346.0" width="1920" height="1526" data-region="Philippines" data-version="2.0" data-source="POF design system v3.3.0 - vectorized regional crop"><defs /><rect x="1793.44" y="409.51" width="435.23" height="346.03" fill="#FFFFFF" /><g id="pof-map-base" fill="#EAEBED" stroke="#FFFFFF" stroke-width="0.8"><path d="M2166.67,633.85L2178.22,639.15L2190.56,643.56L2195.02,647.50L2198.56,651.36L2199.31,655.90L2210.29,660.65L2211.64,664.73L2205.34,665.56L2206.44,670.68L2212.06,675.73L2215.70,683.89L2219.60,683.63L2218.98,687.04L2224.07,688.35L2221.88,689.80L2228.71,693.03L2227.70,695.26L2223.16,695.79L2221.73,693.80L2216.02,692.94L2209.32,691.78L2204.58,686.87L2201.15,682.64L2198.25,675.91L2189.70,672.55L2183.78,674.74L2179.42,677.28L2179.77,682.95L2174.21,685.60L2170.54,684.31L2163.57,683.99L2165.43,658.92L2166.67,633.85ZM2245.33,642.01L2247.78,644.47L2248.35,648.47L2246.10,650.52L2245.10,645.98L2243.69,643.00L2240.75,640.48L2237.05,637.20L2232.24,634.94L2234.21,633.08L2237.79,635.24L2240.02,636.93L2242.78,638.78L2245.33,642.01ZM2235.20,658.78L2231.35,660.65L2227.74,662.45L2224.14,662.44L2218.74,660.21L2215.02,658.06L2215.74,655.68L2221.75,656.80L2225.50,656.20L2226.76,652.51L2227.75,652.32L2228.14,656.41L2232.05,655.82L2234.14,653.19L2238.10,650.45L2237.63,645.91L2241.70,645.77L2243.00,647.03L2242.60,651.30L2240.01,655.99L2236.42,656.62L2235.20,658.78ZM2258.93,654.93L2260.86,656.67L2263.79,661.55L2266.79,664.16L2265.67,666.31L2263.71,667.08L2261.01,664.13L2258.41,659.24L2257.36,653.38L2258.35,652.64L2258.93,654.93Z" data-iso2="PG" data-iso3="PNG" data-name="Papua New Guinea" /><path d="M2166.67,633.85L2165.43,658.92L2163.57,683.99L2158.10,677.68L2151.36,676.13L2149.50,678.32L2140.90,678.56L2144.29,672.30L2148.72,670.16L2147.55,661.80L2144.71,655.34L2131.93,648.83L2126.37,648.18L2116.53,641.07L2114.35,644.81L2111.71,645.49L2110.31,642.67L2110.44,639.33L2105.40,635.55L2112.82,632.78L2117.66,632.93L2117.16,630.89L2107.22,630.87L2104.65,626.29L2098.62,624.87L2095.81,621.07L2104.99,619.20L2108.50,616.70L2119.37,619.86L2120.40,622.71L2121.94,635.15L2128.78,639.76L2134.78,631.60L2142.71,626.96L2148.75,626.95L2154.48,629.63L2159.43,632.38L2166.67,633.85ZM2054.98,682.26L2055.54,683.77L2055.46,686.11L2050.54,691.85L2044.59,693.54L2043.87,692.62L2044.71,690.01L2048.03,685.31L2054.98,682.26ZM2118.74,666.89L2118.47,661.10L2119.85,658.34L2121.43,655.74L2122.83,657.99L2122.58,661.66L2118.74,666.89ZM2009.19,582.03L2005.61,588.97L2010.85,596.26L2009.77,599.80L2017.52,606.91L2009.48,607.82L2007.25,613.07L2007.51,620.04L2000.89,625.30L2000.52,632.96L1997.46,644.72L1996.58,641.98L1988.72,645.44L1986.22,640.74L1981.40,640.31L1978.10,637.84L1969.93,640.61L1967.58,636.89L1963.12,637.31L1957.55,636.42L1956.79,626.11L1953.44,623.97L1950.25,617.39L1949.31,610.66L1950.02,603.53L1953.95,598.42L1955.19,603.56L1959.90,607.91L1964.26,606.34L1968.61,606.90L1972.51,603.01L1975.75,602.33L1982.22,604.49L1987.73,602.85L1990.93,592.15L1993.45,589.48L1995.44,580.73L2003.24,580.73L2009.19,582.03ZM2087.62,635.41L2095.01,637.65L2097.22,643.53L2091.63,640.36L2085.99,639.72L2082.13,640.23L2077.44,639.96L2079.22,635.73L2087.62,635.41ZM2070.36,643.01L2065.73,641.60L2064.55,638.29L2071.43,637.92L2073.01,640.46L2070.36,643.01ZM2078.02,597.13L2078.62,601.33L2082.64,602.00L2083.34,605.14L2083.06,611.87L2079.55,611.11L2078.52,615.79L2081.29,619.85L2079.37,620.78L2076.68,615.90L2074.60,606.07L2075.84,599.93L2078.02,597.13ZM2044.23,607.12L2052.04,606.80L2058.65,601.21L2059.88,602.93L2054.52,610.56L2049.42,612.04L2042.88,610.54L2031.56,610.92L2025.62,612.03L2024.65,617.85L2030.63,624.69L2034.36,621.21L2047.06,618.59L2046.46,622.13L2043.51,621.01L2040.49,625.52L2034.44,628.50L2040.54,638.36L2039.19,641.00L2044.88,649.88L2044.56,654.93L2040.81,657.20L2038.30,654.49L2041.90,648.19L2035.10,651.17L2033.51,649.04L2034.54,646.07L2029.84,641.56L2030.63,634.07L2026.02,636.40L2026.23,645.37L2025.95,656.38L2021.59,657.49L2018.79,655.24L2021.10,648.16L2020.38,640.73L2017.52,640.68L2015.61,635.41L2018.58,630.37L2019.69,624.26L2023.20,612.67L2024.61,609.50L2030.31,603.78L2035.65,606.05L2044.23,607.12ZM2022.45,692.76L2013.94,687.37L2020.38,685.86L2023.74,688.20L2025.90,690.54L2025.31,692.62L2022.45,692.76ZM2030.63,679.52L2035.19,678.93L2041.47,676.12L2040.15,680.39L2029.81,682.57L2020.88,681.62L2021.07,678.81L2026.56,677.21L2030.63,679.52ZM2009.87,678.18L2014.10,677.55L2015.54,680.82L2007.59,682.36L2002.82,683.40L1999.19,683.34L2001.85,678.91L2005.56,678.85L2007.57,676.13L2009.87,678.18ZM1944.58,663.25L1945.35,665.99L1958.29,666.75L1959.97,663.58L1972.33,667.28L1974.49,672.27L1984.57,673.67L1992.56,678.24L1984.62,681.17L1977.40,678.07L1971.26,678.28L1964.27,677.71L1958.02,676.33L1950.36,673.40L1945.44,672.63L1942.56,673.60L1930.39,670.43L1929.41,667.12L1923.24,666.56L1928.27,659.21L1936.48,659.66L1941.79,662.67L1944.58,663.25ZM1918.12,622.20L1919.18,627.56L1921.45,631.86L1926.42,632.54L1929.57,637.41L1927.51,646.97L1926.70,658.87L1919.18,659.03L1913.77,652.60L1905.32,646.32L1902.59,641.65L1897.65,635.39L1894.43,629.62L1889.43,618.86L1883.48,612.44L1881.44,605.83L1878.84,599.83L1872.60,594.98L1868.86,588.40L1863.60,584.09L1856.20,575.62L1855.44,571.70L1859.82,572.01L1870.39,573.50L1876.70,581.02L1882.14,586.24L1885.99,589.44L1892.65,597.71L1899.56,597.83L1905.37,603.09L1909.38,609.54L1914.57,613.05L1911.82,619.33L1915.68,622.00L1918.12,622.20Z" data-iso2="ID" data-iso3="IDN" data-name="Indonesia" /><path d="M2054.98,682.26L2055.92,680.44L2061.88,678.71L2066.63,678.45L2068.82,677.49L2071.31,678.45L2068.65,680.53L2061.32,683.90L2055.46,686.11L2055.54,683.77L2054.98,682.26Z" data-iso2="TL" data-iso3="TLS" data-name="Timor-Leste" /><path d="M1901.42,520.11L1898.89,510.82L1902.50,504.43L1911.04,502.96L1917.48,504.06L1923.39,507.08L1925.80,501.78L1932.11,504.61L1934.27,509.74L1934.42,518.95L1923.64,524.87L1927.02,529.53L1919.98,530.09L1914.38,533.19L1908.63,532.07L1905.55,528.06L1901.42,520.11Z" data-iso2="KH" data-iso3="KHM" data-name="Cambodia" /><path d="M1917.48,504.06L1911.04,502.96L1902.50,504.43L1898.89,510.82L1901.42,520.11L1895.02,516.58L1889.27,516.73L1889.65,510.68L1883.72,510.73L1884.01,519.19L1881.34,530.42L1879.66,537.22L1880.51,542.78L1884.94,543.03L1888.13,550.05L1889.74,556.70L1893.76,561.11L1897.91,562.00L1901.63,566.00L1899.56,569.16L1895.13,570.08L1894.41,566.13L1888.71,562.76L1887.60,564.13L1884.77,561.18L1883.41,557.37L1879.56,553.02L1876.07,549.38L1875.22,553.90L1873.68,549.62L1874.12,544.83L1875.61,537.45L1878.29,529.54L1881.39,522.37L1878.10,515.36L1877.85,511.79L1876.64,507.49L1871.47,501.38L1869.42,497.52L1871.57,496.10L1873.19,489.41L1869.77,484.34L1864.76,478.72L1860.58,471.97L1863.21,470.57L1865.06,462.26L1869.73,461.91L1873.13,458.58L1876.69,456.80L1879.93,459.17L1881.00,463.79L1885.57,464.15L1885.12,472.25L1886.26,479.15L1892.67,474.56L1894.87,475.91L1898.76,475.69L1899.71,473.01L1904.85,473.54L1910.87,479.79L1912.37,487.38L1918.72,494.09L1919.25,500.60L1917.48,504.06Z" data-iso2="TH" data-iso3="THA" data-name="Thailand" /><path d="M1932.11,504.61L1925.80,501.78L1923.39,507.08L1917.48,504.06L1919.25,500.60L1918.72,494.09L1912.37,487.38L1910.87,479.79L1904.85,473.54L1899.71,473.01L1898.76,475.69L1894.87,475.91L1892.67,474.56L1886.26,479.15L1885.12,472.25L1885.57,464.15L1881.00,463.79L1879.93,459.17L1876.69,456.80L1877.69,453.97L1882.59,448.96L1883.47,450.77L1887.05,450.98L1884.67,442.18L1887.93,441.05L1892.79,447.13L1896.87,454.12L1905.09,454.18L1908.71,460.88L1904.76,462.90L1903.26,465.66L1911.97,470.27L1918.91,479.36L1924.12,486.13L1929.95,491.48L1932.38,496.92L1932.11,504.61Z" data-iso2="LA" data-iso3="LAO" data-name="Laos" /><path d="M1876.69,456.80L1873.13,458.58L1869.73,461.91L1865.06,462.26L1863.21,470.57L1860.58,471.97L1864.76,478.72L1869.77,484.34L1873.19,489.41L1871.57,496.10L1869.42,497.52L1871.47,501.38L1876.64,507.49L1877.85,511.79L1878.10,515.36L1881.39,522.37L1878.29,529.54L1875.61,537.45L1874.54,531.74L1876.14,525.85L1873.47,521.30L1873.23,512.92L1870.09,508.93L1866.89,499.72L1864.49,490.01L1860.76,483.64L1856.85,487.49L1849.90,492.98L1846.04,492.29L1841.66,490.49L1842.77,480.96L1840.41,473.75L1833.96,464.89L1834.39,462.11L1830.35,461.13L1824.75,454.85L1823.46,448.66L1825.94,449.83L1825.30,444.31L1828.31,442.49L1827.12,439.22L1828.23,436.60L1827.22,428.64L1832.69,430.39L1834.57,424.05L1834.23,420.30L1836.66,413.85L1835.58,409.45L1842.98,404.13L1847.98,405.52L1846.39,400.79L1848.37,399.38L1847.20,396.46L1850.90,395.89L1854.15,400.42L1857.44,402.26L1858.93,408.14L1859.98,414.49L1854.98,420.91L1855.81,430.03L1862.58,428.76L1865.36,435.84L1869.80,437.33L1868.88,443.72L1874.27,446.61L1877.37,448.02L1881.90,445.78L1882.59,448.96L1877.69,453.97L1876.69,456.80Z" data-iso2="MM" data-iso3="MMR" data-name="Myanmar" /><path d="M1914.38,533.19L1919.98,530.09L1927.02,529.53L1923.64,524.87L1934.42,518.95L1934.27,509.74L1932.11,504.61L1932.38,496.92L1929.95,491.48L1924.12,486.13L1918.91,479.36L1911.97,470.27L1903.26,465.66L1904.76,462.90L1908.71,460.88L1905.09,454.18L1896.87,454.12L1892.79,447.13L1887.93,441.05L1891.19,439.18L1896.49,439.21L1902.80,438.33L1907.75,434.23L1911.45,437.11L1917.77,438.52L1917.47,442.95L1921.16,446.07L1928.19,448.07L1920.36,454.65L1915.94,461.92L1915.31,467.26L1921.67,475.36L1929.43,485.42L1936.20,490.17L1941.13,496.34L1945.96,510.58L1946.46,524.11L1941.29,529.18L1933.98,534.13L1928.96,540.54L1921.02,547.70L1918.22,542.77L1919.74,537.56L1914.38,533.19Z" data-iso2="VN" data-iso3="VNM" data-name="Vietnam" /><path d="M1847.20,396.46L1848.37,399.38L1846.39,400.79L1847.98,405.52L1842.98,404.13L1835.58,409.45L1836.66,413.85L1834.23,420.30L1834.57,424.05L1832.69,430.39L1827.22,428.64L1828.23,436.60L1827.12,439.22L1828.31,442.49L1825.30,444.31L1819.96,432.11L1818.14,432.13L1817.81,437.05L1813.57,433.06L1814.92,428.68L1817.81,428.24L1819.77,421.73L1815.73,420.42L1809.62,420.53L1803.14,419.48L1801.60,414.13L1798.38,413.75L1792.54,410.43L1791.17,415.64L1796.65,419.72L1793.00,422.58L1791.99,425.38L1796.39,427.45L1795.98,432.08L1799.14,437.87L1801.07,444.20L1800.50,447.01L1795.96,446.91L1787.97,448.51L1789.11,454.29L1786.14,458.85L1777.19,464.02L1770.82,473.07L1766.36,477.93L1760.26,482.96L1760.64,486.50L1757.50,488.39L1751.75,491.15L1748.65,491.56L1747.22,497.42L1749.54,507.43L1750.43,513.81L1748.12,521.12L1748.96,534.18L1745.49,534.56L1742.75,540.42L1744.94,542.96L1738.89,545.14L1736.86,550.37L1734.25,552.58L1727.49,545.40L1723.78,534.63L1720.72,526.87L1718.12,523.23L1714.02,515.84L1711.60,506.22L1710.04,501.42L1702.96,490.85L1698.69,475.95L1695.65,466.10L1694.68,456.79L1692.60,449.58L1683.40,454.19L1678.61,453.26L1668.92,443.94L1671.81,441.16L1669.51,438.14L1660.98,431.61L1664.77,426.48L1679.35,426.50L1677.16,419.90L1672.90,416.00L1671.29,410.08L1666.46,406.62L1672.40,398.56L1680.12,399.14L1685.55,391.08L1688.16,383.27L1692.90,375.55L1691.62,370.07L1696.15,365.62L1690.05,361.82L1686.60,356.61L1682.70,349.88L1685.03,346.56L1695.23,348.44L1702.09,347.29L1706.58,340.83L1715.85,349.84L1716.81,356.12L1720.36,360.05L1721.11,363.98L1716.22,362.95L1720.04,371.43L1727.53,376.30L1737.78,381.68L1734.40,385.17L1733.35,392.37L1740.28,395.28L1747.20,399.05L1756.60,403.37L1765.80,404.36L1770.33,408.27L1775.55,409.01L1783.81,410.80L1789.27,410.67L1789.45,407.63L1787.62,402.74L1787.45,399.43L1791.11,397.81L1792.92,403.87L1793.37,405.41L1799.92,408.33L1803.82,407.12L1809.48,407.64L1814.81,407.41L1814.30,402.69L1811.10,400.23L1816.19,399.27L1820.87,393.55L1827.25,388.65L1833.19,390.54L1837.05,387.30L1841.30,392.08L1839.86,395.32L1847.20,396.46Z" data-iso2="IN" data-iso3="IND" data-name="India" /><path d="M1825.30,444.31L1825.94,449.83L1823.46,448.66L1824.75,454.85L1822.29,450.84L1821.36,446.92L1819.57,443.22L1816.14,438.74L1809.97,438.44L1811.04,441.61L1809.56,445.89L1806.51,444.33L1805.74,445.73L1803.74,444.89L1801.07,444.20L1799.14,437.87L1795.98,432.08L1796.39,427.45L1791.99,425.38L1793.00,422.58L1796.65,419.72L1791.17,415.64L1792.54,410.43L1798.38,413.75L1801.60,414.13L1803.14,419.48L1809.62,420.53L1815.73,420.42L1819.77,421.73L1817.81,428.24L1814.92,428.68L1813.57,433.06L1817.81,437.05L1818.14,432.13L1819.96,432.11L1825.30,444.31Z" data-iso2="BD" data-iso3="BGD" data-name="Bangladesh" /><path d="M2129.99,927.59L2133.40,928.10L2127.92,937.15L2124.04,939.77L2119.24,945.88L2118.51,943.80L2110.61,949.10L2109.62,948.69L2106.00,948.45L2106.61,941.95L2109.08,936.93L2109.77,930.29L2112.12,926.79L2115.78,927.47L2120.13,930.10L2124.19,929.05L2129.99,927.59ZM2025.72,861.67L2017.34,865.61L2011.06,867.39L2008.23,871.42L2004.60,874.54L1999.07,874.73L1994.76,875.42L1989.63,874.01L1984.67,874.85L1980.12,875.21L1974.68,879.31L1972.95,878.96L1968.87,881.13L1964.81,883.57L1960.26,883.27L1955.97,883.27L1951.07,878.36L1948.18,876.90L1949.96,872.49L1953.55,871.45L1955.29,869.69L1956.07,866.93L1958.76,861.58L1959.61,857.02L1958.74,849.24L1959.06,844.85L1960.68,840.47L1959.55,835.46L1960.02,833.20L1957.97,830.14L1958.75,824.11L1956.52,818.02L1956.39,814.74L1958.49,818.07L1957.95,810.93L1960.71,813.16L1961.96,816.14L1962.77,812.20L1960.86,806.15L1960.74,803.72L1959.68,801.42L1961.29,796.97L1963.02,795.08L1964.66,791.23L1964.78,786.74L1968.51,781.20L1967.97,787.06L1971.72,781.77L1977.58,779.20L1981.40,775.92L1986.99,773.09L1990.12,772.49L1991.79,773.44L1997.55,770.57L2001.75,769.72L2003.05,768.04L2004.94,767.33L2008.60,767.51L2016.02,765.26L2020.26,761.85L2022.70,757.74L2027.31,753.83L2028.14,750.76L2029.03,746.58L2034.82,740.04L2036.53,746.68L2039.65,745.15L2037.87,741.52L2040.58,737.78L2043.28,739.45L2045.03,733.60L2049.28,729.81L2051.35,726.78L2054.93,725.47L2055.34,723.32L2058.17,724.21L2058.56,722.28L2061.67,721.18L2065.07,720.14L2069.55,723.67L2072.62,728.23L2076.82,728.28L2080.99,729.00L2080.20,724.78L2084.30,718.61L2087.61,716.60L2086.82,714.68L2090.31,710.28L2094.73,707.57L2098.07,708.49L2103.92,707.04L2104.26,703.11L2099.60,700.57L2103.32,699.46L2107.58,701.36L2110.80,704.52L2116.25,706.48L2118.28,705.71L2122.17,708.07L2126.38,705.87L2128.84,706.54L2130.60,705.06L2133.23,708.87L2130.89,712.98L2127.90,716.09L2125.55,716.35L2125.89,719.42L2123.34,723.27L2120.37,727.05L2120.50,729.22L2125.14,733.47L2129.89,735.93L2132.88,738.58L2136.89,743.14L2138.78,743.13L2141.92,745.10L2142.48,747.48L2148.37,750.09L2153.31,747.46L2155.43,743.33L2157.43,739.92L2159.04,735.70L2162.16,729.58L2161.84,725.86L2162.69,723.62L2162.59,719.22L2164.32,713.43L2165.83,711.86L2165.13,709.29L2167.29,705.22L2169.09,700.99L2169.52,698.80L2172.36,695.91L2173.83,699.68L2173.71,704.50L2175.27,705.43L2175.14,708.66L2177.06,712.58L2176.93,716.93L2176.27,719.72L2177.74,725.76L2182.53,722.86L2184.23,726.12L2186.94,729.12L2185.65,732.53L2185.86,739.12L2186.13,742.96L2187.63,743.90L2188.12,750.48L2186.64,754.47L2187.70,759.68L2194.08,763.70L2198.00,767.36L2201.74,770.70L2200.45,772.57L2203.18,777.39L2203.85,785.71L2206.90,784.02L2208.81,787.36L2210.71,786.18L2209.85,794.33L2213.32,799.05L2215.60,801.99L2218.98,808.21L2218.94,814.39L2217.69,818.78L2215.63,823.54L2216.42,830.08L2213.47,836.88L2210.94,840.45L2206.36,847.31L2204.60,851.72L2200.88,857.24L2194.80,864.24L2188.23,868.02L2183.00,873.97L2178.98,877.78L2173.72,884.41L2169.27,888.24L2164.62,893.99L2160.94,899.27L2159.92,901.70L2154.79,904.36L2147.55,904.64L2139.95,907.78L2135.36,910.75L2129.65,914.04L2126.38,910.65L2123.28,909.30L2126.48,905.31L2122.22,906.76L2113.60,912.31L2109.32,910.23L2106.41,909.02L2103.10,908.47L2098.18,906.25L2096.58,901.53L2098.38,895.70L2098.83,891.82L2097.21,888.71L2091.51,887.78L2095.38,884.05L2096.48,878.35L2090.89,883.67L2084.53,885.08L2089.85,880.83L2092.85,876.39L2097.02,872.62L2098.99,866.93L2090.88,873.49L2085.69,876.12L2080.47,882.23L2076.90,879.07L2078.91,874.99L2077.29,869.41L2075.10,866.53L2077.06,864.75L2070.65,860.09L2066.18,859.87L2061.40,856.13L2049.51,856.85L2040.06,859.61L2031.70,862.18L2025.72,861.67Z" data-iso2="AU" data-iso3="AUS" data-name="Australia" /><path d="M1941.85,473.88L1935.98,471.49L1934.74,464.87L1937.47,461.39L1944.42,459.23L1948.28,459.42L1950.26,462.35L1947.87,465.74L1947.04,470.18L1941.85,473.88ZM1705.32,288.37L1703.24,284.04L1706.73,282.06L1696.20,268.89L1707.07,265.87L1709.51,264.19L1708.33,250.70L1721.30,253.18L1723.18,249.78L1720.14,242.26L1724.77,241.56L1726.98,236.59L1729.01,235.97L1733.02,241.19L1739.87,245.16L1749.70,247.97L1756.62,254.03L1758.24,262.83L1761.87,266.11L1769.67,267.40L1778.34,268.45L1787.84,273.17L1792.00,274.01L1797.94,281.00L1803.56,285.52L1810.29,285.34L1823.80,287.04L1831.53,285.99L1838.15,287.12L1849.45,291.74L1856.95,291.73L1860.80,294.10L1866.09,290.01L1874.80,287.37L1883.92,287.08L1889.78,284.41L1892.10,280.34L1895.07,277.79L1892.75,275.29L1889.26,272.37L1889.84,267.50L1893.64,268.18L1900.73,269.71L1904.59,265.70L1912.21,262.77L1913.80,257.79L1916.80,255.65L1924.96,254.65L1930.22,255.50L1929.28,252.82L1920.66,247.57L1914.40,245.18L1911.48,247.94L1904.87,246.77L1902.05,247.73L1898.68,244.66L1898.31,237.19L1897.62,231.57L1906.53,234.38L1911.77,229.68L1909.51,226.41L1909.33,218.55L1910.87,216.19L1907.83,212.12L1903.36,210.37L1905.40,206.72L1911.54,205.40L1919.01,205.20L1929.31,207.38L1936.48,210.08L1945.74,217.51L1950.30,220.69L1955.70,225.24L1963.09,232.52L1975.06,234.91L1985.79,240.21L1993.01,247.25L2002.11,247.26L2005.26,244.30L2013.57,242.09L2015.13,248.84L2014.68,251.59L2018.11,259.83L2018.80,267.18L2010.57,265.84L2007.04,268.51L2012.71,275.00L2017.34,283.96L2014.32,284.17L2016.67,288.03L2010.00,283.54L2010.08,287.80L2002.44,291.08L2005.70,295.10L2000.17,294.82L1995.88,292.43L1994.62,297.84L1989.98,301.94L1987.45,306.84L1979.82,309.06L1976.97,312.64L1971.20,314.73L1972.82,311.18L1970.04,308.20L1972.38,303.07L1967.00,299.07L1962.96,301.76L1958.59,307.07L1957.12,312.01L1951.13,312.38L1949.59,315.95L1955.28,321.13L1961.02,322.39L1962.77,325.83L1968.78,328.07L1973.42,322.60L1980.40,325.58L1984.59,325.78L1987.43,329.80L1979.38,331.95L1978.19,336.09L1973.60,339.95L1972.50,345.32L1981.10,349.55L1986.58,357.11L1993.17,364.16L1999.73,370.07L2001.64,375.79L1998.28,377.89L2001.21,381.99L2005.84,384.38L2006.82,390.65L2007.00,396.74L2003.53,397.43L2001.06,405.76L1998.29,415.85L1994.26,425.03L1986.63,432.13L1978.65,438.61L1971.33,439.49L1967.89,442.91L1965.14,440.41L1962.07,444.23L1953.44,448.09L1946.59,449.26L1945.66,457.39L1942.04,457.84L1939.38,452.26L1940.46,449.28L1931.12,446.82L1928.19,448.07L1921.16,446.07L1917.47,442.95L1917.77,438.52L1911.45,437.11L1907.75,434.23L1902.80,438.33L1896.49,439.21L1891.19,439.18L1887.93,441.05L1884.67,442.18L1887.05,450.98L1883.47,450.77L1882.59,448.96L1881.90,445.78L1877.37,448.02L1874.27,446.61L1868.88,443.72L1869.80,437.33L1865.36,435.84L1862.58,428.76L1855.81,430.03L1854.98,420.91L1859.98,414.49L1858.93,408.14L1857.44,402.26L1854.15,400.42L1850.90,395.89L1847.20,396.46L1839.86,395.32L1841.30,392.08L1837.05,387.30L1833.19,390.54L1827.25,388.65L1820.87,393.55L1816.19,399.27L1811.10,400.23L1807.78,398.16L1804.27,397.98L1799.20,396.20L1796.08,398.15L1792.92,403.87L1791.11,397.81L1787.45,399.43L1779.64,398.68L1771.86,396.91L1765.83,393.53L1760.42,392.02L1757.44,388.32L1753.53,387.22L1745.83,382.20L1740.08,379.84L1737.78,381.68L1727.53,376.30L1720.04,371.43L1716.22,362.95L1721.11,363.98L1720.36,360.05L1716.81,356.12L1715.85,349.84L1706.58,340.83L1695.25,337.73L1691.77,331.83L1686.09,328.25L1684.35,326.05L1682.17,321.68L1681.54,318.70L1677.20,316.96L1675.35,317.73L1671.68,310.64L1672.94,308.89L1671.53,307.11L1676.39,303.50L1680.23,302.00L1687.17,303.03L1687.92,298.15L1695.60,297.25L1696.77,294.22L1705.08,290.09L1705.32,288.37Z" data-iso2="CN" data-iso3="CHN" data-name="China" /><path d="M2015.17,426.21L2013.74,438.54L2012.10,444.85L2007.35,438.36L2005.46,432.66L2007.76,425.10L2011.72,419.28L2015.27,421.57L2015.17,426.21Z" data-iso2="CN-TW" data-iso3="TWN" data-name="Taiwan" /><path d="M2024.14,516.13L2019.99,510.27L2025.80,510.55L2028.48,513.32L2027.47,519.97L2024.14,516.13ZM2038.14,537.08L2039.64,534.92L2039.93,530.15L2043.61,529.70L2043.02,534.88L2047.29,527.45L2047.37,534.79L2045.17,537.32L2043.48,542.18L2041.54,544.45L2036.93,539.14L2038.14,537.08ZM2064.80,549.13L2065.88,554.24L2066.58,558.55L2064.73,565.59L2061.74,557.75L2058.83,561.65L2061.35,567.32L2059.61,570.92L2051.37,566.46L2049.12,560.89L2050.94,557.24L2046.40,553.60L2044.49,556.79L2041.28,556.49L2036.55,560.78L2035.28,558.53L2037.49,552.05L2041.60,549.88L2045.07,546.99L2047.73,550.47L2052.72,548.36L2053.55,544.93L2058.32,544.73L2057.41,538.78L2063.21,542.42L2064.10,546.30L2064.80,549.13ZM2010.96,542.19L2002.51,549.49L2005.43,544.11L2009.93,539.36L2013.53,534.04L2016.33,526.40L2018.15,532.67L2014.07,536.90L2010.96,542.19ZM2027.91,473.67L2027.37,476.86L2030.60,482.37L2029.89,488.76L2026.33,491.31L2026.21,497.51L2028.59,503.64L2032.27,504.49L2035.13,503.58L2044.12,507.84L2044.02,512.03L2046.45,513.88L2046.18,517.42L2040.46,513.64L2037.46,509.60L2036.09,512.43L2031.21,507.82L2025.24,508.96L2021.66,507.26L2021.58,504.08L2023.42,502.12L2021.16,500.34L2020.68,503.12L2016.74,498.70L2015.24,495.35L2013.86,487.98L2016.96,490.51L2015.70,478.48L2016.68,471.51L2020.73,471.52L2025.24,473.72L2026.96,471.71L2027.91,473.67ZM2033.37,526.04L2031.93,522.38L2036.24,524.76L2040.54,524.75L2040.74,527.96L2037.94,531.23L2033.87,533.54L2033.28,529.97L2033.37,526.04ZM2056.13,520.30L2058.96,528.89L2053.54,526.85L2053.95,529.43L2056.07,534.17L2053.01,535.90L2052.21,530.49L2050.14,530.09L2048.60,525.43L2052.64,526.04L2052.23,523.13L2047.43,517.26L2053.93,517.43L2056.13,520.30Z" data-iso2="PH" data-iso3="PHL" data-name="Philippines" /><path d="M1887.60,564.13L1888.71,562.76L1894.41,566.13L1895.13,570.08L1899.56,569.16L1901.63,566.00L1903.22,566.72L1907.45,571.36L1910.53,576.51L1911.13,581.69L1910.54,585.19L1911.30,587.83L1911.94,592.38L1914.39,594.50L1917.22,601.31L1917.14,603.91L1912.33,604.42L1905.80,598.72L1897.60,592.62L1896.69,588.70L1892.58,583.55L1891.39,577.18L1888.77,572.99L1889.25,567.39L1887.60,564.13ZM2009.19,582.03L2003.24,580.73L1995.44,580.73L1993.45,589.48L1990.93,592.15L1987.73,602.85L1982.22,604.49L1975.75,602.33L1972.51,603.01L1968.61,606.90L1964.26,606.34L1959.90,607.91L1955.19,603.56L1953.95,598.42L1958.99,601.06L1964.21,599.62L1965.40,593.11L1968.25,591.66L1976.33,589.99L1980.97,583.90L1984.09,579.04L1987.36,583.03L1988.67,580.41L1991.92,580.65L1992.08,575.74L1992.20,571.95L1997.14,566.60L2000.20,560.59L2002.94,560.56L2006.66,564.45L2007.16,567.80L2011.75,569.94L2017.53,572.26L2017.20,575.27L2012.67,575.65L2014.06,579.41L2009.19,582.03Z" data-iso2="MY" data-iso3="MYS" data-name="Malaysia" /><path d="M1992.20,571.95L1992.08,575.74L1991.92,580.65L1988.67,580.41L1987.36,583.03L1984.09,579.04L1986.64,576.16L1992.20,571.95Z" data-iso2="BN" data-iso3="BRN" data-name="Brunei" /></g><g id="pof-country-overlay" _comment="Insert colored paths/shapes here for highlighting. Categorical/heatmap layer."><path d="M2024.14,516.13L2019.99,510.27L2025.80,510.55L2028.48,513.32L2027.47,519.97L2024.14,516.13ZM2038.14,537.08L2039.64,534.92L2039.93,530.15L2043.61,529.70L2043.02,534.88L2047.29,527.45L2047.37,534.79L2045.17,537.32L2043.48,542.18L2041.54,544.45L2036.93,539.14L2038.14,537.08ZM2064.80,549.13L2065.88,554.24L2066.58,558.55L2064.73,565.59L2061.74,557.75L2058.83,561.65L2061.35,567.32L2059.61,570.92L2051.37,566.46L2049.12,560.89L2050.94,557.24L2046.40,553.60L2044.49,556.79L2041.28,556.49L2036.55,560.78L2035.28,558.53L2037.49,552.05L2041.60,549.88L2045.07,546.99L2047.73,550.47L2052.72,548.36L2053.55,544.93L2058.32,544.73L2057.41,538.78L2063.21,542.42L2064.10,546.30L2064.80,549.13ZM2010.96,542.19L2002.51,549.49L2005.43,544.11L2009.93,539.36L2013.53,534.04L2016.33,526.40L2018.15,532.67L2014.07,536.90L2010.96,542.19ZM2027.91,473.67L2027.37,476.86L2030.60,482.37L2029.89,488.76L2026.33,491.31L2026.21,497.51L2028.59,503.64L2032.27,504.49L2035.13,503.58L2044.12,507.84L2044.02,512.03L2046.45,513.88L2046.18,517.42L2040.46,513.64L2037.46,509.60L2036.09,512.43L2031.21,507.82L2025.24,508.96L2021.66,507.26L2021.58,504.08L2023.42,502.12L2021.16,500.34L2020.68,503.12L2016.74,498.70L2015.24,495.35L2013.86,487.98L2016.96,490.51L2015.70,478.48L2016.68,471.51L2020.73,471.52L2025.24,473.72L2026.96,471.71L2027.91,473.67ZM2033.37,526.04L2031.93,522.38L2036.24,524.76L2040.54,524.75L2040.74,527.96L2037.94,531.23L2033.87,533.54L2033.28,529.97L2033.37,526.04ZM2056.13,520.30L2058.96,528.89L2053.54,526.85L2053.95,529.43L2056.07,534.17L2053.01,535.90L2052.21,530.49L2050.14,530.09L2048.60,525.43L2052.64,526.04L2052.23,523.13L2047.43,517.26L2053.93,517.43L2056.13,520.30Z" fill="#435D74" stroke="#FFFFFF" stroke-width="0.8" data-iso2="PH" data-name="Philippines" /></g></svg>