<?xml version='1.0' encoding='UTF-8'?>
<svg xmlns="http://www.w3.org/2000/svg" viewBox="1231.6 384.6 382.7 494.9" width="1920" height="2483" data-region="Océan Indien &amp; Afrique de l'Est" data-version="2.0" data-source="POF design system v3.3.0 - vectorized regional crop"><defs /><rect x="1231.63" y="384.63" width="382.66999999999985" height="494.92999999999995" fill="#FFFFFF" /><g id="pof-map-base" fill="#EAEBED" stroke="#FFFFFF" stroke-width="0.8"><path d="M1439.36,621.16L1440.50,622.01L1465.01,637.68L1465.41,642.14L1475.04,649.83L1471.75,659.31L1472.07,663.67L1476.35,666.47L1476.51,668.47L1474.55,673.11L1474.88,675.45L1474.35,679.12L1476.59,683.95L1479.18,691.53L1481.61,693.21L1481.61,693.21L1476.09,697.67L1468.61,700.66L1464.56,700.53L1462.08,702.84L1457.37,703.04L1455.58,704.01L1447.53,701.84L1442.43,702.47L1440.83,692.01L1438.62,688.42L1437.31,686.29L1430.71,684.86L1426.92,682.55L1422.64,681.25L1419.97,679.96L1417.18,678.01L1417.18,678.01L1413.69,668.31L1409.82,664.01L1408.53,659.54L1409.26,655.54L1408.13,648.47L1410.94,648.10L1413.43,645.32L1416.12,641.30L1417.81,639.69L1417.78,637.19L1416.33,635.45L1415.96,632.42L1415.96,632.42L1417.93,631.45L1418.35,626.92L1415.68,622.58L1418.06,621.66L1425.51,621.76L1439.36,621.16Z" data-iso2="TZ" data-iso3="TZA" data-name="Tanzania" /><path d="M1408.13,648.47L1409.26,655.54L1408.53,659.54L1409.82,664.01L1413.69,668.31L1417.18,678.01L1417.18,678.01L1414.52,677.22L1405.40,678.52L1403.57,679.44L1401.55,684.35L1403.00,687.74L1401.60,696.85L1400.58,704.57L1402.37,705.94L1407.01,708.93L1408.90,707.53L1409.23,715.83L1404.07,715.77L1401.42,711.53L1399.02,708.25L1393.88,707.18L1392.46,703.15L1388.27,705.58L1382.89,704.50L1380.71,701.01L1376.44,700.30L1373.27,700.49L1372.93,698.10L1370.60,697.90L1367.53,697.45L1363.32,698.60L1360.39,698.41L1358.71,699.12L1359.22,689.97L1357.01,687.11L1356.59,682.38L1357.65,677.74L1356.31,674.78L1356.25,669.94L1348.02,670.00L1348.65,667.23L1345.19,667.26L1344.81,668.59L1340.60,668.89L1338.85,673.38L1337.82,675.30L1334.08,674.21L1331.84,675.30L1327.35,675.92L1324.80,671.90L1323.26,669.41L1321.36,664.80L1319.73,659.06L1299.72,658.96L1297.33,659.89L1295.37,659.74L1292.56,660.78L1291.63,658.39L1293.36,657.58L1293.59,654.22L1294.71,652.25L1297.19,650.63L1298.97,651.41L1301.30,648.47L1305.00,648.55L1305.42,650.72L1307.95,652.09L1311.97,647.26L1315.95,643.51L1317.68,641.05L1317.48,634.72L1320.46,627.25L1323.59,623.28L1328.07,619.58L1328.85,617.12L1329.02,614.30L1330.13,611.63L1329.77,607.27L1330.60,600.46L1331.90,595.66L1333.92,591.54L1334.29,586.90L1334.87,581.53L1337.48,577.63L1341.09,575.15L1346.70,577.76L1351.05,580.60L1356.02,581.36L1361.09,582.86L1363.08,578.22L1364.01,577.62L1367.11,578.40L1374.63,574.56L1377.32,576.18L1379.51,575.95L1380.51,574.08L1383.03,573.42L1388.14,574.23L1392.49,574.41L1394.72,573.59L1398.91,579.94L1401.96,580.88L1403.77,579.58L1406.91,580.09L1410.67,578.46L1412.32,581.75L1418.36,586.86L1418.36,586.86L1418.03,595.86L1420.76,596.90L1418.59,599.63L1415.99,601.67L1413.42,605.68L1412.00,609.26L1411.62,615.43L1410.04,618.37L1409.96,624.17L1408.00,626.32L1407.72,630.89L1406.78,631.49L1406.12,635.69L1407.80,639.19L1408.13,648.47Z" data-iso2="CD" data-iso3="COD" data-name="Dem. Rep. Congo" /><path d="M1491.51,626.80L1487.53,620.46L1487.32,592.43L1493.14,583.71L1494.96,581.28L1499.31,581.14L1505.26,575.72L1514.09,575.38L1532.71,552.29L1537.24,545.87L1540.15,541.15L1540.01,537.14L1539.71,529.38L1539.61,526.21L1539.65,526.08L1539.65,526.08L1541.80,525.93L1544.86,524.79L1548.41,524.01L1551.49,521.38L1554.04,521.36L1554.30,523.49L1553.87,527.96L1554.06,532.00L1552.74,534.78L1551.14,543.10L1548.15,551.69L1544.23,561.51L1538.68,572.78L1533.05,581.40L1525.24,591.89L1518.52,598.12L1508.41,605.76L1502.10,611.61L1494.65,620.92L1493.06,624.98L1491.51,626.80Z" data-iso2="SO" data-iso3="SOM" data-name="Somalia" /><path d="M1539.65,526.08L1539.65,526.08L1539.61,526.21L1539.71,529.38L1540.01,537.14L1540.15,541.15L1537.24,545.87L1532.71,552.29L1527.02,552.34L1504.62,543.21L1501.95,540.47L1499.34,536.76L1496.71,532.53L1498.09,529.80L1500.43,525.69L1502.68,527.10L1504.12,530.29L1507.28,533.51L1510.64,533.53L1516.94,531.56L1524.27,530.65L1530.12,528.26L1533.45,527.76L1535.81,526.35L1539.65,526.08L1539.65,526.08Z" data-iso2="SO" data-iso3="-99" data-name="Somaliland" /><path d="M1475.04,649.83L1465.41,642.14L1465.01,637.68L1440.50,622.01L1439.36,621.16L1439.30,613.01L1441.24,609.89L1444.57,604.80L1447.01,599.19L1443.94,590.36L1443.10,586.50L1439.82,581.16L1443.93,576.57L1448.45,571.50L1451.99,572.79L1452.06,577.11L1454.42,579.64L1459.14,579.64L1467.82,586.17L1469.97,586.25L1471.56,586.04L1473.07,586.93L1477.61,587.53L1479.57,584.33L1485.72,581.11L1488.50,583.71L1493.14,583.71L1487.32,592.43L1487.53,620.46L1491.51,626.80L1486.73,629.87L1485.02,633.08L1482.47,633.65L1481.44,639.07L1479.22,642.17L1477.81,647.29L1475.04,649.83Z" data-iso2="KE" data-iso3="KEN" data-name="Kenya" /><path d="M1375.39,550.55L1370.18,547.19L1367.80,544.98L1367.33,542.59L1368.37,539.39L1368.30,536.25L1364.31,531.44L1363.49,528.15L1363.53,526.28L1361.01,524.02L1360.84,519.55L1359.36,516.58L1357.00,517.02L1357.62,514.20L1359.30,510.99L1358.46,507.81L1360.62,505.45L1359.17,503.65L1360.82,498.90L1363.74,493.24L1369.55,493.77L1368.20,463.24L1368.17,460.01L1375.85,459.99L1375.27,444.63L1402.00,444.63L1427.81,444.63L1454.19,444.63L1456.76,452.17L1455.38,453.57L1456.78,461.49L1459.74,470.67L1462.39,472.57L1466.21,475.41L1463.05,479.80L1458.18,481.06L1456.19,483.42L1455.78,488.54L1453.40,499.84L1454.25,502.92L1453.44,509.52L1450.97,517.10L1447.02,520.91L1444.31,526.79L1443.72,529.93L1440.58,532.09L1438.78,540.14L1439.03,547.05L1438.81,541.05L1437.87,540.90L1437.90,537.07L1437.02,534.43L1433.46,531.39L1432.49,525.85L1433.14,520.17L1429.99,519.64L1429.58,521.36L1425.54,521.75L1427.23,524.00L1427.93,528.62L1424.33,532.85L1421.09,538.39L1417.63,539.18L1411.84,534.70L1409.32,536.28L1408.67,538.52L1405.21,539.98L1405.01,541.56L1398.28,541.56L1397.32,539.98L1392.43,539.71L1390.02,541.03L1388.15,540.37L1384.58,535.88L1383.38,533.77L1378.52,534.83L1376.73,538.39L1375.10,545.26L1372.80,546.71L1370.73,547.55L1375.39,550.55Z" data-iso2="SD" data-iso3="SDN" data-name="Sudan" /><path d="M1368.20,463.24L1369.55,493.77L1363.74,493.24L1360.82,498.90L1359.17,503.65L1360.62,505.45L1358.46,507.81L1359.30,510.99L1357.62,514.20L1357.00,517.02L1359.36,516.58L1360.84,519.55L1361.01,524.02L1363.53,526.28L1363.49,528.15L1359.23,529.46L1355.86,532.57L1351.10,540.96L1344.78,544.53L1338.24,544.05L1336.34,544.76L1337.04,547.46L1333.54,550.15L1330.70,553.16L1322.20,556.10L1320.49,554.36L1319.37,554.21L1318.14,556.19L1312.54,556.76L1313.58,554.68L1311.40,549.38L1310.41,546.19L1307.45,544.89L1303.42,540.40L1304.85,536.77L1307.94,537.54L1309.84,536.99L1313.62,537.07L1309.86,530.08L1310.04,524.97L1309.52,519.86L1306.77,514.94L1307.39,511.32L1303.07,511.14L1303.01,506.19L1300.16,503.34L1302.90,493.21L1311.33,485.96L1311.47,475.95L1313.69,460.34L1315.07,457.03L1312.23,454.39L1312.07,451.95L1309.53,449.95L1307.62,437.99L1314.21,433.78L1341.13,448.51L1368.20,463.24Z" data-iso2="TD" data-iso3="TCD" data-name="Chad" /><path d="M1316.08,833.67L1319.38,829.86L1321.88,831.97L1322.84,835.26L1325.75,835.82L1329.80,837.27L1333.34,836.71L1339.38,832.78L1340.61,804.37L1342.35,805.52L1345.97,812.83L1345.16,817.52L1346.51,820.22L1351.26,819.44L1354.72,816.00L1357.95,813.69L1359.73,810.01L1363.03,808.22L1365.77,809.16L1368.83,811.31L1374.18,811.69L1378.49,809.90L1379.28,807.50L1380.62,803.82L1384.25,803.20L1386.38,800.32L1388.83,795.19L1395.05,789.45L1404.71,783.78L1407.41,783.87L1410.57,785.17L1412.85,784.25L1416.35,785.01L1418.97,795.84L1420.39,801.31L1418.70,809.88L1419.09,812.64L1415.85,811.23L1413.90,811.78L1413.14,814.02L1411.15,816.91L1411.04,819.57L1414.68,823.74L1418.59,822.91L1420.17,819.49L1425.16,819.56L1423.10,825.15L1421.84,831.55L1419.87,835.02L1415.09,838.90L1413.72,840.02L1410.63,843.92L1408.48,847.88L1404.32,853.39L1396.30,861.33L1391.33,865.94L1386.15,869.44L1379.16,872.43L1375.84,872.83L1374.83,874.96L1371.02,873.83L1367.71,875.29L1360.86,873.81L1356.89,874.75L1354.25,874.34L1347.40,877.38L1341.83,878.60L1337.67,881.50L1334.75,881.69L1332.21,878.95L1330.05,878.81L1327.49,875.37L1327.12,876.44L1326.39,874.37L1326.69,869.86L1324.89,864.71L1327.05,863.31L1327.20,857.40L1323.32,850.20L1320.36,843.68L1320.35,843.66L1316.08,833.67ZM1398.64,836.58L1395.95,834.21L1392.78,835.78L1389.02,838.79L1385.19,843.66L1389.63,849.58L1392.02,848.82L1393.41,846.36L1397.14,845.16L1398.44,842.64L1400.73,838.90L1398.64,836.58Z" data-iso2="ZA" data-iso3="ZAF" data-name="South Africa" /><path d="M1398.64,836.58L1400.73,838.90L1398.44,842.64L1397.14,845.16L1393.41,846.36L1392.02,848.82L1389.63,849.58L1385.19,843.66L1389.02,838.79L1392.78,835.78L1395.95,834.21L1398.64,836.58Z" data-iso2="LS" data-iso3="LSO" data-name="Lesotho" /><path d="M1416.35,785.01L1412.85,784.25L1410.57,785.17L1407.41,783.87L1404.71,783.78L1400.63,780.31L1395.53,779.13L1393.78,774.25L1393.87,771.53L1391.05,770.71L1383.83,762.26L1381.90,757.81L1380.60,756.43L1378.25,750.28L1385.71,751.13L1387.85,752.01L1390.12,751.83L1394.02,746.86L1400.09,740.53L1402.52,739.92L1403.44,737.26L1407.38,734.19L1412.51,733.14L1412.83,736.01L1418.44,735.86L1421.49,737.48L1422.86,739.38L1426.03,739.94L1429.41,742.41L1428.98,752.15L1427.43,757.48L1426.86,763.23L1427.83,765.51L1426.86,770.04L1425.81,770.74L1423.79,776.28L1416.35,785.01Z" data-iso2="ZW" data-iso3="ZWE" data-name="Zimbabwe" /><path d="M1404.71,783.78L1395.05,789.45L1388.83,795.19L1386.38,800.32L1384.25,803.20L1380.62,803.82L1379.28,807.50L1378.49,809.90L1374.18,811.69L1368.83,811.31L1365.77,809.16L1363.03,808.22L1359.73,810.01L1357.95,813.69L1354.72,816.00L1351.26,819.44L1346.51,820.22L1345.16,817.52L1345.97,812.83L1342.35,805.52L1340.61,804.37L1341.36,781.92L1347.92,781.65L1348.97,754.25L1353.96,754.00L1364.37,751.30L1366.82,754.47L1371.20,751.46L1373.23,751.44L1377.07,749.71L1378.25,750.28L1380.60,756.43L1381.90,757.81L1383.83,762.26L1391.05,770.71L1393.87,771.53L1393.78,774.25L1395.53,779.13L1400.63,780.31L1404.71,783.78Z" data-iso2="BW" data-iso3="BWA" data-name="Botswana" /><path d="M1340.61,804.37L1339.38,832.78L1333.34,836.71L1329.80,837.27L1325.75,835.82L1322.84,835.26L1321.88,831.97L1319.38,829.86L1316.08,833.67L1311.43,827.86L1309.06,822.24L1307.85,814.75L1306.39,809.18L1304.49,797.33L1304.56,788.13L1303.81,783.94L1301.29,780.76L1297.98,774.41L1294.65,765.18L1293.28,760.35L1287.97,752.84L1287.66,746.94L1290.92,745.48L1294.95,744.17L1299.30,744.40L1303.23,747.88L1304.25,747.33L1331.43,747.00L1335.98,750.69L1352.17,751.78L1364.58,748.64L1370.12,746.89L1374.45,747.34L1377.04,749.07L1377.07,749.71L1373.23,751.44L1371.20,751.46L1366.82,754.47L1364.37,751.30L1353.96,754.00L1348.97,754.25L1347.92,781.65L1341.36,781.92L1340.61,804.37Z" data-iso2="NA" data-iso3="NAM" data-name="Namibia" /><path d="M1131.31,518.14L1131.64,515.74L1131.10,512.77L1128.60,510.61L1127.33,506.21L1127.09,501.42L1129.37,500.02L1130.57,495.49L1132.70,495.31L1137.37,497.45L1141.18,495.93L1143.77,496.44L1144.80,494.73L1171.77,494.61L1173.31,489.23L1172.15,488.28L1169.19,455.08L1166.33,421.89L1176.45,421.75L1198.71,438.53L1221.16,455.31L1222.75,458.92L1226.91,461.12L1230.01,462.37L1230.11,467.26L1237.52,466.51L1237.65,484.23L1234.00,489.36L1233.45,494.10L1227.49,495.32L1218.32,495.98L1215.83,498.72L1211.52,499.02L1207.21,499.05L1205.53,497.58L1201.83,498.67L1195.53,501.86L1194.24,504.27L1189.01,507.72L1188.08,509.69L1185.25,511.26L1182.00,510.22L1180.14,512.10L1179.13,517.37L1173.74,523.75L1173.89,526.36L1172.03,529.62L1172.46,534.08L1169.66,535.22L1168.08,536.19L1167.05,532.90L1165.09,533.77L1163.93,533.62L1162.67,535.86L1157.45,535.80L1155.58,534.65L1154.70,535.34L1152.65,533.13L1153.02,530.84L1152.18,529.94L1150.74,530.70L1151.02,528.19L1152.42,526.21L1149.67,522.99L1148.89,520.87L1147.40,519.18L1146.05,518.98L1144.42,520.05L1142.23,521.08L1140.36,522.75L1137.48,522.13L1135.62,520.18L1134.51,519.92L1132.74,520.95L1131.67,520.96L1131.31,518.14Z" data-iso2="ML" data-iso3="MLI" data-name="Mali" /><path d="M1227.25,565.71L1221.65,566.61L1219.97,561.30L1220.27,543.64L1218.90,542.05L1218.64,538.28L1216.29,535.58L1214.22,533.31L1215.08,529.26L1217.40,528.39L1218.77,525.03L1222.07,524.31L1223.55,522.01L1225.81,519.76L1228.23,519.74L1233.39,524.16L1233.13,526.72L1234.67,531.28L1233.34,534.38L1234.06,536.45L1230.79,541.21L1228.71,543.57L1227.44,548.42L1227.62,553.31L1227.25,565.71Z" data-iso2="BJ" data-iso3="BEN" data-name="Benin" /><path d="M1307.62,437.99L1309.53,449.95L1312.07,451.95L1312.23,454.39L1315.07,457.03L1313.69,460.34L1311.47,475.95L1311.33,485.96L1302.90,493.21L1300.16,503.34L1303.01,506.19L1303.07,511.14L1307.39,511.32L1306.77,514.94L1304.87,515.38L1304.69,517.83L1303.44,518.00L1298.76,509.58L1297.17,509.27L1291.96,513.57L1286.71,511.33L1283.08,510.88L1281.14,511.96L1277.19,511.72L1273.24,515.00L1269.81,515.19L1261.61,511.21L1258.43,513.10L1254.99,512.97L1252.44,510.07L1245.67,507.20L1238.43,508.11L1236.69,509.77L1235.76,514.19L1233.83,517.30L1233.39,524.16L1228.23,519.74L1225.81,519.76L1223.55,522.01L1223.69,516.74L1215.91,515.00L1215.69,511.27L1211.90,506.25L1210.99,502.75L1211.52,499.02L1215.83,498.72L1218.32,495.98L1227.49,495.32L1233.45,494.10L1234.00,489.36L1237.65,484.23L1237.52,466.51L1246.92,463.08L1266.06,447.97L1288.59,433.31L1299.15,436.62L1302.98,440.85L1307.62,437.99Z" data-iso2="NE" data-iso3="NER" data-name="Niger" /><path d="M1227.25,565.71L1227.62,553.31L1227.44,548.42L1228.71,543.57L1230.79,541.21L1234.06,536.45L1233.34,534.38L1234.67,531.28L1233.13,526.72L1233.39,524.16L1233.83,517.30L1235.76,514.19L1236.69,509.77L1238.43,508.11L1245.67,507.20L1252.44,510.07L1254.99,512.97L1258.43,513.10L1261.61,511.21L1269.81,515.19L1273.24,515.00L1277.19,511.72L1281.14,511.96L1283.08,510.88L1286.71,511.33L1291.96,513.57L1297.17,509.27L1298.76,509.58L1303.44,518.00L1304.69,517.83L1307.40,520.89L1306.68,522.28L1306.36,524.84L1300.74,530.79L1299.00,535.70L1298.09,539.70L1296.67,541.41L1295.35,546.80L1291.75,549.96L1290.73,553.86L1289.23,556.96L1288.61,560.15L1283.97,562.74L1280.15,559.58L1277.58,559.71L1273.57,564.21L1271.60,564.28L1268.41,571.70L1266.68,577.15L1259.65,579.92L1257.07,579.51L1254.46,581.23L1249.03,581.07L1245.39,576.26L1243.14,570.69L1238.33,565.62L1233.24,565.71L1227.25,565.71Z" data-iso2="NG" data-iso3="NGA" data-name="Nigeria" /><path d="M1306.77,514.94L1309.52,519.86L1310.04,524.97L1309.86,530.08L1313.62,537.07L1309.84,536.99L1307.94,537.54L1304.85,536.77L1303.42,540.40L1307.45,544.89L1310.41,546.19L1311.40,549.38L1313.58,554.68L1312.54,556.76L1309.19,564.56L1307.57,565.96L1307.09,571.92L1307.79,575.16L1307.25,577.45L1310.48,581.47L1311.08,584.23L1313.61,588.20L1316.72,590.67L1317.04,594.18L1317.77,596.41L1317.29,600.56L1311.89,598.75L1306.39,596.72L1297.82,596.42L1296.97,596.00L1292.95,596.99L1288.82,595.96L1285.60,596.46L1274.54,596.29L1275.52,590.21L1272.85,585.13L1269.75,583.82L1268.36,580.38L1266.61,579.27L1266.68,577.15L1268.41,571.70L1271.60,564.28L1273.57,564.21L1277.58,559.71L1280.15,559.58L1283.97,562.74L1288.61,560.15L1289.23,556.96L1290.73,553.86L1291.75,549.96L1295.35,546.80L1296.67,541.41L1298.09,539.70L1299.00,535.70L1300.74,530.79L1306.36,524.84L1306.68,522.28L1307.40,520.89L1304.69,517.83L1304.87,515.38L1306.77,514.94Z" data-iso2="CM" data-iso3="CMR" data-name="Cameroon" /><path d="M1394.72,573.59L1392.49,574.41L1388.14,574.23L1383.03,573.42L1380.51,574.08L1379.51,575.95L1377.32,576.18L1374.63,574.56L1367.11,578.40L1364.01,577.62L1363.08,578.22L1361.09,582.86L1356.02,581.36L1351.05,580.60L1346.70,577.76L1341.09,575.15L1337.48,577.63L1334.87,581.53L1334.29,586.90L1329.92,586.47L1325.32,585.18L1321.30,589.25L1317.77,596.41L1317.04,594.18L1316.72,590.67L1313.61,588.20L1311.08,584.23L1310.48,581.47L1307.25,577.45L1307.79,575.16L1307.09,571.92L1307.57,565.96L1309.19,564.56L1312.54,556.76L1318.14,556.19L1319.37,554.21L1320.49,554.36L1322.20,556.10L1330.70,553.16L1333.54,550.15L1337.04,547.46L1336.34,544.76L1338.24,544.05L1344.78,544.53L1351.10,540.96L1355.86,532.57L1359.23,529.46L1363.49,528.15L1364.31,531.44L1368.30,536.25L1368.37,539.39L1367.33,542.59L1367.80,544.98L1370.18,547.19L1375.39,550.55L1379.14,553.66L1379.24,556.16L1383.85,560.17L1386.72,563.50L1388.49,568.11L1393.60,571.16L1394.72,573.59Z" data-iso2="CF" data-iso3="CAF" data-name="Central African Rep." /><path d="M1334.29,586.90L1333.92,591.54L1331.90,595.66L1330.60,600.46L1329.77,607.27L1330.13,611.63L1329.02,614.30L1328.85,617.12L1328.07,619.58L1323.59,623.28L1320.46,627.25L1317.48,634.72L1317.68,641.05L1315.95,643.51L1311.97,647.26L1307.95,652.09L1305.42,650.72L1305.00,648.55L1301.30,648.47L1298.97,651.41L1297.19,650.63L1294.66,647.99L1292.60,649.29L1289.85,652.61L1284.31,644.46L1289.50,640.21L1286.95,635.13L1289.29,633.19L1293.88,632.25L1294.43,628.84L1298.04,632.54L1304.04,632.86L1306.14,629.22L1307.01,624.11L1306.28,618.10L1303.06,613.56L1306.00,604.65L1304.30,603.12L1299.24,603.74L1297.33,599.77L1297.82,596.42L1306.39,596.72L1311.89,598.75L1317.29,600.56L1317.77,596.41L1321.30,589.25L1325.32,585.18L1329.92,586.47L1334.29,586.90Z" data-iso2="CG" data-iso3="COG" data-name="Congo" /><path d="M1285.60,596.46L1288.82,595.96L1292.95,596.99L1296.97,596.00L1297.82,596.42L1297.33,599.77L1299.24,603.74L1304.30,603.12L1306.00,604.65L1303.06,613.56L1306.28,618.10L1307.01,624.11L1306.14,629.22L1304.04,632.86L1298.04,632.54L1294.43,628.84L1293.88,632.25L1289.29,633.19L1286.95,635.13L1289.50,640.21L1284.31,644.46L1277.36,636.70L1272.89,630.35L1268.78,622.40L1269.00,619.85L1270.48,617.39L1272.13,611.79L1273.50,606.08L1275.79,605.64L1285.67,605.72L1285.60,596.46Z" data-iso2="GA" data-iso3="GAB" data-name="Gabon" /><path d="M1274.54,596.29L1285.60,596.46L1285.67,605.72L1275.79,605.64L1273.50,606.08L1272.22,604.92L1274.54,596.29Z" data-iso2="GQ" data-iso3="GNQ" data-name="Eq. Guinea" /><path d="M1417.18,678.01L1419.97,679.96L1422.64,681.25L1426.92,682.55L1430.71,684.86L1433.82,688.29L1435.38,694.82L1434.18,696.90L1432.64,703.14L1433.75,709.51L1431.54,712.19L1429.26,719.33L1432.73,721.33L1412.07,727.67L1412.51,733.14L1407.38,734.19L1403.44,737.26L1402.52,739.92L1400.09,740.53L1394.02,746.86L1390.12,751.83L1387.85,752.01L1385.71,751.13L1378.25,750.28L1377.07,749.71L1377.04,749.07L1374.45,747.34L1370.12,746.89L1364.58,748.64L1360.35,743.84L1356.01,737.54L1356.93,713.07L1370.97,713.17L1370.46,710.51L1371.53,707.63L1370.42,704.02L1371.27,700.29L1370.60,697.90L1372.93,698.10L1373.27,700.49L1376.44,700.30L1380.71,701.01L1382.89,704.50L1388.27,705.58L1392.46,703.15L1393.88,707.18L1399.02,708.25L1401.42,711.53L1404.07,715.77L1409.23,715.83L1408.90,707.53L1407.01,708.93L1402.37,705.94L1400.58,704.57L1401.60,696.85L1403.00,687.74L1401.55,684.35L1403.57,679.44L1405.40,678.52L1414.52,677.22L1417.18,678.01Z" data-iso2="ZM" data-iso3="ZMB" data-name="Zambia" /><path d="M1430.71,684.86L1437.31,686.29L1438.62,688.42L1440.83,692.01L1442.43,702.47L1440.36,708.31L1441.91,718.31L1444.25,718.20L1446.59,720.68L1449.19,726.24L1449.33,736.13L1446.35,737.75L1444.05,743.09L1439.89,738.34L1439.63,732.92L1441.19,729.34L1440.93,726.26L1438.35,724.31L1436.47,725.02L1432.73,721.33L1429.26,719.33L1431.54,712.19L1433.75,709.51L1432.64,703.14L1434.18,696.90L1435.38,694.82L1433.82,688.29L1430.71,684.86Z" data-iso2="MW" data-iso3="MWI" data-name="Malawi" /><path d="M1442.43,702.47L1447.53,701.84L1455.58,704.01L1457.37,703.04L1462.08,702.84L1464.56,700.53L1468.61,700.66L1476.09,697.67L1481.61,693.21L1481.61,693.21L1481.61,693.21L1482.60,696.66L1482.06,704.33L1482.64,711.08L1482.40,723.10L1483.41,726.86L1481.13,732.36L1478.25,737.70L1473.73,742.47L1467.44,745.40L1459.69,749.13L1451.69,757.39L1449.04,758.79L1444.09,764.26L1441.25,766.03L1440.40,771.52L1443.26,777.34L1444.33,781.86L1444.28,784.16L1445.48,783.77L1444.86,791.32L1443.57,794.89L1445.05,796.21L1443.87,799.41L1440.93,802.14L1435.31,804.74L1427.09,808.91L1424.01,811.75L1424.36,814.99L1426.01,815.51L1425.16,819.56L1420.17,819.49L1419.83,816.09L1419.09,812.64L1418.70,809.88L1420.39,801.31L1418.97,795.84L1416.35,785.01L1423.79,776.28L1425.81,770.74L1426.86,770.04L1427.83,765.51L1426.86,763.23L1427.43,757.48L1428.98,752.15L1429.41,742.41L1426.03,739.94L1422.86,739.38L1421.49,737.48L1418.44,735.86L1412.83,736.01L1412.51,733.14L1412.07,727.67L1432.73,721.33L1436.47,725.02L1438.35,724.31L1440.93,726.26L1441.19,729.34L1439.63,732.92L1439.89,738.34L1444.05,743.09L1446.35,737.75L1449.33,736.13L1449.19,726.24L1446.59,720.68L1444.25,718.20L1441.91,718.31L1440.36,708.31L1442.43,702.47Z" data-iso2="MZ" data-iso3="MOZ" data-name="Mozambique" /><path d="M1420.17,819.49L1418.59,822.91L1414.68,823.74L1411.04,819.57L1411.15,816.91L1413.14,814.02L1413.90,811.78L1415.85,811.23L1419.09,812.64L1419.83,816.09L1420.17,819.49Z" data-iso2="SZ" data-iso3="SWZ" data-name="eSwatini" /><path d="M1297.19,650.63L1294.71,652.25L1293.59,654.22L1293.36,657.58L1291.63,658.39L1289.85,652.61L1292.60,649.29L1294.66,647.99L1297.19,650.63ZM1292.56,660.78L1295.37,659.74L1297.33,659.89L1299.72,658.96L1319.73,659.06L1321.36,664.80L1323.26,669.41L1324.80,671.90L1327.35,675.92L1331.84,675.30L1334.08,674.21L1337.82,675.30L1338.85,673.38L1340.60,668.89L1344.81,668.59L1345.19,667.26L1348.65,667.23L1348.02,670.00L1356.25,669.94L1356.31,674.78L1357.65,677.74L1356.59,682.38L1357.01,687.11L1359.22,689.97L1358.71,699.12L1360.39,698.41L1363.32,698.60L1367.53,697.45L1370.60,697.90L1371.27,700.29L1370.42,704.02L1371.53,707.63L1370.46,710.51L1370.97,713.17L1356.93,713.07L1356.01,737.54L1360.35,743.84L1364.58,748.64L1352.17,751.78L1335.98,750.69L1331.43,747.00L1304.25,747.33L1303.23,747.88L1299.30,744.40L1294.95,744.17L1290.92,745.48L1287.66,746.94L1287.11,742.10L1288.14,735.34L1290.57,728.30L1290.96,725.00L1293.24,718.06L1294.89,714.91L1298.83,709.88L1301.04,706.46L1301.82,700.76L1301.51,696.40L1299.52,693.65L1297.76,688.98L1296.14,684.37L1296.52,682.77L1298.63,679.72L1296.63,672.29L1295.28,667.14L1291.91,662.27L1292.56,660.78Z" data-iso2="AO" data-iso3="AGO" data-name="Angola" /><path d="M1415.96,632.42L1416.33,635.45L1417.78,637.19L1417.81,639.69L1416.12,641.30L1413.43,645.32L1410.94,648.10L1408.13,648.47L1407.80,639.19L1406.12,635.69L1410.24,636.30L1412.35,631.92L1415.96,632.42Z" data-iso2="BI" data-iso3="BDI" data-name="Burundi" /><path d="M1439.84,362.25L1438.98,364.67L1436.53,363.61L1435.72,368.73L1437.44,369.59L1435.89,370.65L1435.82,372.68L1438.76,371.63L1439.22,374.63L1437.16,386.93L1436.33,384.93L1431.62,373.71L1431.62,373.71L1431.62,373.71L1433.25,371.17L1432.77,370.74L1434.11,367.14L1434.81,361.34L1435.52,359.39L1435.69,359.31L1437.85,359.32L1438.29,357.98L1440.01,357.88L1440.46,361.02L1439.72,362.19L1439.84,362.25Z" data-iso2="IL" data-iso3="ISR" data-name="Israel" /><path d="M1543.30,709.77L1544.94,713.05L1546.35,718.13L1546.92,727.38L1548.45,730.98L1547.55,734.67L1546.21,736.93L1544.21,732.42L1542.81,734.70L1543.72,740.40L1542.91,743.66L1540.94,745.43L1540.06,751.95L1536.79,760.92L1532.73,771.52L1527.55,786.09L1524.16,796.79L1520.41,805.71L1514.87,807.53L1508.81,810.78L1505.18,808.82L1500.17,806.07L1498.68,802.01L1498.76,795.19L1496.87,789.06L1496.64,783.52L1498.20,777.98L1501.36,776.64L1501.54,774.08L1505.11,768.25L1506.04,763.35L1504.72,759.71L1503.77,754.86L1503.67,747.77L1506.28,743.47L1507.47,738.59L1510.83,738.31L1514.67,736.73L1517.24,735.34L1520.20,735.23L1524.28,730.85L1530.08,726.11L1532.31,722.24L1531.57,718.96L1534.38,719.88L1538.36,714.54L1538.71,709.91L1541.10,706.47L1543.30,709.77Z" data-iso2="MG" data-iso3="MDG" data-name="Madagascar" /><path d="M1151.92,403.12L1152.07,401.63L1152.08,401.12L1152.22,392.01L1162.89,386.33L1169.43,385.16L1174.81,383.09L1177.35,379.24L1185.00,376.19L1185.34,370.49L1189.10,369.82L1192.05,366.98L1200.53,365.68L1201.73,362.69L1200.03,361.06L1197.85,352.94L1197.49,348.26L1195.11,343.34L1201.28,339.14L1208.19,337.80L1212.21,334.63L1218.33,332.30L1229.10,330.93L1239.61,330.31L1242.83,331.45L1248.75,328.42L1255.54,328.36L1258.17,330.15L1262.50,329.68L1261.33,333.62L1262.55,340.94L1261.22,347.28L1257.37,351.57L1258.08,357.36L1263.48,361.95L1263.58,363.81L1267.65,366.91L1270.79,380.72L1273.08,387.52L1273.52,391.09L1272.52,397.37L1273.08,400.87L1272.33,405.08L1273.01,409.92L1270.46,413.13L1274.47,418.74L1274.78,422.04L1277.21,426.33L1280.28,424.92L1285.58,428.49L1288.59,433.31L1266.06,447.97L1246.92,463.08L1237.52,466.51L1230.11,467.26L1230.01,462.37L1226.91,461.12L1222.75,458.92L1221.16,455.31L1198.71,438.53L1176.45,421.75L1151.92,403.12Z" data-iso2="DZ" data-iso3="DZA" data-name="Algeria" /><path d="M1438.98,364.67L1439.84,362.25L1447.39,365.29L1459.07,357.10L1462.81,366.46L1461.71,367.62L1449.16,371.49L1456.46,379.18L1454.44,380.49L1453.64,383.06L1448.76,384.13L1447.47,386.90L1444.87,389.27L1437.48,388.04L1437.16,386.93L1439.22,374.63L1438.76,371.63L1439.48,369.38L1438.98,364.67Z" data-iso2="JO" data-iso3="JOR" data-name="Jordan" /><path d="M1550.56,427.36L1551.71,426.98L1552.15,429.09L1557.22,427.88L1562.71,428.08L1566.74,428.31L1570.76,423.11L1575.17,418.17L1578.80,413.43L1580.36,416.06L1581.92,422.13L1578.55,422.16L1578.52,427.17L1579.80,428.24L1576.95,429.75L1577.23,432.90L1575.59,436.08L1575.70,439.18L1574.50,440.81L1554.20,436.93L1550.98,429.13L1550.56,427.36Z" data-iso2="AE" data-iso3="ARE" data-name="United Arab Emirates" /><path d="M1545.11,423.44L1544.12,417.84L1545.49,413.81L1547.20,412.98L1549.45,415.39L1550.03,419.89L1549.03,424.42L1547.25,424.96L1545.11,423.44Z" data-iso2="QA" data-iso3="QAT" data-name="Qatar" /><path d="M1521.97,383.28L1523.76,386.67L1523.40,388.43L1526.21,394.23L1521.60,394.43L1519.54,390.77L1513.62,390.02L1517.50,382.64L1521.97,383.28Z" data-iso2="KW" data-iso3="KWT" data-name="Kuwait" /><path d="M1462.81,366.46L1459.07,357.10L1472.28,349.09L1473.40,339.80L1471.99,334.19L1475.19,332.30L1477.71,327.51L1480.25,326.32L1487.79,327.31L1490.33,329.26L1493.16,327.96L1498.77,337.12L1503.32,339.43L1504.51,343.91L1501.70,346.57L1501.11,352.57L1506.65,359.88L1515.18,364.09L1519.35,369.94L1519.05,375.51L1521.13,375.51L1521.75,379.61L1525.89,383.65L1521.97,383.28L1517.50,382.64L1513.62,390.02L1501.39,389.41L1481.18,373.93L1470.86,368.55L1462.81,366.46Z" data-iso2="IQ" data-iso3="IRQ" data-name="Iraq" /><path d="M1575.70,439.18L1575.59,436.08L1577.23,432.90L1576.95,429.75L1579.80,428.24L1578.52,427.17L1578.55,422.16L1581.92,422.13L1585.44,427.38L1589.42,430.18L1594.38,431.18L1598.44,432.58L1601.87,436.99L1603.91,439.55L1606.38,440.52L1606.53,442.24L1604.54,446.82L1603.67,448.98L1601.08,451.44L1599.06,456.71L1596.00,456.31L1594.77,458.14L1594.03,462.04L1595.29,467.18L1594.74,468.13L1591.66,468.10L1587.72,470.98L1587.37,474.73L1585.97,476.35L1581.80,476.29L1579.33,478.22L1579.60,481.33L1576.52,483.47L1572.76,482.74L1568.47,485.34L1565.40,485.77L1562.82,480.40L1556.63,467.70L1576.07,460.01L1579.22,444.63L1575.70,439.18ZM1580.36,416.06L1578.80,413.43L1580.42,410.81L1581.31,411.48L1581.06,414.66L1580.36,416.06Z" data-iso2="OM" data-iso3="OMN" data-name="Oman" /><path d="M1706.58,340.83L1702.09,347.29L1695.23,348.44L1685.03,346.56L1682.70,349.88L1686.60,356.61L1690.05,361.82L1696.15,365.62L1691.62,370.07L1692.90,375.55L1688.16,383.27L1685.55,391.08L1680.12,399.14L1672.40,398.56L1666.46,406.62L1671.29,410.08L1672.90,416.00L1677.16,419.90L1679.35,426.50L1664.77,426.48L1660.98,431.61L1655.89,429.67L1653.25,424.14L1647.40,418.28L1635.41,419.73L1624.69,419.87L1615.51,420.95L1616.90,412.01L1625.87,408.04L1624.83,404.50L1621.50,403.25L1620.32,396.48L1613.54,393.10L1610.18,388.45L1606.30,384.41L1617.88,388.33L1624.23,387.18L1628.30,388.16L1629.34,386.48L1634.01,387.15L1641.94,383.95L1640.97,377.41L1643.77,373.05L1648.61,373.06L1648.89,370.91L1653.65,369.91L1656.19,370.62L1658.28,368.46L1656.96,363.84L1658.70,359.20L1662.37,357.25L1658.69,352.16L1664.87,352.40L1665.99,349.64L1665.02,346.68L1667.43,343.45L1665.76,339.63L1663.44,336.38L1666.31,333.03L1672.73,331.42L1679.78,330.53L1682.63,329.11L1686.09,328.25L1691.77,331.83L1695.25,337.73L1706.58,340.83Z" data-iso2="PK" data-iso3="PAK" data-name="Pakistan" /><path d="M1525.89,383.65L1521.75,379.61L1521.13,375.51L1519.05,375.51L1519.35,369.94L1515.18,364.09L1506.65,359.88L1501.11,352.57L1501.70,346.57L1504.51,343.91L1503.32,339.43L1498.77,337.12L1493.16,327.96L1493.16,327.96L1488.68,321.82L1489.51,319.45L1486.01,310.67L1489.91,308.49L1491.44,311.37L1495.25,314.91L1499.75,315.92L1501.99,315.70L1508.35,310.05L1510.59,309.49L1512.89,311.73L1511.44,315.52L1516.13,319.53L1517.63,319.15L1520.68,324.80L1526.99,326.40L1532.11,330.25L1541.39,331.57L1550.93,329.54L1551.19,327.75L1556.46,326.26L1560.06,321.88L1564.34,322.10L1566.80,320.67L1571.45,321.38L1579.30,325.26L1584.54,326.10L1593.28,332.90L1598.09,333.17L1600.04,339.64L1599.41,349.21L1598.75,354.81L1601.78,355.94L1599.83,360.15L1603.09,366.30L1604.49,371.18L1609.63,372.48L1611.04,377.43L1606.30,384.41L1610.18,388.45L1613.54,393.10L1620.32,396.48L1621.50,403.25L1624.83,404.50L1625.87,408.04L1616.90,412.01L1615.51,420.95L1602.81,418.63L1595.40,416.86L1587.84,415.86L1583.89,406.43L1580.57,405.07L1575.68,406.44L1569.49,410.16L1561.14,407.61L1553.80,401.70L1547.21,399.51L1541.92,392.21L1535.75,381.95L1532.41,383.20L1527.92,380.65L1525.89,383.65Z" data-iso2="IR" data-iso3="IRN" data-name="Iran" /><path d="M1454.25,502.92L1453.40,499.84L1455.78,488.54L1456.19,483.42L1458.18,481.06L1463.05,479.80L1466.21,475.41L1470.58,484.31L1472.79,491.37L1476.66,495.12L1486.20,502.39L1490.14,506.77L1493.99,511.21L1496.21,513.85L1499.63,516.17L1497.67,518.05L1494.75,517.38L1492.35,514.89L1489.38,510.38L1486.29,507.91L1484.43,505.25L1478.43,502.17L1473.81,502.08L1472.11,500.47L1468.24,502.28L1464.00,498.78L1462.15,504.53L1454.25,502.92Z" data-iso2="ER" data-iso3="ERI" data-name="Eritrea" /><path d="M1556.63,467.70L1562.82,480.40L1565.40,485.77L1560.69,487.84L1559.62,491.25L1559.64,493.88L1553.15,497.12L1542.61,500.71L1536.89,506.14L1533.94,506.56L1531.90,506.11L1528.13,509.30L1523.90,510.78L1518.26,511.18L1516.58,511.62L1515.20,513.65L1513.46,514.21L1512.50,516.17L1509.15,516.00L1507.04,517.04L1502.36,516.65L1500.41,512.16L1500.41,507.95L1499.21,505.68L1497.61,499.99L1495.51,496.83L1496.84,496.46L1495.96,492.94L1496.70,491.46L1496.21,488.10L1499.02,485.65L1498.14,482.41L1499.69,478.63L1502.57,480.63L1504.34,479.93L1512.06,479.76L1513.34,480.52L1519.87,481.29L1522.42,480.91L1524.26,483.47L1527.31,482.19L1531.56,474.11L1537.57,470.65L1556.63,467.70Z" data-iso2="YE" data-iso3="YEM" data-name="Yemen" /><path d="M1437.48,388.04L1444.87,389.27L1447.47,386.90L1448.76,384.13L1453.64,383.06L1454.44,380.49L1456.46,379.18L1449.16,371.49L1461.71,367.62L1462.81,366.46L1470.86,368.55L1481.18,373.93L1501.39,389.41L1513.62,390.02L1519.54,390.77L1521.60,394.43L1526.21,394.23L1529.55,400.86L1532.98,402.62L1534.41,405.32L1539.25,408.56L1539.99,411.73L1539.60,414.29L1540.70,416.87L1542.81,419.03L1543.94,421.55L1545.11,423.44L1547.25,424.96L1549.03,424.42L1550.56,427.36L1550.98,429.13L1554.20,436.93L1574.50,440.81L1575.70,439.18L1579.22,444.63L1576.07,460.01L1556.63,467.70L1537.57,470.65L1531.56,474.11L1527.31,482.19L1524.26,483.47L1522.42,480.91L1519.87,481.29L1513.34,480.52L1512.06,479.76L1504.34,479.93L1502.57,480.63L1499.69,478.63L1498.14,482.41L1499.02,485.65L1496.21,488.10L1495.16,484.82L1493.00,482.51L1492.30,479.44L1488.68,476.68L1484.73,470.23L1482.46,463.96L1477.53,458.67L1474.48,457.41L1469.63,450.07L1468.54,444.73L1468.54,440.17L1464.19,431.64L1460.88,428.64L1457.20,427.05L1454.72,422.64L1454.96,420.90L1452.84,416.91L1450.78,415.20L1447.77,409.48L1443.27,403.27L1439.49,397.99L1436.22,398.03L1436.89,393.80L1436.94,391.11L1437.48,388.04Z" data-iso2="SA" data-iso3="SAU" data-name="Saudi Arabia" /><path d="M1454.19,444.63L1427.81,444.63L1402.00,444.63L1375.27,444.63L1374.03,416.30L1372.46,388.95L1370.10,382.75L1371.45,378.00L1370.21,374.71L1372.30,371.02L1380.92,370.89L1387.33,372.93L1393.96,375.20L1397.07,376.40L1401.87,373.96L1404.35,371.75L1410.02,371.12L1414.72,372.09L1416.84,375.91L1418.12,373.39L1423.50,375.21L1428.61,375.65L1431.62,373.71L1431.62,373.71L1436.33,384.93L1437.16,386.93L1435.60,390.02L1434.69,395.83L1433.23,399.84L1431.81,401.18L1429.43,398.70L1426.19,395.26L1420.60,384.24L1419.99,384.93L1423.38,393.05L1428.02,400.79L1433.88,412.77L1436.61,416.95L1439.03,421.29L1445.51,429.81L1444.28,431.15L1444.79,436.15L1452.93,443.05L1454.19,444.63Z" data-iso2="EG" data-iso3="EGY" data-name="Egypt" /><path d="M1375.27,444.63L1375.85,459.99L1368.17,460.01L1368.20,463.24L1341.13,448.51L1314.21,433.78L1307.62,437.99L1302.98,440.85L1299.15,436.62L1288.59,433.31L1285.58,428.49L1280.28,424.92L1277.21,426.33L1274.78,422.04L1274.47,418.74L1270.46,413.13L1273.01,409.92L1272.33,405.08L1273.08,400.87L1272.52,397.37L1273.52,391.09L1273.08,387.52L1270.79,380.72L1273.92,378.94L1274.39,375.69L1273.61,372.50L1277.98,369.54L1279.89,367.07L1282.97,364.86L1283.13,358.96L1290.81,361.60L1293.50,360.94L1298.95,362.23L1307.69,365.66L1311.04,372.50L1316.94,374.00L1326.26,377.22L1333.40,381.04L1336.47,379.05L1339.39,375.51L1337.53,369.61L1339.34,365.87L1343.78,362.26L1348.16,361.22L1357.01,362.79L1359.45,366.23L1361.87,366.26L1364.02,367.57L1370.53,368.48L1372.30,371.02L1370.21,374.71L1371.45,378.00L1370.10,382.75L1372.46,388.95L1374.03,416.30L1375.27,444.63Z" data-iso2="LY" data-iso3="LBY" data-name="Libya" /><path d="M1532.71,552.29L1514.09,575.38L1505.26,575.72L1499.31,581.14L1494.96,581.28L1493.14,583.71L1488.50,583.71L1485.72,581.11L1479.57,584.33L1477.61,587.53L1473.07,586.93L1471.56,586.04L1469.97,586.25L1467.82,586.17L1459.14,579.64L1454.42,579.64L1452.06,577.11L1451.99,572.79L1448.45,571.50L1444.30,563.13L1441.17,561.35L1439.93,558.27L1436.43,554.52L1432.26,553.97L1434.48,549.59L1438.07,549.40L1439.03,547.05L1438.78,540.14L1440.58,532.09L1443.72,529.93L1444.31,526.79L1447.02,520.91L1450.97,517.10L1453.44,509.52L1454.25,502.92L1462.15,504.53L1464.00,498.78L1468.24,502.28L1472.11,500.47L1473.81,502.08L1478.43,502.17L1484.43,505.25L1486.29,507.91L1489.38,510.38L1492.35,514.89L1494.75,517.38L1492.51,520.78L1490.36,524.39L1490.97,526.51L1491.16,528.85L1494.93,528.98L1496.54,528.43L1498.09,529.80L1496.71,532.53L1499.34,536.76L1501.95,540.47L1504.62,543.21L1527.02,552.34L1532.71,552.29Z" data-iso2="ET" data-iso3="ETH" data-name="Ethiopia" /><path d="M1494.75,517.38L1497.67,518.05L1499.63,516.17L1501.32,518.55L1501.24,521.74L1497.45,523.58L1500.43,525.69L1498.09,529.80L1496.54,528.43L1494.93,528.98L1491.16,528.85L1490.97,526.51L1490.36,524.39L1492.51,520.78L1494.75,517.38Z" data-iso2="DJ" data-iso3="DJI" data-name="Djibouti" /><path d="M1439.36,621.16L1425.51,621.76L1418.06,621.66L1415.68,622.58L1411.60,624.96L1409.96,624.17L1410.04,618.37L1411.62,615.43L1412.00,609.26L1413.42,605.68L1415.99,601.67L1418.59,599.63L1420.76,596.90L1418.03,595.86L1418.36,586.86L1418.36,586.86L1421.13,584.76L1425.46,586.48L1430.91,584.68L1435.69,584.70L1439.82,581.16L1443.10,586.50L1443.94,590.36L1447.01,599.19L1444.57,604.80L1441.24,609.89L1439.30,613.01L1439.36,621.16Z" data-iso2="UG" data-iso3="UGA" data-name="Uganda" /><path d="M1415.68,622.58L1418.35,626.92L1417.93,631.45L1415.96,632.42L1415.96,632.42L1412.35,631.92L1410.24,636.30L1406.12,635.69L1406.78,631.49L1407.72,630.89L1408.00,626.32L1409.96,624.17L1411.60,624.96L1415.68,622.58Z" data-iso2="RW" data-iso3="RWA" data-name="Rwanda" /><path d="M1418.36,586.86L1412.32,581.75L1410.67,578.46L1406.91,580.09L1403.77,579.58L1401.96,580.88L1398.91,579.94L1394.72,573.59L1393.60,571.16L1388.49,568.11L1386.72,563.50L1383.85,560.17L1379.24,556.16L1379.14,553.66L1375.39,550.55L1370.73,547.55L1372.80,546.71L1375.10,545.26L1376.73,538.39L1378.52,534.83L1383.38,533.77L1384.58,535.88L1388.15,540.37L1390.02,541.03L1392.43,539.71L1397.32,539.98L1398.28,541.56L1405.01,541.56L1405.21,539.98L1408.67,538.52L1409.32,536.28L1411.84,534.70L1417.63,539.18L1421.09,538.39L1424.33,532.85L1427.93,528.62L1427.23,524.00L1425.54,521.75L1429.58,521.36L1429.99,519.64L1433.14,520.17L1432.49,525.85L1433.46,531.39L1437.02,534.43L1437.90,537.07L1437.87,540.90L1438.81,541.05L1439.03,547.05L1438.07,549.40L1434.48,549.59L1432.26,553.97L1436.43,554.52L1439.93,558.27L1441.17,561.35L1444.30,563.13L1448.45,571.50L1443.93,576.57L1439.82,581.16L1435.69,584.70L1430.91,584.68L1425.46,586.48L1421.13,584.76L1418.36,586.86Z" data-iso2="SS" data-iso3="SSD" data-name="S. Sudan" /></g><g id="pof-country-overlay" _comment="Insert colored paths/shapes here for highlighting. Categorical/heatmap layer."><path d="M1475.04,649.83L1465.41,642.14L1465.01,637.68L1440.50,622.01L1439.36,621.16L1439.30,613.01L1441.24,609.89L1444.57,604.80L1447.01,599.19L1443.94,590.36L1443.10,586.50L1439.82,581.16L1443.93,576.57L1448.45,571.50L1451.99,572.79L1452.06,577.11L1454.42,579.64L1459.14,579.64L1467.82,586.17L1469.97,586.25L1471.56,586.04L1473.07,586.93L1477.61,587.53L1479.57,584.33L1485.72,581.11L1488.50,583.71L1493.14,583.71L1487.32,592.43L1487.53,620.46L1491.51,626.80L1486.73,629.87L1485.02,633.08L1482.47,633.65L1481.44,639.07L1479.22,642.17L1477.81,647.29L1475.04,649.83Z" fill="#435D74" stroke="#FFFFFF" stroke-width="0.8" data-iso2="KE" data-name="Kenya" /><path d="M1439.36,621.16L1440.50,622.01L1465.01,637.68L1465.41,642.14L1475.04,649.83L1471.75,659.31L1472.07,663.67L1476.35,666.47L1476.51,668.47L1474.55,673.11L1474.88,675.45L1474.35,679.12L1476.59,683.95L1479.18,691.53L1481.61,693.21L1481.61,693.21L1476.09,697.67L1468.61,700.66L1464.56,700.53L1462.08,702.84L1457.37,703.04L1455.58,704.01L1447.53,701.84L1442.43,702.47L1440.83,692.01L1438.62,688.42L1437.31,686.29L1430.71,684.86L1426.92,682.55L1422.64,681.25L1419.97,679.96L1417.18,678.01L1417.18,678.01L1413.69,668.31L1409.82,664.01L1408.53,659.54L1409.26,655.54L1408.13,648.47L1410.94,648.10L1413.43,645.32L1416.12,641.30L1417.81,639.69L1417.78,637.19L1416.33,635.45L1415.96,632.42L1415.96,632.42L1417.93,631.45L1418.35,626.92L1415.68,622.58L1418.06,621.66L1425.51,621.76L1439.36,621.16Z" fill="#435D74" stroke="#FFFFFF" stroke-width="0.8" data-iso2="TZ" data-name="Tanzania" /><path d="M1543.30,709.77L1544.94,713.05L1546.35,718.13L1546.92,727.38L1548.45,730.98L1547.55,734.67L1546.21,736.93L1544.21,732.42L1542.81,734.70L1543.72,740.40L1542.91,743.66L1540.94,745.43L1540.06,751.95L1536.79,760.92L1532.73,771.52L1527.55,786.09L1524.16,796.79L1520.41,805.71L1514.87,807.53L1508.81,810.78L1505.18,808.82L1500.17,806.07L1498.68,802.01L1498.76,795.19L1496.87,789.06L1496.64,783.52L1498.20,777.98L1501.36,776.64L1501.54,774.08L1505.11,768.25L1506.04,763.35L1504.72,759.71L1503.77,754.86L1503.67,747.77L1506.28,743.47L1507.47,738.59L1510.83,738.31L1514.67,736.73L1517.24,735.34L1520.20,735.23L1524.28,730.85L1530.08,726.11L1532.31,722.24L1531.57,718.96L1534.38,719.88L1538.36,714.54L1538.71,709.91L1541.10,706.47L1543.30,709.77Z" fill="#435D74" stroke="#FFFFFF" stroke-width="0.8" data-iso2="MG" data-name="Madagascar" /></g></svg>