<svg xmlns="http://www.w3.org/2000/svg" viewBox="0 0 496 496">
  <path d="M 273,24 L 263,24 L 254,31 L 208,154 L 159,106 L 144,104 L 137,109 L 108,152 L 91,186 L 80,217 L 72,259 L 72,298 L 79,332 L 92,363 L 110,390 L 131,412 L 164,435 L 195,448 L 229,455 L 266,455 L 300,448 L 331,435 L 358,417 L 380,396 L 403,363 L 416,332 L 423,298 L 423,259 L 418,229 L 409,199 L 389,156 L 364,117 L 333,79 Z" fill="none" stroke="#1C1F3B" stroke-width="28" stroke-linejoin="round" stroke-linecap="round"/>
  <path d="M 276,68 L 329,124 L 364,177 L 387,237 L 391,296 L 375,347 L 358,372 L 335,394 L 288,418 L 264,423 L 231,423 L 207,418 L 178,406 L 156,391 L 130,363 L 116,339 L 107,313 L 103,281 L 105,253 L 120,200 L 150,146 L 153,145 L 208,198 L 221,199 L 228,194 Z" fill="none" stroke="#1C1F3B" stroke-width="28" stroke-linejoin="round" stroke-linecap="round"/>
  <path d="M 353,282 L 338,280 L 330,286 L 319,318 L 299,342 L 250,366 L 248,381 L 253,388 L 270,391 L 292,384 L 313,372 L 333,354 L 347,334 L 357,310 L 359,290 Z" fill="none" stroke="#1C1F3B" stroke-width="28" stroke-linejoin="round" stroke-linecap="round"/>
</svg>