<?xml version='1.0' encoding='UTF-8'?>
<svg xmlns="http://www.w3.org/2000/svg" viewBox="1030.4 343.1 399.2 317.4" width="1920" height="1527" data-region="Afrique de l'Ouest" data-version="2.0" data-source="POF design system v3.3.0 - vectorized regional crop"><defs /><rect x="1030.39" y="343.12" width="399.15999999999985" height="317.43999999999994" fill="#FFFFFF" /><g id="pof-map-base" fill="#EAEBED" stroke="#FFFFFF" stroke-width="0.8"><path d="M1439.36,621.16L1440.50,622.01L1465.01,637.68L1465.41,642.14L1475.04,649.83L1471.75,659.31L1472.07,663.67L1476.35,666.47L1476.51,668.47L1474.55,673.11L1474.88,675.45L1474.35,679.12L1476.59,683.95L1479.18,691.53L1481.61,693.21L1481.61,693.21L1476.09,697.67L1468.61,700.66L1464.56,700.53L1462.08,702.84L1457.37,703.04L1455.58,704.01L1447.53,701.84L1442.43,702.47L1440.83,692.01L1438.62,688.42L1437.31,686.29L1430.71,684.86L1426.92,682.55L1422.64,681.25L1419.97,679.96L1417.18,678.01L1417.18,678.01L1413.69,668.31L1409.82,664.01L1408.53,659.54L1409.26,655.54L1408.13,648.47L1410.94,648.10L1413.43,645.32L1416.12,641.30L1417.81,639.69L1417.78,637.19L1416.33,635.45L1415.96,632.42L1415.96,632.42L1417.93,631.45L1418.35,626.92L1415.68,622.58L1418.06,621.66L1425.51,621.76L1439.36,621.16Z" data-iso2="TZ" data-iso3="TZA" data-name="Tanzania" /><path d="M1152.08,401.12L1152.07,401.63L1151.92,403.12L1151.68,414.78L1130.03,414.37L1129.81,434.05L1123.58,434.74L1121.87,438.70L1122.91,449.80L1096.83,449.76L1095.32,452.32L1095.69,449.07L1095.80,449.08L1110.81,448.47L1111.67,445.70L1114.47,442.24L1116.91,431.62L1126.31,423.32L1129.65,413.62L1131.72,413.06L1134.02,407.07L1139.57,406.24L1141.93,407.24L1144.92,407.24L1147.08,405.49L1151.15,405.24L1151.08,401.12L1152.08,401.12Z" data-iso2="EH" data-iso3="ESH" data-name="W. Sahara" /><path d="M1408.13,648.47L1409.26,655.54L1408.53,659.54L1409.82,664.01L1413.69,668.31L1417.18,678.01L1417.18,678.01L1414.52,677.22L1405.40,678.52L1403.57,679.44L1401.55,684.35L1403.00,687.74L1401.60,696.85L1400.58,704.57L1402.37,705.94L1407.01,708.93L1408.90,707.53L1409.23,715.83L1404.07,715.77L1401.42,711.53L1399.02,708.25L1393.88,707.18L1392.46,703.15L1388.27,705.58L1382.89,704.50L1380.71,701.01L1376.44,700.30L1373.27,700.49L1372.93,698.10L1370.60,697.90L1367.53,697.45L1363.32,698.60L1360.39,698.41L1358.71,699.12L1359.22,689.97L1357.01,687.11L1356.59,682.38L1357.65,677.74L1356.31,674.78L1356.25,669.94L1348.02,670.00L1348.65,667.23L1345.19,667.26L1344.81,668.59L1340.60,668.89L1338.85,673.38L1337.82,675.30L1334.08,674.21L1331.84,675.30L1327.35,675.92L1324.80,671.90L1323.26,669.41L1321.36,664.80L1319.73,659.06L1299.72,658.96L1297.33,659.89L1295.37,659.74L1292.56,660.78L1291.63,658.39L1293.36,657.58L1293.59,654.22L1294.71,652.25L1297.19,650.63L1298.97,651.41L1301.30,648.47L1305.00,648.55L1305.42,650.72L1307.95,652.09L1311.97,647.26L1315.95,643.51L1317.68,641.05L1317.48,634.72L1320.46,627.25L1323.59,623.28L1328.07,619.58L1328.85,617.12L1329.02,614.30L1330.13,611.63L1329.77,607.27L1330.60,600.46L1331.90,595.66L1333.92,591.54L1334.29,586.90L1334.87,581.53L1337.48,577.63L1341.09,575.15L1346.70,577.76L1351.05,580.60L1356.02,581.36L1361.09,582.86L1363.08,578.22L1364.01,577.62L1367.11,578.40L1374.63,574.56L1377.32,576.18L1379.51,575.95L1380.51,574.08L1383.03,573.42L1388.14,574.23L1392.49,574.41L1394.72,573.59L1398.91,579.94L1401.96,580.88L1403.77,579.58L1406.91,580.09L1410.67,578.46L1412.32,581.75L1418.36,586.86L1418.36,586.86L1418.03,595.86L1420.76,596.90L1418.59,599.63L1415.99,601.67L1413.42,605.68L1412.00,609.26L1411.62,615.43L1410.04,618.37L1409.96,624.17L1408.00,626.32L1407.72,630.89L1406.78,631.49L1406.12,635.69L1407.80,639.19L1408.13,648.47Z" data-iso2="CD" data-iso3="COD" data-name="Dem. Rep. Congo" /><path d="M1375.39,550.55L1370.18,547.19L1367.80,544.98L1367.33,542.59L1368.37,539.39L1368.30,536.25L1364.31,531.44L1363.49,528.15L1363.53,526.28L1361.01,524.02L1360.84,519.55L1359.36,516.58L1357.00,517.02L1357.62,514.20L1359.30,510.99L1358.46,507.81L1360.62,505.45L1359.17,503.65L1360.82,498.90L1363.74,493.24L1369.55,493.77L1368.20,463.24L1368.17,460.01L1375.85,459.99L1375.27,444.63L1402.00,444.63L1427.81,444.63L1454.19,444.63L1456.76,452.17L1455.38,453.57L1456.78,461.49L1459.74,470.67L1462.39,472.57L1466.21,475.41L1463.05,479.80L1458.18,481.06L1456.19,483.42L1455.78,488.54L1453.40,499.84L1454.25,502.92L1453.44,509.52L1450.97,517.10L1447.02,520.91L1444.31,526.79L1443.72,529.93L1440.58,532.09L1438.78,540.14L1439.03,547.05L1438.81,541.05L1437.87,540.90L1437.90,537.07L1437.02,534.43L1433.46,531.39L1432.49,525.85L1433.14,520.17L1429.99,519.64L1429.58,521.36L1425.54,521.75L1427.23,524.00L1427.93,528.62L1424.33,532.85L1421.09,538.39L1417.63,539.18L1411.84,534.70L1409.32,536.28L1408.67,538.52L1405.21,539.98L1405.01,541.56L1398.28,541.56L1397.32,539.98L1392.43,539.71L1390.02,541.03L1388.15,540.37L1384.58,535.88L1383.38,533.77L1378.52,534.83L1376.73,538.39L1375.10,545.26L1372.80,546.71L1370.73,547.55L1375.39,550.55Z" data-iso2="SD" data-iso3="SDN" data-name="Sudan" /><path d="M1368.20,463.24L1369.55,493.77L1363.74,493.24L1360.82,498.90L1359.17,503.65L1360.62,505.45L1358.46,507.81L1359.30,510.99L1357.62,514.20L1357.00,517.02L1359.36,516.58L1360.84,519.55L1361.01,524.02L1363.53,526.28L1363.49,528.15L1359.23,529.46L1355.86,532.57L1351.10,540.96L1344.78,544.53L1338.24,544.05L1336.34,544.76L1337.04,547.46L1333.54,550.15L1330.70,553.16L1322.20,556.10L1320.49,554.36L1319.37,554.21L1318.14,556.19L1312.54,556.76L1313.58,554.68L1311.40,549.38L1310.41,546.19L1307.45,544.89L1303.42,540.40L1304.85,536.77L1307.94,537.54L1309.84,536.99L1313.62,537.07L1309.86,530.08L1310.04,524.97L1309.52,519.86L1306.77,514.94L1307.39,511.32L1303.07,511.14L1303.01,506.19L1300.16,503.34L1302.90,493.21L1311.33,485.96L1311.47,475.95L1313.69,460.34L1315.07,457.03L1312.23,454.39L1312.07,451.95L1309.53,449.95L1307.62,437.99L1314.21,433.78L1341.13,448.51L1368.20,463.24Z" data-iso2="TD" data-iso3="TCD" data-name="Chad" /><path d="M1096.37,509.28L1093.70,503.29L1090.39,500.55L1093.38,499.09L1096.75,493.69L1098.43,489.74L1100.79,487.28L1104.11,487.94L1107.42,486.26L1111.17,486.18L1114.33,488.44L1118.75,490.48L1122.73,496.14L1127.09,501.42L1127.33,506.21L1128.60,510.61L1131.10,512.77L1131.64,515.74L1131.31,518.14L1130.33,518.58L1126.65,517.97L1126.14,518.82L1124.65,518.99L1119.82,517.12L1116.56,517.04L1104.10,516.72L1102.28,517.58L1100.05,517.34L1096.46,518.59L1095.44,512.69L1101.58,512.85L1103.22,511.78L1104.43,511.71L1106.95,509.94L1109.82,511.56L1112.75,511.70L1115.69,509.97L1114.36,507.75L1112.12,509.04L1110.03,509.01L1107.40,507.11L1105.26,507.24L1103.71,509.06L1096.37,509.28Z" data-iso2="SN" data-iso3="SEN" data-name="Senegal" /><path d="M1131.31,518.14L1131.64,515.74L1131.10,512.77L1128.60,510.61L1127.33,506.21L1127.09,501.42L1129.37,500.02L1130.57,495.49L1132.70,495.31L1137.37,497.45L1141.18,495.93L1143.77,496.44L1144.80,494.73L1171.77,494.61L1173.31,489.23L1172.15,488.28L1169.19,455.08L1166.33,421.89L1176.45,421.75L1198.71,438.53L1221.16,455.31L1222.75,458.92L1226.91,461.12L1230.01,462.37L1230.11,467.26L1237.52,466.51L1237.65,484.23L1234.00,489.36L1233.45,494.10L1227.49,495.32L1218.32,495.98L1215.83,498.72L1211.52,499.02L1207.21,499.05L1205.53,497.58L1201.83,498.67L1195.53,501.86L1194.24,504.27L1189.01,507.72L1188.08,509.69L1185.25,511.26L1182.00,510.22L1180.14,512.10L1179.13,517.37L1173.74,523.75L1173.89,526.36L1172.03,529.62L1172.46,534.08L1169.66,535.22L1168.08,536.19L1167.05,532.90L1165.09,533.77L1163.93,533.62L1162.67,535.86L1157.45,535.80L1155.58,534.65L1154.70,535.34L1152.65,533.13L1153.02,530.84L1152.18,529.94L1150.74,530.70L1151.02,528.19L1152.42,526.21L1149.67,522.99L1148.89,520.87L1147.40,519.18L1146.05,518.98L1144.42,520.05L1142.23,521.08L1140.36,522.75L1137.48,522.13L1135.62,520.18L1134.51,519.92L1132.74,520.95L1131.67,520.96L1131.31,518.14Z" data-iso2="ML" data-iso3="MLI" data-name="Mali" /><path d="M1095.32,452.32L1096.83,449.76L1122.91,449.80L1121.87,438.70L1123.58,434.74L1129.81,434.05L1130.03,414.37L1151.68,414.78L1151.92,403.12L1176.45,421.75L1166.33,421.89L1169.19,455.08L1172.15,488.28L1173.31,489.23L1171.77,494.61L1144.80,494.73L1143.77,496.44L1141.18,495.93L1137.37,497.45L1132.70,495.31L1130.57,495.49L1129.37,500.02L1127.09,501.42L1122.73,496.14L1118.75,490.48L1114.33,488.44L1111.17,486.18L1107.42,486.26L1104.11,487.94L1100.79,487.28L1098.43,489.74L1097.94,485.60L1099.90,481.80L1100.90,474.56L1100.34,466.96L1099.62,463.14L1100.38,459.30L1098.75,455.64L1095.32,452.32Z" data-iso2="MR" data-iso3="MRT" data-name="Mauritania" /><path d="M1227.25,565.71L1221.65,566.61L1219.97,561.30L1220.27,543.64L1218.90,542.05L1218.64,538.28L1216.29,535.58L1214.22,533.31L1215.08,529.26L1217.40,528.39L1218.77,525.03L1222.07,524.31L1223.55,522.01L1225.81,519.76L1228.23,519.74L1233.39,524.16L1233.13,526.72L1234.67,531.28L1233.34,534.38L1234.06,536.45L1230.79,541.21L1228.71,543.57L1227.44,548.42L1227.62,553.31L1227.25,565.71Z" data-iso2="BJ" data-iso3="BEN" data-name="Benin" /><path d="M1307.62,437.99L1309.53,449.95L1312.07,451.95L1312.23,454.39L1315.07,457.03L1313.69,460.34L1311.47,475.95L1311.33,485.96L1302.90,493.21L1300.16,503.34L1303.01,506.19L1303.07,511.14L1307.39,511.32L1306.77,514.94L1304.87,515.38L1304.69,517.83L1303.44,518.00L1298.76,509.58L1297.17,509.27L1291.96,513.57L1286.71,511.33L1283.08,510.88L1281.14,511.96L1277.19,511.72L1273.24,515.00L1269.81,515.19L1261.61,511.21L1258.43,513.10L1254.99,512.97L1252.44,510.07L1245.67,507.20L1238.43,508.11L1236.69,509.77L1235.76,514.19L1233.83,517.30L1233.39,524.16L1228.23,519.74L1225.81,519.76L1223.55,522.01L1223.69,516.74L1215.91,515.00L1215.69,511.27L1211.90,506.25L1210.99,502.75L1211.52,499.02L1215.83,498.72L1218.32,495.98L1227.49,495.32L1233.45,494.10L1234.00,489.36L1237.65,484.23L1237.52,466.51L1246.92,463.08L1266.06,447.97L1288.59,433.31L1299.15,436.62L1302.98,440.85L1307.62,437.99Z" data-iso2="NE" data-iso3="NER" data-name="Niger" /><path d="M1227.25,565.71L1227.62,553.31L1227.44,548.42L1228.71,543.57L1230.79,541.21L1234.06,536.45L1233.34,534.38L1234.67,531.28L1233.13,526.72L1233.39,524.16L1233.83,517.30L1235.76,514.19L1236.69,509.77L1238.43,508.11L1245.67,507.20L1252.44,510.07L1254.99,512.97L1258.43,513.10L1261.61,511.21L1269.81,515.19L1273.24,515.00L1277.19,511.72L1281.14,511.96L1283.08,510.88L1286.71,511.33L1291.96,513.57L1297.17,509.27L1298.76,509.58L1303.44,518.00L1304.69,517.83L1307.40,520.89L1306.68,522.28L1306.36,524.84L1300.74,530.79L1299.00,535.70L1298.09,539.70L1296.67,541.41L1295.35,546.80L1291.75,549.96L1290.73,553.86L1289.23,556.96L1288.61,560.15L1283.97,562.74L1280.15,559.58L1277.58,559.71L1273.57,564.21L1271.60,564.28L1268.41,571.70L1266.68,577.15L1259.65,579.92L1257.07,579.51L1254.46,581.23L1249.03,581.07L1245.39,576.26L1243.14,570.69L1238.33,565.62L1233.24,565.71L1227.25,565.71Z" data-iso2="NG" data-iso3="NGA" data-name="Nigeria" /><path d="M1306.77,514.94L1309.52,519.86L1310.04,524.97L1309.86,530.08L1313.62,537.07L1309.84,536.99L1307.94,537.54L1304.85,536.77L1303.42,540.40L1307.45,544.89L1310.41,546.19L1311.40,549.38L1313.58,554.68L1312.54,556.76L1309.19,564.56L1307.57,565.96L1307.09,571.92L1307.79,575.16L1307.25,577.45L1310.48,581.47L1311.08,584.23L1313.61,588.20L1316.72,590.67L1317.04,594.18L1317.77,596.41L1317.29,600.56L1311.89,598.75L1306.39,596.72L1297.82,596.42L1296.97,596.00L1292.95,596.99L1288.82,595.96L1285.60,596.46L1274.54,596.29L1275.52,590.21L1272.85,585.13L1269.75,583.82L1268.36,580.38L1266.61,579.27L1266.68,577.15L1268.41,571.70L1271.60,564.28L1273.57,564.21L1277.58,559.71L1280.15,559.58L1283.97,562.74L1288.61,560.15L1289.23,556.96L1290.73,553.86L1291.75,549.96L1295.35,546.80L1296.67,541.41L1298.09,539.70L1299.00,535.70L1300.74,530.79L1306.36,524.84L1306.68,522.28L1307.40,520.89L1304.69,517.83L1304.87,515.38L1306.77,514.94Z" data-iso2="CM" data-iso3="CMR" data-name="Cameroon" /><path d="M1215.08,529.26L1214.22,533.31L1216.29,535.58L1218.64,538.28L1218.90,542.05L1220.27,543.64L1219.97,561.30L1221.65,566.61L1216.19,568.25L1214.68,565.55L1212.87,560.67L1212.33,556.84L1213.82,549.91L1212.12,547.11L1211.48,541.05L1211.49,535.46L1208.66,531.50L1209.16,529.10L1215.08,529.26Z" data-iso2="TG" data-iso3="TGO" data-name="Togo" /><path d="M1209.16,529.10L1208.66,531.50L1211.49,535.46L1211.48,541.05L1212.12,547.11L1213.82,549.91L1212.33,556.84L1212.87,560.67L1214.68,565.55L1216.19,568.25L1205.56,572.75L1201.78,575.39L1195.67,577.62L1189.62,575.44L1189.93,572.40L1187.00,565.77L1188.78,557.09L1191.65,550.63L1189.87,539.68L1188.96,533.89L1189.13,529.53L1200.87,529.17L1203.85,529.73L1206.04,528.48L1209.16,529.10Z" data-iso2="GH" data-iso3="GHA" data-name="Ghana" /><path d="M1154.70,535.34L1155.58,534.65L1157.45,535.80L1162.67,535.86L1163.93,533.62L1165.09,533.77L1167.05,532.90L1168.08,536.19L1169.66,535.22L1172.46,534.08L1175.49,535.76L1176.67,538.30L1179.70,539.93L1182.07,537.99L1185.24,537.70L1189.87,539.68L1191.65,550.63L1188.78,557.09L1187.00,565.77L1189.93,572.40L1189.62,575.44L1186.53,575.51L1181.80,574.01L1177.45,574.10L1169.41,575.44L1164.69,577.66L1157.97,580.48L1156.65,580.28L1157.20,573.95L1157.85,572.98L1157.65,569.95L1154.79,566.73L1152.64,566.22L1150.67,564.10L1152.16,560.69L1151.50,556.97L1151.82,554.73L1152.90,554.72L1153.31,551.37L1152.80,549.88L1153.45,548.81L1155.97,547.89L1154.33,541.73L1152.79,538.55L1153.35,535.94L1154.70,535.34Z" data-iso2="CI" data-iso3="CIV" data-name="Côte d'Ivoire" /><path d="M1116.56,517.04L1119.82,517.12L1124.65,518.99L1126.14,518.82L1126.65,517.97L1130.33,518.58L1131.31,518.14L1131.67,520.96L1132.74,520.95L1134.51,519.92L1135.62,520.18L1137.48,522.13L1140.36,522.75L1142.23,521.08L1144.42,520.05L1146.05,518.98L1147.40,519.18L1148.89,520.87L1149.67,522.99L1152.42,526.21L1151.02,528.19L1150.74,530.70L1152.18,529.94L1153.02,530.84L1152.65,533.13L1154.70,535.34L1153.35,535.94L1152.79,538.55L1154.33,541.73L1155.97,547.89L1153.45,548.81L1152.80,549.88L1153.31,551.37L1152.90,554.72L1151.82,554.73L1149.91,554.53L1148.51,557.63L1146.59,557.59L1145.28,555.96L1145.75,552.87L1142.94,548.16L1141.17,549.02L1139.72,549.19L1137.86,549.63L1137.95,546.81L1136.88,544.80L1137.11,542.56L1135.67,539.33L1133.81,536.58L1128.40,536.57L1126.81,538.02L1124.94,538.20L1123.77,539.85L1122.98,541.99L1119.33,545.37L1116.40,540.82L1113.80,537.81L1112.08,536.81L1110.41,535.28L1109.68,531.88L1108.71,530.19L1106.76,528.93L1109.81,525.18L1111.86,525.32L1113.63,524.03L1115.12,524.02L1116.20,523.00L1115.66,520.45L1116.41,519.65L1116.56,517.04Z" data-iso2="GN" data-iso3="GIN" data-name="Guinea" /><path d="M1096.46,518.59L1100.05,517.34L1102.28,517.58L1104.10,516.72L1116.56,517.04L1116.41,519.65L1115.66,520.45L1116.20,523.00L1115.12,524.02L1113.63,524.03L1111.86,525.32L1109.81,525.18L1106.76,528.93L1103.19,525.71L1100.36,525.21L1098.84,523.04L1098.89,521.87L1096.86,520.23L1096.46,518.59Z" data-iso2="GW" data-iso3="GNB" data-name="Guinea-Bissau" /><path d="M1151.82,554.73L1151.50,556.97L1152.16,560.69L1150.67,564.10L1152.64,566.22L1154.79,566.73L1157.65,569.95L1157.85,572.98L1157.20,573.95L1156.65,580.28L1154.88,580.35L1147.89,576.68L1141.75,570.83L1136.00,566.62L1131.46,561.66L1133.09,559.19L1133.47,556.96L1136.55,552.78L1139.72,549.19L1141.17,549.02L1142.94,548.16L1145.75,552.87L1145.28,555.96L1146.59,557.59L1148.51,557.63L1149.91,554.53L1151.82,554.73Z" data-iso2="LR" data-iso3="LBR" data-name="Liberia" /><path d="M1119.33,545.37L1122.98,541.99L1123.77,539.85L1124.94,538.20L1126.81,538.02L1128.40,536.57L1133.81,536.58L1135.67,539.33L1137.11,542.56L1136.88,544.80L1137.95,546.81L1137.86,549.63L1139.72,549.19L1136.55,552.78L1133.47,556.96L1133.09,559.19L1131.46,561.66L1129.63,561.09L1124.78,557.99L1121.27,553.87L1120.11,551.06L1119.33,545.37Z" data-iso2="SL" data-iso3="SLE" data-name="Sierra Leone" /><path d="M1172.46,534.08L1172.03,529.62L1173.89,526.36L1173.74,523.75L1179.13,517.37L1180.14,512.10L1182.00,510.22L1185.25,511.26L1188.08,509.69L1189.01,507.72L1194.24,504.27L1195.53,501.86L1201.83,498.67L1205.53,497.58L1207.21,499.05L1211.52,499.02L1210.99,502.75L1211.90,506.25L1215.69,511.27L1215.91,515.00L1223.69,516.74L1223.55,522.01L1222.07,524.31L1218.77,525.03L1217.40,528.39L1215.08,529.26L1209.16,529.10L1206.04,528.48L1203.85,529.73L1200.87,529.17L1189.13,529.53L1188.96,533.89L1189.87,539.68L1185.24,537.70L1182.07,537.99L1179.70,539.93L1176.67,538.30L1175.49,535.76L1172.46,534.08Z" data-iso2="BF" data-iso3="BFA" data-name="Burkina Faso" /><path d="M1394.72,573.59L1392.49,574.41L1388.14,574.23L1383.03,573.42L1380.51,574.08L1379.51,575.95L1377.32,576.18L1374.63,574.56L1367.11,578.40L1364.01,577.62L1363.08,578.22L1361.09,582.86L1356.02,581.36L1351.05,580.60L1346.70,577.76L1341.09,575.15L1337.48,577.63L1334.87,581.53L1334.29,586.90L1329.92,586.47L1325.32,585.18L1321.30,589.25L1317.77,596.41L1317.04,594.18L1316.72,590.67L1313.61,588.20L1311.08,584.23L1310.48,581.47L1307.25,577.45L1307.79,575.16L1307.09,571.92L1307.57,565.96L1309.19,564.56L1312.54,556.76L1318.14,556.19L1319.37,554.21L1320.49,554.36L1322.20,556.10L1330.70,553.16L1333.54,550.15L1337.04,547.46L1336.34,544.76L1338.24,544.05L1344.78,544.53L1351.10,540.96L1355.86,532.57L1359.23,529.46L1363.49,528.15L1364.31,531.44L1368.30,536.25L1368.37,539.39L1367.33,542.59L1367.80,544.98L1370.18,547.19L1375.39,550.55L1379.14,553.66L1379.24,556.16L1383.85,560.17L1386.72,563.50L1388.49,568.11L1393.60,571.16L1394.72,573.59Z" data-iso2="CF" data-iso3="CAF" data-name="Central African Rep." /><path d="M1334.29,586.90L1333.92,591.54L1331.90,595.66L1330.60,600.46L1329.77,607.27L1330.13,611.63L1329.02,614.30L1328.85,617.12L1328.07,619.58L1323.59,623.28L1320.46,627.25L1317.48,634.72L1317.68,641.05L1315.95,643.51L1311.97,647.26L1307.95,652.09L1305.42,650.72L1305.00,648.55L1301.30,648.47L1298.97,651.41L1297.19,650.63L1294.66,647.99L1292.60,649.29L1289.85,652.61L1284.31,644.46L1289.50,640.21L1286.95,635.13L1289.29,633.19L1293.88,632.25L1294.43,628.84L1298.04,632.54L1304.04,632.86L1306.14,629.22L1307.01,624.11L1306.28,618.10L1303.06,613.56L1306.00,604.65L1304.30,603.12L1299.24,603.74L1297.33,599.77L1297.82,596.42L1306.39,596.72L1311.89,598.75L1317.29,600.56L1317.77,596.41L1321.30,589.25L1325.32,585.18L1329.92,586.47L1334.29,586.90Z" data-iso2="CG" data-iso3="COG" data-name="Congo" /><path d="M1285.60,596.46L1288.82,595.96L1292.95,596.99L1296.97,596.00L1297.82,596.42L1297.33,599.77L1299.24,603.74L1304.30,603.12L1306.00,604.65L1303.06,613.56L1306.28,618.10L1307.01,624.11L1306.14,629.22L1304.04,632.86L1298.04,632.54L1294.43,628.84L1293.88,632.25L1289.29,633.19L1286.95,635.13L1289.50,640.21L1284.31,644.46L1277.36,636.70L1272.89,630.35L1268.78,622.40L1269.00,619.85L1270.48,617.39L1272.13,611.79L1273.50,606.08L1275.79,605.64L1285.67,605.72L1285.60,596.46Z" data-iso2="GA" data-iso3="GAB" data-name="Gabon" /><path d="M1274.54,596.29L1285.60,596.46L1285.67,605.72L1275.79,605.64L1273.50,606.08L1272.22,604.92L1274.54,596.29Z" data-iso2="GQ" data-iso3="GNQ" data-name="Eq. Guinea" /><path d="M1297.19,650.63L1294.71,652.25L1293.59,654.22L1293.36,657.58L1291.63,658.39L1289.85,652.61L1292.60,649.29L1294.66,647.99L1297.19,650.63ZM1292.56,660.78L1295.37,659.74L1297.33,659.89L1299.72,658.96L1319.73,659.06L1321.36,664.80L1323.26,669.41L1324.80,671.90L1327.35,675.92L1331.84,675.30L1334.08,674.21L1337.82,675.30L1338.85,673.38L1340.60,668.89L1344.81,668.59L1345.19,667.26L1348.65,667.23L1348.02,670.00L1356.25,669.94L1356.31,674.78L1357.65,677.74L1356.59,682.38L1357.01,687.11L1359.22,689.97L1358.71,699.12L1360.39,698.41L1363.32,698.60L1367.53,697.45L1370.60,697.90L1371.27,700.29L1370.42,704.02L1371.53,707.63L1370.46,710.51L1370.97,713.17L1356.93,713.07L1356.01,737.54L1360.35,743.84L1364.58,748.64L1352.17,751.78L1335.98,750.69L1331.43,747.00L1304.25,747.33L1303.23,747.88L1299.30,744.40L1294.95,744.17L1290.92,745.48L1287.66,746.94L1287.11,742.10L1288.14,735.34L1290.57,728.30L1290.96,725.00L1293.24,718.06L1294.89,714.91L1298.83,709.88L1301.04,706.46L1301.82,700.76L1301.51,696.40L1299.52,693.65L1297.76,688.98L1296.14,684.37L1296.52,682.77L1298.63,679.72L1296.63,672.29L1295.28,667.14L1291.91,662.27L1292.56,660.78Z" data-iso2="AO" data-iso3="AGO" data-name="Angola" /><path d="M1415.96,632.42L1416.33,635.45L1417.78,637.19L1417.81,639.69L1416.12,641.30L1413.43,645.32L1410.94,648.10L1408.13,648.47L1407.80,639.19L1406.12,635.69L1410.24,636.30L1412.35,631.92L1415.96,632.42Z" data-iso2="BI" data-iso3="BDI" data-name="Burundi" /><path d="M1096.37,509.28L1103.71,509.06L1105.26,507.24L1107.40,507.11L1110.03,509.01L1112.12,509.04L1114.36,507.75L1115.69,509.97L1112.75,511.70L1109.82,511.56L1106.95,509.94L1104.43,511.71L1103.22,511.78L1101.58,512.85L1095.44,512.69L1096.37,509.28Z" data-iso2="GM" data-iso3="GMB" data-name="Gambia" /><path d="M1270.79,380.72L1267.65,366.91L1263.58,363.81L1263.48,361.95L1258.08,357.36L1257.37,351.57L1261.22,347.28L1262.55,340.94L1261.33,333.62L1262.50,329.68L1269.31,326.59L1273.78,327.51L1273.74,331.39L1279.02,328.56L1279.53,330.04L1276.50,333.80L1276.59,337.35L1278.87,339.26L1278.28,345.91L1274.19,349.78L1275.55,353.97L1278.88,354.10L1280.63,357.75L1283.13,358.96L1282.97,364.86L1279.89,367.07L1277.98,369.54L1273.61,372.50L1274.39,375.69L1273.92,378.94L1270.79,380.72Z" data-iso2="TN" data-iso3="TUN" data-name="Tunisia" /><path d="M1151.92,403.12L1152.07,401.63L1152.08,401.12L1152.22,392.01L1162.89,386.33L1169.43,385.16L1174.81,383.09L1177.35,379.24L1185.00,376.19L1185.34,370.49L1189.10,369.82L1192.05,366.98L1200.53,365.68L1201.73,362.69L1200.03,361.06L1197.85,352.94L1197.49,348.26L1195.11,343.34L1201.28,339.14L1208.19,337.80L1212.21,334.63L1218.33,332.30L1229.10,330.93L1239.61,330.31L1242.83,331.45L1248.75,328.42L1255.54,328.36L1258.17,330.15L1262.50,329.68L1261.33,333.62L1262.55,340.94L1261.22,347.28L1257.37,351.57L1258.08,357.36L1263.48,361.95L1263.58,363.81L1267.65,366.91L1270.79,380.72L1273.08,387.52L1273.52,391.09L1272.52,397.37L1273.08,400.87L1272.33,405.08L1273.01,409.92L1270.46,413.13L1274.47,418.74L1274.78,422.04L1277.21,426.33L1280.28,424.92L1285.58,428.49L1288.59,433.31L1266.06,447.97L1246.92,463.08L1237.52,466.51L1230.11,467.26L1230.01,462.37L1226.91,461.12L1222.75,458.92L1221.16,455.31L1198.71,438.53L1176.45,421.75L1151.92,403.12Z" data-iso2="DZ" data-iso3="DZA" data-name="Algeria" /><path d="M1377.19,342.33L1376.60,344.59L1367.43,345.25L1367.39,343.98L1359.45,342.48L1360.37,339.21L1364.08,341.80L1369.02,341.37L1373.83,341.91L1373.79,343.25L1377.19,342.33ZM1351.73,296.08L1356.35,296.30L1361.10,294.21L1365.77,296.87L1371.35,296.15L1370.98,292.36L1374.24,294.37L1372.86,299.15L1371.48,300.00L1367.65,299.78L1364.32,299.06L1356.98,301.05L1361.75,305.34L1358.69,306.59L1355.21,306.59L1351.52,302.66L1350.50,304.33L1352.33,308.90L1355.81,312.49L1353.60,314.17L1357.43,317.69L1360.76,319.92L1361.25,324.25L1355.21,322.22L1357.42,326.13L1353.46,326.93L1356.44,333.70L1352.21,333.80L1346.73,330.46L1343.87,324.32L1342.35,319.22L1339.60,315.70L1336.02,311.34L1335.42,309.16L1338.02,305.45L1338.18,302.97L1340.11,301.86L1340.06,299.86L1344.07,299.18L1346.29,297.52L1349.68,297.66L1350.57,296.33L1351.73,296.08Z" data-iso2="GR" data-iso3="GRC" data-name="Greece" /><path d="M1418.54,343.55L1418.99,343.51L1419.71,341.66L1424.33,341.76L1429.87,339.47L1425.93,342.74L1426.57,344.18L1425.85,343.91L1424.69,344.49L1423.72,344.33L1423.43,344.63L1423.21,343.85L1422.70,343.38L1421.46,343.30L1419.79,343.96L1418.54,343.55Z" data-iso2="-9" data-iso3="-99" data-name="N. Cyprus" /><path d="M1418.54,343.55L1419.79,343.96L1421.46,343.30L1422.70,343.38L1423.21,343.85L1423.43,344.63L1423.72,344.33L1424.69,344.49L1425.85,343.91L1426.57,344.18L1426.84,344.80L1420.62,347.92L1417.37,346.92L1415.53,343.84L1418.54,343.55Z" data-iso2="CY" data-iso3="CYP" data-name="Cyprus" /><path d="M1195.11,343.34L1197.49,348.26L1197.85,352.94L1200.03,361.06L1201.73,362.69L1200.53,365.68L1192.05,366.98L1189.10,369.82L1185.34,370.49L1185.00,376.19L1177.35,379.24L1174.81,383.09L1169.43,385.16L1162.89,386.33L1152.22,392.01L1152.08,401.12L1151.08,401.12L1151.15,405.24L1147.08,405.49L1144.92,407.24L1141.93,407.24L1139.57,406.24L1134.02,407.07L1131.72,413.06L1129.65,413.62L1126.31,423.32L1116.91,431.62L1114.47,442.24L1111.67,445.70L1110.81,448.47L1095.80,449.08L1095.69,449.07L1096.09,445.51L1098.70,443.41L1100.98,439.40L1100.62,436.80L1103.05,431.37L1106.87,426.48L1109.13,425.24L1111.01,420.76L1111.29,416.66L1113.81,411.90L1118.28,409.10L1122.69,401.24L1122.81,401.14L1126.20,398.18L1132.33,397.33L1137.64,392.08L1140.97,390.03L1146.59,383.60L1145.23,374.03L1147.88,367.41L1148.86,363.36L1153.16,358.16L1159.72,354.65L1164.56,351.47L1169.03,343.51L1171.13,338.79L1175.83,338.83L1179.63,342.09L1185.72,341.56L1192.33,343.25L1195.11,343.34Z" data-iso2="MA" data-iso3="MAR" data-name="Morocco" /><path d="M1454.19,444.63L1427.81,444.63L1402.00,444.63L1375.27,444.63L1374.03,416.30L1372.46,388.95L1370.10,382.75L1371.45,378.00L1370.21,374.71L1372.30,371.02L1380.92,370.89L1387.33,372.93L1393.96,375.20L1397.07,376.40L1401.87,373.96L1404.35,371.75L1410.02,371.12L1414.72,372.09L1416.84,375.91L1418.12,373.39L1423.50,375.21L1428.61,375.65L1431.62,373.71L1431.62,373.71L1436.33,384.93L1437.16,386.93L1435.60,390.02L1434.69,395.83L1433.23,399.84L1431.81,401.18L1429.43,398.70L1426.19,395.26L1420.60,384.24L1419.99,384.93L1423.38,393.05L1428.02,400.79L1433.88,412.77L1436.61,416.95L1439.03,421.29L1445.51,429.81L1444.28,431.15L1444.79,436.15L1452.93,443.05L1454.19,444.63Z" data-iso2="EG" data-iso3="EGY" data-name="Egypt" /><path d="M1375.27,444.63L1375.85,459.99L1368.17,460.01L1368.20,463.24L1341.13,448.51L1314.21,433.78L1307.62,437.99L1302.98,440.85L1299.15,436.62L1288.59,433.31L1285.58,428.49L1280.28,424.92L1277.21,426.33L1274.78,422.04L1274.47,418.74L1270.46,413.13L1273.01,409.92L1272.33,405.08L1273.08,400.87L1272.52,397.37L1273.52,391.09L1273.08,387.52L1270.79,380.72L1273.92,378.94L1274.39,375.69L1273.61,372.50L1277.98,369.54L1279.89,367.07L1282.97,364.86L1283.13,358.96L1290.81,361.60L1293.50,360.94L1298.95,362.23L1307.69,365.66L1311.04,372.50L1316.94,374.00L1326.26,377.22L1333.40,381.04L1336.47,379.05L1339.39,375.51L1337.53,369.61L1339.34,365.87L1343.78,362.26L1348.16,361.22L1357.01,362.79L1359.45,366.23L1361.87,366.26L1364.02,367.57L1370.53,368.48L1372.30,371.02L1370.21,374.71L1371.45,378.00L1370.10,382.75L1372.46,388.95L1374.03,416.30L1375.27,444.63Z" data-iso2="LY" data-iso3="LBY" data-name="Libya" /><path d="M1439.36,621.16L1425.51,621.76L1418.06,621.66L1415.68,622.58L1411.60,624.96L1409.96,624.17L1410.04,618.37L1411.62,615.43L1412.00,609.26L1413.42,605.68L1415.99,601.67L1418.59,599.63L1420.76,596.90L1418.03,595.86L1418.36,586.86L1418.36,586.86L1421.13,584.76L1425.46,586.48L1430.91,584.68L1435.69,584.70L1439.82,581.16L1443.10,586.50L1443.94,590.36L1447.01,599.19L1444.57,604.80L1441.24,609.89L1439.30,613.01L1439.36,621.16Z" data-iso2="UG" data-iso3="UGA" data-name="Uganda" /><path d="M1415.68,622.58L1418.35,626.92L1417.93,631.45L1415.96,632.42L1415.96,632.42L1412.35,631.92L1410.24,636.30L1406.12,635.69L1406.78,631.49L1407.72,630.89L1408.00,626.32L1409.96,624.17L1411.60,624.96L1415.68,622.58Z" data-iso2="RW" data-iso3="RWA" data-name="Rwanda" /><path d="M1418.36,586.86L1412.32,581.75L1410.67,578.46L1406.91,580.09L1403.77,579.58L1401.96,580.88L1398.91,579.94L1394.72,573.59L1393.60,571.16L1388.49,568.11L1386.72,563.50L1383.85,560.17L1379.24,556.16L1379.14,553.66L1375.39,550.55L1370.73,547.55L1372.80,546.71L1375.10,545.26L1376.73,538.39L1378.52,534.83L1383.38,533.77L1384.58,535.88L1388.15,540.37L1390.02,541.03L1392.43,539.71L1397.32,539.98L1398.28,541.56L1405.01,541.56L1405.21,539.98L1408.67,538.52L1409.32,536.28L1411.84,534.70L1417.63,539.18L1421.09,538.39L1424.33,532.85L1427.93,528.62L1427.23,524.00L1425.54,521.75L1429.58,521.36L1429.99,519.64L1433.14,520.17L1432.49,525.85L1433.46,531.39L1437.02,534.43L1437.90,537.07L1437.87,540.90L1438.81,541.05L1439.03,547.05L1438.07,549.40L1434.48,549.59L1432.26,553.97L1436.43,554.52L1439.93,558.27L1441.17,561.35L1444.30,563.13L1448.45,571.50L1443.93,576.57L1439.82,581.16L1435.69,584.70L1430.91,584.68L1425.46,586.48L1421.13,584.76L1418.36,586.86Z" data-iso2="SS" data-iso3="SSD" data-name="S. Sudan" /></g><g id="pof-country-overlay" _comment="Insert colored paths/shapes here for highlighting. Categorical/heatmap layer."><path d="M1096.37,509.28L1093.70,503.29L1090.39,500.55L1093.38,499.09L1096.75,493.69L1098.43,489.74L1100.79,487.28L1104.11,487.94L1107.42,486.26L1111.17,486.18L1114.33,488.44L1118.75,490.48L1122.73,496.14L1127.09,501.42L1127.33,506.21L1128.60,510.61L1131.10,512.77L1131.64,515.74L1131.31,518.14L1130.33,518.58L1126.65,517.97L1126.14,518.82L1124.65,518.99L1119.82,517.12L1116.56,517.04L1104.10,516.72L1102.28,517.58L1100.05,517.34L1096.46,518.59L1095.44,512.69L1101.58,512.85L1103.22,511.78L1104.43,511.71L1106.95,509.94L1109.82,511.56L1112.75,511.70L1115.69,509.97L1114.36,507.75L1112.12,509.04L1110.03,509.01L1107.40,507.11L1105.26,507.24L1103.71,509.06L1096.37,509.28Z" fill="#1C1F3B" stroke="#FFFFFF" stroke-width="0.8" data-iso2="SN" data-name="Senegal" /><path d="M1154.70,535.34L1155.58,534.65L1157.45,535.80L1162.67,535.86L1163.93,533.62L1165.09,533.77L1167.05,532.90L1168.08,536.19L1169.66,535.22L1172.46,534.08L1175.49,535.76L1176.67,538.30L1179.70,539.93L1182.07,537.99L1185.24,537.70L1189.87,539.68L1191.65,550.63L1188.78,557.09L1187.00,565.77L1189.93,572.40L1189.62,575.44L1186.53,575.51L1181.80,574.01L1177.45,574.10L1169.41,575.44L1164.69,577.66L1157.97,580.48L1156.65,580.28L1157.20,573.95L1157.85,572.98L1157.65,569.95L1154.79,566.73L1152.64,566.22L1150.67,564.10L1152.16,560.69L1151.50,556.97L1151.82,554.73L1152.90,554.72L1153.31,551.37L1152.80,549.88L1153.45,548.81L1155.97,547.89L1154.33,541.73L1152.79,538.55L1153.35,535.94L1154.70,535.34Z" fill="#1C1F3B" stroke="#FFFFFF" stroke-width="0.8" data-iso2="CI" data-name="Côte d'Ivoire" /><path d="M1306.77,514.94L1309.52,519.86L1310.04,524.97L1309.86,530.08L1313.62,537.07L1309.84,536.99L1307.94,537.54L1304.85,536.77L1303.42,540.40L1307.45,544.89L1310.41,546.19L1311.40,549.38L1313.58,554.68L1312.54,556.76L1309.19,564.56L1307.57,565.96L1307.09,571.92L1307.79,575.16L1307.25,577.45L1310.48,581.47L1311.08,584.23L1313.61,588.20L1316.72,590.67L1317.04,594.18L1317.77,596.41L1317.29,600.56L1311.89,598.75L1306.39,596.72L1297.82,596.42L1296.97,596.00L1292.95,596.99L1288.82,595.96L1285.60,596.46L1274.54,596.29L1275.52,590.21L1272.85,585.13L1269.75,583.82L1268.36,580.38L1266.61,579.27L1266.68,577.15L1268.41,571.70L1271.60,564.28L1273.57,564.21L1277.58,559.71L1280.15,559.58L1283.97,562.74L1288.61,560.15L1289.23,556.96L1290.73,553.86L1291.75,549.96L1295.35,546.80L1296.67,541.41L1298.09,539.70L1299.00,535.70L1300.74,530.79L1306.36,524.84L1306.68,522.28L1307.40,520.89L1304.69,517.83L1304.87,515.38L1306.77,514.94Z" fill="#1C1F3B" stroke="#FFFFFF" stroke-width="0.8" data-iso2="CM" data-name="Cameroon" /><path d="M1227.25,565.71L1227.62,553.31L1227.44,548.42L1228.71,543.57L1230.79,541.21L1234.06,536.45L1233.34,534.38L1234.67,531.28L1233.13,526.72L1233.39,524.16L1233.83,517.30L1235.76,514.19L1236.69,509.77L1238.43,508.11L1245.67,507.20L1252.44,510.07L1254.99,512.97L1258.43,513.10L1261.61,511.21L1269.81,515.19L1273.24,515.00L1277.19,511.72L1281.14,511.96L1283.08,510.88L1286.71,511.33L1291.96,513.57L1297.17,509.27L1298.76,509.58L1303.44,518.00L1304.69,517.83L1307.40,520.89L1306.68,522.28L1306.36,524.84L1300.74,530.79L1299.00,535.70L1298.09,539.70L1296.67,541.41L1295.35,546.80L1291.75,549.96L1290.73,553.86L1289.23,556.96L1288.61,560.15L1283.97,562.74L1280.15,559.58L1277.58,559.71L1273.57,564.21L1271.60,564.28L1268.41,571.70L1266.68,577.15L1259.65,579.92L1257.07,579.51L1254.46,581.23L1249.03,581.07L1245.39,576.26L1243.14,570.69L1238.33,565.62L1233.24,565.71L1227.25,565.71Z" fill="#1C1F3B" stroke="#FFFFFF" stroke-width="0.8" data-iso2="NG" data-name="Nigeria" /><path d="M1116.56,517.04L1119.82,517.12L1124.65,518.99L1126.14,518.82L1126.65,517.97L1130.33,518.58L1131.31,518.14L1131.67,520.96L1132.74,520.95L1134.51,519.92L1135.62,520.18L1137.48,522.13L1140.36,522.75L1142.23,521.08L1144.42,520.05L1146.05,518.98L1147.40,519.18L1148.89,520.87L1149.67,522.99L1152.42,526.21L1151.02,528.19L1150.74,530.70L1152.18,529.94L1153.02,530.84L1152.65,533.13L1154.70,535.34L1153.35,535.94L1152.79,538.55L1154.33,541.73L1155.97,547.89L1153.45,548.81L1152.80,549.88L1153.31,551.37L1152.90,554.72L1151.82,554.73L1149.91,554.53L1148.51,557.63L1146.59,557.59L1145.28,555.96L1145.75,552.87L1142.94,548.16L1141.17,549.02L1139.72,549.19L1137.86,549.63L1137.95,546.81L1136.88,544.80L1137.11,542.56L1135.67,539.33L1133.81,536.58L1128.40,536.57L1126.81,538.02L1124.94,538.20L1123.77,539.85L1122.98,541.99L1119.33,545.37L1116.40,540.82L1113.80,537.81L1112.08,536.81L1110.41,535.28L1109.68,531.88L1108.71,530.19L1106.76,528.93L1109.81,525.18L1111.86,525.32L1113.63,524.03L1115.12,524.02L1116.20,523.00L1115.66,520.45L1116.41,519.65L1116.56,517.04Z" fill="#1C1F3B" stroke="#FFFFFF" stroke-width="0.8" data-iso2="GN" data-name="Guinea" /></g></svg>