<svg xmlns="http://www.w3.org/2000/svg" viewBox="0 0 984 984">
  
  <path d="M 250,58 L 251,925 L 877,924 L 876,57 Z" fill="none" stroke="#1C1F3B" stroke-width="45" stroke-linejoin="round" stroke-linecap="round"/>
  <path d="M 396,733 L 659,734 L 658,780 L 397,780 Z" fill="none" stroke="#1C1F3B" stroke-width="45" stroke-linejoin="round" stroke-linecap="round"/>
  <path d="M 396,636 L 659,637 L 659,682 L 397,684 Z" fill="none" stroke="#1C1F3B" stroke-width="45" stroke-linejoin="round" stroke-linecap="round"/>
  <path d="M 300,203 L 392,203 L 434,213 L 482,241 L 509,268 L 525,292 L 572,241 L 623,212 L 662,203 L 755,204 L 755,401 L 749,422 L 726,451 L 696,465 L 564,467 L 563,561 L 517,563 L 515,467 L 363,466 L 331,453 L 309,429 L 299,399 Z" fill="none" stroke="#1C1F3B" stroke-width="45" stroke-linejoin="round" stroke-linecap="round"/>
  <path d="M 708,274 L 651,277 L 604,300 L 569,342 L 556,389 L 614,334 L 648,369 L 593,426 L 628,418 L 657,402 L 686,372 L 701,343 L 708,312 Z" fill="none" stroke="#1C1F3B" stroke-width="45" stroke-linejoin="round" stroke-linecap="round"/>
  <path d="M 347,274 L 347,312 L 353,340 L 369,372 L 393,398 L 427,418 L 463,425 L 407,368 L 441,334 L 499,389 L 485,340 L 451,300 L 408,278 Z" fill="none" stroke="#1C1F3B" stroke-width="45" stroke-linejoin="round" stroke-linecap="round"/>
  <path d="M 106,58 L 107,925 L 203,924 L 203,59 Z" fill="none" stroke="#1C1F3B" stroke-width="45" stroke-linejoin="round" stroke-linecap="round"/>
</svg>