<svg xmlns="http://www.w3.org/2000/svg" viewBox="0 0 984 984">
  
  <path d="M 59,584 L 57,891 L 148,891 L 149,585 Z" fill="none" stroke="#1A2B4A" stroke-width="45" stroke-linejoin="round" stroke-linecap="round"/>
  <path d="M 197,891 L 650,892 L 921,707 L 925,700 L 908,684 L 883,670 L 833,662 L 789,674 L 664,749 L 433,748 L 434,680 L 524,679 L 568,664 L 603,629 L 612,608 L 614,585 L 445,584 L 396,551 L 359,536 L 321,529 L 283,529 L 249,535 L 198,557 Z" fill="none" stroke="#1A2B4A" stroke-width="45" stroke-linejoin="round" stroke-linecap="round"/>
  <path d="M 315,92 L 315,284 L 328,318 L 350,339 L 376,349 L 503,351 L 502,445 L 443,461 L 390,495 L 429,515 L 461,539 L 644,540 L 640,617 L 627,651 L 609,678 L 632,679 L 734,607 L 733,597 L 706,531 L 665,481 L 608,444 L 553,429 L 553,327 L 695,350 L 726,340 L 746,323 L 757,305 L 763,282 L 762,91 L 671,91 L 626,102 L 578,131 L 539,178 L 497,129 L 449,101 L 407,91 Z" fill="none" stroke="#1A2B4A" stroke-width="45" stroke-linejoin="round" stroke-linecap="round"/>
</svg>