<svg xmlns="http://www.w3.org/2000/svg" viewBox="0 0 984 984">
  
  <path d="M 238,708 L 239,925 L 745,922 L 744,708 Z" fill="none" stroke="#1A2B4A" stroke-width="45" stroke-linejoin="round" stroke-linecap="round"/>
  <path d="M 456,780 L 549,780 L 551,825 L 455,826 Z" fill="none" stroke="#1A2B4A" stroke-width="45" stroke-linejoin="round" stroke-linecap="round"/>
  <path d="M 238,204 L 239,662 L 744,661 L 744,204 Z" fill="none" stroke="#1A2B4A" stroke-width="45" stroke-linejoin="round" stroke-linecap="round"/>
  <path d="M 422,540 L 486,476 L 518,508 L 514,517 L 645,517 L 647,562 L 514,564 L 518,573 L 485,604 Z" fill="none" stroke="#1A2B4A" stroke-width="45" stroke-linejoin="round" stroke-linecap="round"/>
  <path d="M 460,336 L 483,430 L 438,442 L 432,433 L 361,551 L 320,530 L 318,525 L 389,409 L 379,407 L 368,361 Z" fill="none" stroke="#1A2B4A" stroke-width="45" stroke-linejoin="round" stroke-linecap="round"/>
  <path d="M 515,276 L 586,394 L 597,388 L 639,400 L 615,492 L 524,469 L 534,423 L 543,420 L 473,301 Z" fill="none" stroke="#1A2B4A" stroke-width="45" stroke-linejoin="round" stroke-linecap="round"/>
  <path d="M 238,58 L 238,153 L 745,151 L 744,58 Z" fill="none" stroke="#1A2B4A" stroke-width="45" stroke-linejoin="round" stroke-linecap="round"/>
</svg>