<svg xmlns="http://www.w3.org/2000/svg" viewBox="0 0 984 984">
  
  <path d="M 741,535 L 697,562 L 833,783 L 555,783 L 585,751 L 547,717 L 456,809 L 547,903 L 585,868 L 555,837 L 921,835 Z" fill="none" stroke="white" stroke-width="45" stroke-linejoin="round" stroke-linecap="round"/>
  <path d="M 318,455 L 190,488 L 203,537 L 244,529 L 62,835 L 415,833 L 414,783 L 150,782 L 290,552 L 303,595 L 352,582 Z" fill="none" stroke="white" stroke-width="45" stroke-linejoin="round" stroke-linecap="round"/>
  <path d="M 515,341 L 409,550 L 464,608 L 467,751 L 570,544 L 515,484 Z" fill="none" stroke="white" stroke-width="45" stroke-linejoin="round" stroke-linecap="round"/>
  <path d="M 478,82 L 302,390 L 348,416 L 484,182 L 623,421 L 622,424 L 579,414 L 567,464 L 698,500 L 735,366 L 683,354 L 670,397 L 483,80 Z" fill="none" stroke="white" stroke-width="45" stroke-linejoin="round" stroke-linecap="round"/>
</svg>