<svg xmlns="http://www.w3.org/2000/svg" viewBox="0 0 984 984">
  
  <path d="M 161,569 L 68,666 L 57,699 L 63,737 L 73,754 L 227,908 L 264,923 L 304,918 L 327,903 L 407,818 L 408,724 L 254,570 Z" fill="none" stroke="white" stroke-width="45" stroke-linejoin="round" stroke-linecap="round"/>
  <path d="M 332,398 L 280,451 L 288,512 L 467,691 L 529,698 L 582,645 L 573,583 L 395,405 Z" fill="none" stroke="white" stroke-width="45" stroke-linejoin="round" stroke-linecap="round"/>
  <path d="M 499,236 L 423,308 L 431,371 L 609,548 L 671,557 L 747,482 Z" fill="none" stroke="white" stroke-width="45" stroke-linejoin="round" stroke-linecap="round"/>
  <path d="M 544,209 L 774,441 L 797,321 L 662,186 Z" fill="none" stroke="white" stroke-width="45" stroke-linejoin="round" stroke-linecap="round"/>
  <path d="M 746,60 L 677,131 L 854,307 L 925,235 Z" fill="none" stroke="white" stroke-width="45" stroke-linejoin="round" stroke-linecap="round"/>
</svg>