<svg xmlns="http://www.w3.org/2000/svg" viewBox="0 0 984 984">
  
  <path d="M 124,768 L 98,777 L 75,797 L 63,820 L 60,855 L 69,881 L 90,905 L 117,918 L 145,920 L 173,911 L 195,893 L 210,864 L 212,834 L 202,805 L 184,784 L 157,770 Z" fill="none" stroke="#80C8C3" stroke-width="45" stroke-linejoin="round" stroke-linecap="round"/>
  <path d="M 491,63 L 441,63 L 395,72 L 345,93 L 302,123 L 261,168 L 229,230 L 165,264 L 109,318 L 78,371 L 59,443 L 59,505 L 71,572 L 97,636 L 123,675 L 150,704 L 186,732 L 225,753 L 267,767 L 291,815 L 326,850 L 362,869 L 395,877 L 451,874 L 495,856 L 532,825 L 560,777 L 657,777 L 703,771 L 756,754 L 807,725 L 851,685 L 885,637 L 910,578 L 923,515 L 925,456 L 916,402 L 892,345 L 860,301 L 829,272 L 789,246 L 742,227 L 701,219 L 658,151 L 631,124 L 597,99 L 554,78 Z" fill="none" stroke="#80C8C3" stroke-width="45" stroke-linejoin="round" stroke-linecap="round"/>
  <path d="M 613,368 L 756,369 L 756,501 L 661,549 L 661,560 L 756,561 L 754,607 L 612,606 L 612,517 L 708,466 L 708,415 L 660,416 L 658,463 L 612,462 Z" fill="none" stroke="#80C8C3" stroke-width="45" stroke-linejoin="round" stroke-linecap="round"/>
  <path d="M 228,368 L 371,369 L 370,463 L 325,463 L 322,415 L 274,416 L 275,560 L 323,559 L 324,512 L 371,513 L 370,607 L 227,605 Z" fill="none" stroke="#80C8C3" stroke-width="45" stroke-linejoin="round" stroke-linecap="round"/>
  <path d="M 421,344 L 563,345 L 562,607 L 420,606 Z" fill="none" stroke="#80C8C3" stroke-width="45" stroke-linejoin="round" stroke-linecap="round"/>
  <path d="M 466,415 L 467,559 L 515,558 L 514,414 Z" fill="none" stroke="#80C8C3" stroke-width="45" stroke-linejoin="round" stroke-linecap="round"/>
</svg>