<svg xmlns="http://www.w3.org/2000/svg" viewBox="0 0 984 984">
  
  <path d="M 765,692 L 749,697 L 733,710 L 724,727 L 722,747 L 730,770 L 741,782 L 761,792 L 780,793 L 799,786 L 814,772 L 822,754 L 823,736 L 816,716 L 806,704 L 785,693 Z" fill="none" stroke="#80C8C3" stroke-width="45" stroke-linejoin="round" stroke-linecap="round"/>
  <path d="M 218,733 L 219,755 L 229,775 L 244,787 L 261,793 L 280,792 L 299,783 L 318,753 L 327,772 L 344,787 L 361,793 L 380,792 L 409,773 L 419,746 L 417,728 L 409,712 L 395,699 L 376,692 L 352,694 L 337,702 L 325,715 L 318,732 L 308,711 L 293,698 L 275,692 L 252,694 L 230,708 Z" fill="none" stroke="#80C8C3" stroke-width="45" stroke-linejoin="round" stroke-linecap="round"/>
  <path d="M 780,335 L 781,480 L 912,480 L 818,335 Z" fill="none" stroke="#80C8C3" stroke-width="45" stroke-linejoin="round" stroke-linecap="round"/>
  <path d="M 636,334 L 636,743 L 684,743 L 691,706 L 711,675 L 731,659 L 769,646 L 807,649 L 842,668 L 869,705 L 876,743 L 924,743 L 925,551 L 733,548 L 733,335 Z" fill="none" stroke="#80C8C3" stroke-width="45" stroke-linejoin="round" stroke-linecap="round"/>
  <path d="M 167,190 L 57,457 L 58,744 L 160,743 L 168,704 L 188,674 L 221,651 L 255,643 L 289,647 L 310,657 L 347,644 L 387,646 L 415,658 L 440,680 L 457,710 L 463,744 L 563,744 L 563,189 Z" fill="none" stroke="#80C8C3" stroke-width="45" stroke-linejoin="round" stroke-linecap="round"/>
  <path d="M 266,526 L 330,463 L 362,496 L 357,502 L 490,504 L 491,548 L 358,551 L 362,558 L 329,590 Z" fill="none" stroke="#80C8C3" stroke-width="45" stroke-linejoin="round" stroke-linecap="round"/>
  <path d="M 312,313 L 335,406 L 292,417 L 286,408 L 215,525 L 175,505 L 177,492 L 242,384 L 232,381 L 221,337 Z" fill="none" stroke="#80C8C3" stroke-width="45" stroke-linejoin="round" stroke-linecap="round"/>
  <path d="M 366,253 L 437,371 L 447,364 L 490,375 L 466,467 L 377,445 L 385,400 L 395,396 L 325,279 Z" fill="none" stroke="#80C8C3" stroke-width="45" stroke-linejoin="round" stroke-linecap="round"/>
</svg>