<svg xmlns="http://www.w3.org/2000/svg" viewBox="0 0 984 984">
  
  <path d="M 693,633 L 924,633 L 923,562 L 756,562 Z" fill="none" stroke="#1A2B4A" stroke-width="45" stroke-linejoin="round" stroke-linecap="round"/>
  <path d="M 58,634 L 59,851 L 223,851 L 318,899 L 781,898 L 780,826 L 492,825 L 493,755 L 877,754 L 876,682 L 611,682 L 585,698 L 500,633 L 455,587 L 422,544 L 360,598 L 330,614 L 287,628 L 250,633 Z" fill="none" stroke="#1A2B4A" stroke-width="45" stroke-linejoin="round" stroke-linecap="round"/>
  <path d="M 450,490 L 462,516 L 491,556 L 534,603 L 564,627 L 563,489 Z" fill="none" stroke="#1A2B4A" stroke-width="45" stroke-linejoin="round" stroke-linecap="round"/>
  <path d="M 815,443 L 788,514 L 876,513 L 875,442 Z" fill="none" stroke="#1A2B4A" stroke-width="45" stroke-linejoin="round" stroke-linecap="round"/>
  <path d="M 611,346 L 329,346 L 228,394 L 58,395 L 58,586 L 244,588 L 284,582 L 331,562 L 368,532 L 394,496 L 413,443 L 610,443 Z" fill="none" stroke="#1A2B4A" stroke-width="45" stroke-linejoin="round" stroke-linecap="round"/>
  <path d="M 613,117 L 613,297 L 660,298 L 659,489 L 612,490 L 612,621 L 662,576 L 713,510 L 743,450 L 758,379 L 751,314 L 723,245 L 676,178 Z" fill="none" stroke="#1A2B4A" stroke-width="45" stroke-linejoin="round" stroke-linecap="round"/>
  <path d="M 562,84 L 523,119 L 474,177 L 441,231 L 426,274 L 563,273 Z" fill="none" stroke="#1A2B4A" stroke-width="45" stroke-linejoin="round" stroke-linecap="round"/>
</svg>