<svg xmlns="http://www.w3.org/2000/svg" viewBox="0 0 984 984">
  
  <path d="M 923,466 L 779,467 L 778,516 L 768,571 L 746,626 L 719,668 L 679,710 L 638,739 L 581,763 L 539,771 L 466,768 L 429,758 L 391,741 L 370,727 L 413,691 L 147,550 L 177,850 L 182,867 L 246,821 L 302,864 L 362,895 L 429,916 L 495,925 L 547,924 L 594,917 L 646,902 L 703,876 L 756,841 L 811,790 L 843,750 L 871,705 L 899,642 L 915,585 L 924,517 Z" fill="none" stroke="#1A2B4A" stroke-width="45" stroke-linejoin="round" stroke-linecap="round"/>
  <path d="M 801,113 L 735,160 L 679,117 L 621,87 L 563,68 L 486,57 L 435,58 L 381,66 L 327,82 L 278,104 L 197,161 L 152,209 L 111,271 L 83,334 L 68,387 L 59,447 L 59,515 L 203,514 L 204,459 L 214,408 L 236,354 L 261,315 L 297,276 L 344,242 L 395,220 L 446,210 L 521,215 L 595,243 L 611,256 L 568,290 L 835,432 Z" fill="none" stroke="#1A2B4A" stroke-width="45" stroke-linejoin="round" stroke-linecap="round"/>
</svg>