<svg xmlns="http://www.w3.org/2000/svg" viewBox="0 0 984 984">
  
  <path d="M 154,300 L 99,925 L 884,924 L 827,299 L 715,297 L 713,202 L 619,202 L 616,298 L 353,297 L 352,202 L 258,202 L 255,298 Z" fill="none" stroke="#80C7C2" stroke-width="45" stroke-linejoin="round" stroke-linecap="round"/>
  <path d="M 463,731 L 551,644 L 583,677 L 555,709 L 634,708 L 613,674 L 651,648 L 719,756 L 554,756 L 583,788 L 550,820 Z" fill="none" stroke="#80C7C2" stroke-width="45" stroke-linejoin="round" stroke-linecap="round"/>
  <path d="M 430,551 L 458,673 L 412,681 L 401,641 L 361,705 L 362,709 L 424,710 L 423,756 L 277,756 L 361,617 L 319,622 L 311,577 Z" fill="none" stroke="#80C7C2" stroke-width="45" stroke-linejoin="round" stroke-linecap="round"/>
  <path d="M 490,399 L 581,538 L 592,495 L 639,506 L 610,633 L 484,604 L 495,558 L 537,563 L 491,491 L 463,530 L 425,506 L 427,496 Z" fill="none" stroke="#80C7C2" stroke-width="45" stroke-linejoin="round" stroke-linecap="round"/>
  <path d="M 274,153 L 707,152 L 610,57 L 370,57 Z" fill="none" stroke="#80C7C2" stroke-width="45" stroke-linejoin="round" stroke-linecap="round"/>
</svg>