<svg xmlns="http://www.w3.org/2000/svg" viewBox="0 0 984 984">
  
  <path d="M 650,828 L 671,891 L 672,925 L 913,924 L 913,899 L 883,828 Z" fill="none" stroke="#80C7C2" stroke-width="45" stroke-linejoin="round" stroke-linecap="round"/>
  <path d="M 69,890 L 70,925 L 625,923 L 625,900 L 594,828 L 99,828 Z" fill="none" stroke="#80C7C2" stroke-width="45" stroke-linejoin="round" stroke-linecap="round"/>
  <path d="M 564,564 L 583,672 L 603,745 L 618,781 L 875,780 L 838,671 L 822,563 Z" fill="none" stroke="#80C7C2" stroke-width="45" stroke-linejoin="round" stroke-linecap="round"/>
  <path d="M 150,468 L 146,544 L 135,626 L 96,780 L 574,779 L 554,715 L 534,623 L 518,467 Z" fill="none" stroke="#80C7C2" stroke-width="45" stroke-linejoin="round" stroke-linecap="round"/>
  <path d="M 575,420 L 579,515 L 816,514 L 815,419 Z" fill="none" stroke="#80C7C2" stroke-width="45" stroke-linejoin="round" stroke-linecap="round"/>
  <path d="M 164,324 L 165,419 L 526,418 L 525,322 Z" fill="none" stroke="#80C7C2" stroke-width="45" stroke-linejoin="round" stroke-linecap="round"/>
  <path d="M 865,179 L 733,179 L 705,186 L 675,202 L 650,226 L 631,259 L 623,292 L 623,353 L 742,251 L 774,286 L 677,372 L 760,371 L 787,363 L 812,349 L 844,316 L 861,279 L 865,258 Z" fill="none" stroke="#80C7C2" stroke-width="45" stroke-linejoin="round" stroke-linecap="round"/>
  <path d="M 526,58 L 380,57 L 348,63 L 320,76 L 290,102 L 269,137 L 261,168 L 261,232 L 394,129 L 424,165 L 321,251 L 417,250 L 468,231 L 499,203 L 519,167 L 526,135 Z" fill="none" stroke="#80C7C2" stroke-width="45" stroke-linejoin="round" stroke-linecap="round"/>
</svg>