<svg xmlns="http://www.w3.org/2000/svg" viewBox="0 0 984 984">
  
  <path d="M 190,202 L 191,925 L 841,924 L 840,420 L 626,201 Z" fill="none" stroke="#80C8C3" stroke-width="45" stroke-linejoin="round" stroke-linecap="round"/>
  <path d="M 471,479 L 558,629 L 572,668 L 568,711 L 550,744 L 522,768 L 477,782 L 434,775 L 402,755 L 377,720 L 369,687 L 376,644 Z" fill="none" stroke="#80C8C3" stroke-width="45" stroke-linejoin="round" stroke-linecap="round"/>
  <path d="M 471,581 L 420,671 L 420,690 L 428,710 L 442,724 L 462,732 L 484,731 L 501,723 L 516,706 L 522,687 L 520,666 Z" fill="none" stroke="#80C8C3" stroke-width="45" stroke-linejoin="round" stroke-linecap="round"/>
  <path d="M 576,322 L 728,472 L 657,543 L 506,391 Z" fill="none" stroke="#80C8C3" stroke-width="45" stroke-linejoin="round" stroke-linecap="round"/>
  <path d="M 141,58 L 141,106 L 189,108 L 191,155 L 453,155 L 456,107 L 503,106 L 502,57 Z" fill="none" stroke="#80C8C3" stroke-width="45" stroke-linejoin="round" stroke-linecap="round"/>
</svg>