<svg xmlns="http://www.w3.org/2000/svg" viewBox="0 0 984 984">
  
  <path d="M 170,716 L 170,763 L 176,796 L 191,833 L 209,860 L 236,887 L 271,909 L 309,922 L 342,926 L 644,926 L 700,915 L 745,889 L 779,853 L 801,812 L 814,754 L 813,721 L 780,713 L 759,732 L 731,747 L 683,754 L 634,739 L 591,703 L 565,729 L 542,743 L 512,752 L 483,753 L 433,737 L 393,703 L 354,740 L 332,751 L 306,757 L 277,756 L 253,749 L 228,734 L 205,712 Z" fill="none" stroke="#80C8C3" stroke-width="45" stroke-linejoin="round" stroke-linecap="round"/>
  <path d="M 241,461 L 268,528 L 272,588 L 265,627 L 240,686 L 274,712 L 310,716 L 337,706 L 400,645 L 458,702 L 490,716 L 511,716 L 535,708 L 602,645 L 656,699 L 683,714 L 713,716 L 728,712 L 761,686 L 735,629 L 727,583 L 733,520 L 760,458 L 727,434 L 693,430 L 669,438 L 603,501 L 545,445 L 510,430 L 486,431 L 464,440 L 400,502 L 341,443 L 318,432 L 277,433 L 256,445 Z" fill="none" stroke="#80C8C3" stroke-width="45" stroke-linejoin="round" stroke-linecap="round"/>
  <path d="M 530,543 L 575,545 L 574,590 L 529,589 Z" fill="none" stroke="#80C8C3" stroke-width="45" stroke-linejoin="round" stroke-linecap="round"/>
  <path d="M 434,543 L 479,545 L 478,590 L 433,589 Z" fill="none" stroke="#80C8C3" stroke-width="45" stroke-linejoin="round" stroke-linecap="round"/>
  <path d="M 169,378 L 170,421 L 206,420 L 233,395 L 262,381 L 337,377 L 346,381 L 395,430 L 478,342 L 494,337 L 508,343 L 590,430 L 636,391 L 679,377 L 709,378 L 733,385 L 779,418 L 814,415 L 813,239 L 798,215 L 779,208 L 535,207 L 531,172 L 521,144 L 500,111 L 481,92 L 437,66 L 407,58 L 383,58 L 383,106 L 424,116 L 458,141 L 478,174 L 483,208 L 315,208 L 269,225 L 229,253 L 198,290 L 176,339 Z" fill="none" stroke="#80C8C3" stroke-width="45" stroke-linejoin="round" stroke-linecap="round"/>
</svg>