<svg xmlns="http://www.w3.org/2000/svg" viewBox="0 0 984 984">
  
  <path d="M 252,829 L 270,925 L 693,925 L 711,828 Z" fill="none" stroke="#1A2B4A" stroke-width="45" stroke-linejoin="round" stroke-linecap="round"/>
  <path d="M 626,685 L 617,779 L 733,778 L 749,683 Z" fill="none" stroke="#1A2B4A" stroke-width="45" stroke-linejoin="round" stroke-linecap="round"/>
  <path d="M 514,684 L 515,779 L 565,779 L 574,683 Z" fill="none" stroke="#1A2B4A" stroke-width="45" stroke-linejoin="round" stroke-linecap="round"/>
  <path d="M 405,684 L 415,779 L 466,778 L 465,683 Z" fill="none" stroke="#1A2B4A" stroke-width="45" stroke-linejoin="round" stroke-linecap="round"/>
  <path d="M 216,684 L 234,779 L 349,778 L 339,684 Z" fill="none" stroke="#1A2B4A" stroke-width="45" stroke-linejoin="round" stroke-linecap="round"/>
  <path d="M 644,516 L 635,612 L 760,611 L 777,515 Z" fill="none" stroke="#1A2B4A" stroke-width="45" stroke-linejoin="round" stroke-linecap="round"/>
  <path d="M 514,516 L 515,612 L 581,611 L 591,515 Z" fill="none" stroke="#1A2B4A" stroke-width="45" stroke-linejoin="round" stroke-linecap="round"/>
  <path d="M 389,516 L 399,610 L 466,612 L 466,515 Z" fill="none" stroke="#1A2B4A" stroke-width="45" stroke-linejoin="round" stroke-linecap="round"/>
  <path d="M 188,516 L 205,611 L 331,611 L 320,515 Z" fill="none" stroke="#1A2B4A" stroke-width="45" stroke-linejoin="round" stroke-linecap="round"/>
  <path d="M 660,372 L 651,466 L 787,466 L 803,370 Z" fill="none" stroke="#1A2B4A" stroke-width="45" stroke-linejoin="round" stroke-linecap="round"/>
  <path d="M 515,371 L 515,466 L 598,466 L 608,370 Z" fill="none" stroke="#1A2B4A" stroke-width="45" stroke-linejoin="round" stroke-linecap="round"/>
  <path d="M 373,371 L 384,466 L 467,465 L 467,372 Z" fill="none" stroke="#1A2B4A" stroke-width="45" stroke-linejoin="round" stroke-linecap="round"/>
  <path d="M 160,371 L 177,466 L 313,466 L 302,370 Z" fill="none" stroke="#1A2B4A" stroke-width="45" stroke-linejoin="round" stroke-linecap="round"/>
  <path d="M 106,227 L 107,323 L 877,321 L 875,226 Z" fill="none" stroke="#1A2B4A" stroke-width="45" stroke-linejoin="round" stroke-linecap="round"/>
  <path d="M 481,153 L 688,151 L 596,58 L 575,57 Z" fill="none" stroke="#1A2B4A" stroke-width="45" stroke-linejoin="round" stroke-linecap="round"/>
  <path d="M 440,108 L 389,58 L 369,57 L 275,153 L 397,153 Z" fill="none" stroke="#1A2B4A" stroke-width="45" stroke-linejoin="round" stroke-linecap="round"/>
</svg>