<svg xmlns="http://www.w3.org/2000/svg" viewBox="0 0 984 984">
  
  <path d="M 187,420 L 237,924 L 734,923 L 782,419 Z" fill="none" stroke="#1A2B4A" stroke-width="45" stroke-linejoin="round" stroke-linecap="round"/>
  <path d="M 410,708 L 474,644 L 506,675 L 503,685 L 635,686 L 634,731 L 503,731 L 506,740 L 474,771 Z" fill="none" stroke="#1A2B4A" stroke-width="45" stroke-linejoin="round" stroke-linecap="round"/>
  <path d="M 454,514 L 477,605 L 429,617 L 427,609 L 356,725 L 348,726 L 314,706 L 313,699 L 383,583 L 372,582 L 363,535 Z" fill="none" stroke="#1A2B4A" stroke-width="45" stroke-linejoin="round" stroke-linecap="round"/>
  <path d="M 469,475 L 507,453 L 579,571 L 588,564 L 631,578 L 608,668 L 517,646 L 526,601 L 536,596 L 466,480 Z" fill="none" stroke="#1A2B4A" stroke-width="45" stroke-linejoin="round" stroke-linecap="round"/>
  <path d="M 131,274 L 133,371 L 852,368 L 851,274 Z" fill="none" stroke="#1A2B4A" stroke-width="45" stroke-linejoin="round" stroke-linecap="round"/>
  <path d="M 196,201 L 737,203 L 738,196 L 702,58 L 635,59 L 633,154 L 324,153 L 322,58 L 231,59 Z" fill="none" stroke="#1A2B4A" stroke-width="45" stroke-linejoin="round" stroke-linecap="round"/>
  <path d="M 396,58 L 397,106 L 590,104 L 588,57 Z" fill="none" stroke="#1A2B4A" stroke-width="45" stroke-linejoin="round" stroke-linecap="round"/>
</svg>