<svg xmlns="http://www.w3.org/2000/svg" viewBox="0 0 984 984">
  
  <path d="M 725,138 L 705,124 L 674,112 L 615,112 L 593,119 L 563,137 L 543,157 L 527,183 L 517,216 L 517,257 L 530,296 L 554,326 L 589,291 L 572,264 L 567,231 L 577,199 L 601,173 L 631,161 L 666,164 L 690,177 L 706,194 L 715,212 L 719,234 L 717,263 L 697,322 L 656,372 L 611,400 L 553,414 L 57,415 L 58,463 L 105,464 L 104,823 L 57,824 L 59,873 L 925,872 L 924,823 L 876,822 L 877,463 L 925,462 L 924,414 L 687,413 L 718,382 L 742,347 L 762,299 L 769,265 L 770,225 L 763,194 L 748,164 Z" fill="none" stroke="#1A2B4A" stroke-width="45" stroke-linejoin="round" stroke-linecap="round"/>
  <path d="M 250,642 L 286,596 L 325,558 L 361,533 L 398,517 L 450,511 L 496,522 L 545,550 L 603,603 L 694,511 L 731,512 L 730,775 L 695,775 L 603,683 L 550,732 L 496,764 L 449,775 L 398,769 L 361,753 L 318,722 L 279,682 Z" fill="none" stroke="#1A2B4A" stroke-width="45" stroke-linejoin="round" stroke-linecap="round"/>
  <path d="M 683,594 L 643,635 L 684,673 Z" fill="none" stroke="#1A2B4A" stroke-width="45" stroke-linejoin="round" stroke-linecap="round"/>
  <path d="M 389,575 L 350,605 L 325,635 L 359,671 L 391,693 L 415,663 L 421,628 L 411,597 Z" fill="none" stroke="#1A2B4A" stroke-width="45" stroke-linejoin="round" stroke-linecap="round"/>
  <path d="M 452,557 L 445,560 L 466,602 L 470,646 L 462,677 L 446,710 L 472,706 L 504,691 L 533,669 L 564,637 L 561,626 L 515,583 L 481,564 Z" fill="none" stroke="#1A2B4A" stroke-width="45" stroke-linejoin="round" stroke-linecap="round"/>
</svg>