<svg xmlns="http://www.w3.org/2000/svg" viewBox="0 0 984 984">
  
  <path d="M 433,96 L 433,175 L 449,216 L 466,232 L 491,242 L 518,241 L 545,228 L 562,209 L 571,188 L 572,95 Z" fill="none" stroke="#1C1F3B" stroke-width="45" stroke-linejoin="round" stroke-linecap="round"/>
  <path d="M 224,73 L 184,113 L 153,152 L 101,241 L 67,341 L 55,426 L 56,468 L 223,469 L 224,909 L 758,908 L 759,468 L 927,467 L 923,391 L 908,319 L 878,240 L 841,174 L 798,116 L 757,73 L 618,73 L 616,165 L 608,193 L 595,217 L 571,243 L 545,259 L 508,269 L 472,269 L 440,260 L 415,246 L 379,206 L 364,158 L 363,73 Z" fill="none" stroke="#1C1F3B" stroke-width="45" stroke-linejoin="round" stroke-linecap="round"/>
  <path d="M 425,653 L 486,592 L 518,623 L 513,631 L 639,631 L 641,674 L 513,676 L 517,684 L 485,714 Z" fill="none" stroke="#1C1F3B" stroke-width="45" stroke-linejoin="round" stroke-linecap="round"/>
  <path d="M 463,450 L 486,540 L 444,551 L 436,543 L 366,658 L 327,632 L 394,517 L 385,516 L 375,473 Z" fill="none" stroke="#1C1F3B" stroke-width="45" stroke-linejoin="round" stroke-linecap="round"/>
  <path d="M 514,392 L 585,506 L 593,499 L 635,510 L 615,596 L 611,599 L 526,578 L 534,535 L 544,531 L 476,418 Z" fill="none" stroke="#1C1F3B" stroke-width="45" stroke-linejoin="round" stroke-linecap="round"/>
</svg>