<svg xmlns="http://www.w3.org/2000/svg" viewBox="0 0 984 984">
  
  <path d="M 262,702 L 263,925 L 720,924 L 720,700 L 689,679 L 657,671 L 622,673 L 595,682 L 545,709 L 508,717 L 476,717 L 446,711 L 384,679 L 351,671 L 302,677 Z" fill="none" stroke="#80C8C3" stroke-width="45" stroke-linejoin="round" stroke-linecap="round"/>
  <path d="M 502,372 L 502,674 L 520,670 L 567,643 L 607,632 L 654,634 L 694,649 L 688,605 L 668,556 L 639,516 L 599,481 L 599,422 L 671,419 L 671,371 Z" fill="none" stroke="#80C8C3" stroke-width="45" stroke-linejoin="round" stroke-linecap="round"/>
  <path d="M 310,371 L 311,419 L 358,420 L 358,479 L 320,510 L 290,550 L 270,598 L 263,646 L 307,630 L 356,629 L 395,640 L 428,660 L 455,670 L 454,370 Z" fill="none" stroke="#80C8C3" stroke-width="45" stroke-linejoin="round" stroke-linecap="round"/>
  <path d="M 262,58 L 262,233 L 278,270 L 308,293 L 332,299 L 454,300 L 454,346 L 502,348 L 505,299 L 662,297 L 691,283 L 714,254 L 720,234 L 719,57 L 623,58 L 580,68 L 530,96 L 491,139 L 452,96 L 402,68 L 347,57 Z" fill="none" stroke="#80C8C3" stroke-width="45" stroke-linejoin="round" stroke-linecap="round"/>
</svg>