<svg xmlns="http://www.w3.org/2000/svg" viewBox="0 0 984 984">
  
  <path d="M 498,57 L 441,228 L 524,309 L 533,290 L 485,240 L 546,61 L 545,57 Z" fill="none" stroke="#1A2B4A" stroke-width="45" stroke-linejoin="round" stroke-linecap="round"/>
  <path d="M 317,57 L 227,383 L 220,436 L 223,489 L 246,567 L 269,608 L 298,644 L 323,667 L 364,694 L 411,713 L 454,722 L 453,876 L 310,877 L 311,925 L 670,925 L 671,876 L 528,875 L 529,721 L 568,714 L 602,702 L 639,682 L 670,658 L 704,621 L 725,589 L 744,548 L 757,501 L 761,425 L 756,390 L 667,60 L 583,59 L 531,231 L 579,283 L 481,491 L 480,350 L 380,243 L 438,59 Z" fill="none" stroke="#1A2B4A" stroke-width="45" stroke-linejoin="round" stroke-linecap="round"/>
</svg>