<svg xmlns="http://www.w3.org/2000/svg" viewBox="0 0 496 496">
  <path d="M 242,8 L 173,67 L 140,105 L 107,154 L 90,189 L 77,229 L 72,259 L 72,298 L 79,332 L 92,363 L 110,390 L 137,417 L 164,435 L 195,448 L 229,455 L 266,455 L 300,448 L 331,435 L 358,417 L 385,390 L 403,363 L 416,332 L 423,298 L 423,260 L 417,225 L 405,189 L 367,121 L 334,80 L 295,41 L 255,9 Z" fill="none" stroke="#1C1F3B" stroke-width="28" stroke-linejoin="round" stroke-linecap="round"></path>
  <path d="M 248,44 L 312,104 L 360,170 L 386,233 L 391,261 L 391,296 L 375,347 L 358,372 L 340,390 L 297,415 L 246,424 L 219,421 L 186,410 L 160,394 L 137,372 L 112,329 L 103,278 L 113,219 L 139,163 L 183,104 Z" fill="none" stroke="#1C1F3B" stroke-width="28" stroke-linejoin="round" stroke-linecap="round"></path>
  <path d="M 353,282 L 338,280 L 330,286 L 319,318 L 299,342 L 250,366 L 248,381 L 253,388 L 270,391 L 292,384 L 313,372 L 333,354 L 347,334 L 357,310 L 359,290 Z" fill="none" stroke="#1C1F3B" stroke-width="28" stroke-linejoin="round" stroke-linecap="round"></path>
</svg>