<svg xmlns="http://www.w3.org/2000/svg" viewBox="0 0 496 496">
  <path d="M 440,53 L 385,41 L 322,40 L 264,50 L 210,73 L 163,112 L 134,155 L 111,222 L 103,285 L 0,329 L 1,358 L 107,389 L 137,495 L 166,495 L 210,392 L 277,383 L 327,367 L 377,337 L 412,300 L 438,252 L 454,184 L 454,111 L 448,72 Z" fill="none" stroke="#1A2B4A" stroke-width="28" stroke-linejoin="round" stroke-linecap="round"/>
  <path d="M 158,182 L 171,205 L 194,228 L 218,241 L 246,247 L 254,277 L 267,301 L 290,324 L 313,337 L 258,354 L 192,361 L 185,368 L 155,438 L 133,366 L 125,360 L 57,340 L 127,310 L 134,303 L 141,237 Z" fill="none" stroke="#1A2B4A" stroke-width="28" stroke-linejoin="round" stroke-linecap="round"/>
  <path d="M 226,101 L 272,81 L 312,73 L 372,72 L 417,80 L 423,123 L 423,172 L 414,223 L 392,272 L 357,311 L 340,311 L 321,305 L 294,283 L 282,259 L 280,228 L 274,218 L 225,209 L 195,183 L 185,159 L 184,138 Z" fill="none" stroke="#1A2B4A" stroke-width="28" stroke-linejoin="round" stroke-linecap="round"/>
  <path d="M 297,120 L 282,132 L 280,150 L 292,165 L 310,167 L 325,155 L 327,137 L 315,122 Z" fill="none" stroke="#1A2B4A" stroke-width="28" stroke-linejoin="round" stroke-linecap="round"/>
</svg>