<svg xmlns="http://www.w3.org/2000/svg" viewBox="0 0 496 496">
  <path d="M 433,60 L 421,56 L 352,56 L 298,62 L 253,72 L 181,101 L 145,125 L 123,145 L 94,184 L 76,229 L 71,268 L 73,298 L 84,341 L 99,373 L 58,414 L 56,429 L 62,437 L 81,437 L 122,396 L 154,411 L 197,422 L 243,423 L 266,419 L 311,401 L 356,366 L 394,314 L 423,242 L 434,190 L 439,142 L 439,74 Z" fill="none" stroke="white" stroke-width="28" stroke-linejoin="round" stroke-linecap="round"></path>
  <path d="M 407,89 L 405,166 L 390,241 L 361,307 L 323,353 L 279,381 L 241,391 L 189,388 L 147,371 L 324,194 L 327,178 L 317,168 L 302,170 L 123,348 L 105,295 L 105,247 L 123,198 L 157,157 L 195,130 L 261,103 L 340,89 Z" fill="none" stroke="white" stroke-width="28" stroke-linejoin="round" stroke-linecap="round"></path>
</svg>