<svg xmlns="http://www.w3.org/2000/svg" viewBox="0 0 496 496">
  <path d="M 227,40 L 187,48 L 145,66 L 112,89 L 89,112 L 66,145 L 48,187 L 40,227 L 40,268 L 48,308 L 66,350 L 89,383 L 112,406 L 145,429 L 187,447 L 228,455 L 267,455 L 308,447 L 350,429 L 384,405 L 410,378 L 429,350 L 447,308 L 455,267 L 455,228 L 446,184 L 430,147 L 405,111 L 378,85 L 350,66 L 308,48 L 267,40 Z" fill="none" stroke="#80C7C2" stroke-width="28" stroke-linejoin="round" stroke-linecap="round"/>
  <path d="M 401,327 L 401,334 L 390,351 L 360,383 L 318,409 L 290,416 L 311,384 L 335,327 Z" fill="none" stroke="#80C7C2" stroke-width="28" stroke-linejoin="round" stroke-linecap="round"/>
  <path d="M 297,327 L 296,339 L 282,370 L 247,417 L 217,377 L 196,329 Z" fill="none" stroke="#80C7C2" stroke-width="28" stroke-linejoin="round" stroke-linecap="round"/>
  <path d="M 92,329 L 160,327 L 177,370 L 202,417 L 177,409 L 140,387 L 112,360 Z" fill="none" stroke="#80C7C2" stroke-width="28" stroke-linejoin="round" stroke-linecap="round"/>
  <path d="M 342,199 L 417,201 L 423,229 L 423,266 L 415,296 L 340,294 L 343,272 Z" fill="none" stroke="#80C7C2" stroke-width="28" stroke-linejoin="round" stroke-linecap="round"/>
  <path d="M 188,200 L 306,199 L 312,241 L 308,294 L 188,295 L 184,270 L 184,225 Z" fill="none" stroke="#80C7C2" stroke-width="28" stroke-linejoin="round" stroke-linecap="round"/>
  <path d="M 80,199 L 155,201 L 152,223 L 153,296 L 78,294 L 71,246 L 74,216 Z" fill="none" stroke="#80C7C2" stroke-width="28" stroke-linejoin="round" stroke-linecap="round"/>
  <path d="M 248,78 L 278,118 L 299,166 L 198,168 L 199,156 L 214,123 Z" fill="none" stroke="#80C7C2" stroke-width="28" stroke-linejoin="round" stroke-linecap="round"/>
  <path d="M 290,79 L 318,86 L 355,108 L 383,135 L 403,166 L 335,168 L 311,111 Z" fill="none" stroke="#80C7C2" stroke-width="28" stroke-linejoin="round" stroke-linecap="round"/>
  <path d="M 205,79 L 184,111 L 160,168 L 94,168 L 94,161 L 105,144 L 135,112 L 179,85 Z" fill="none" stroke="#80C7C2" stroke-width="28" stroke-linejoin="round" stroke-linecap="round"/>
</svg>