<svg xmlns="http://www.w3.org/2000/svg" viewBox="0 0 496 496">
  <path d="M 415,267 L 408,264 L 397,266 L 390,274 L 389,283 L 439,371 L 439,380 L 432,389 L 423,392 L 290,392 L 288,390 L 311,365 L 308,349 L 301,344 L 290,344 L 234,398 L 234,417 L 286,469 L 301,471 L 311,461 L 310,448 L 288,425 L 290,423 L 433,423 L 450,416 L 464,402 L 471,385 L 469,359 Z" fill="none" stroke="#1C1F3B" stroke-width="28" stroke-linejoin="round" stroke-linecap="round"></path>
  <path d="M 137,192 L 66,208 L 51,219 L 51,231 L 60,240 L 70,241 L 94,234 L 96,237 L 24,366 L 24,385 L 31,402 L 55,421 L 173,423 L 183,413 L 183,402 L 173,392 L 72,392 L 63,389 L 56,380 L 60,363 L 126,251 L 138,285 L 153,289 L 165,278 L 148,204 Z" fill="none" stroke="#1C1F3B" stroke-width="28" stroke-linejoin="round" stroke-linecap="round"></path>
  <path d="M 217,34 L 207,45 L 160,126 L 160,144 L 170,151 L 184,148 L 233,64 L 243,56 L 255,57 L 329,180 L 292,175 L 282,187 L 285,200 L 298,207 L 358,223 L 372,221 L 379,212 L 397,144 L 395,133 L 386,126 L 373,127 L 365,137 L 357,164 L 288,45 L 278,34 L 257,24 L 238,24 Z" fill="none" stroke="#1C1F3B" stroke-width="28" stroke-linejoin="round" stroke-linecap="round"></path>
</svg>