<?xml version="1.0" encoding="UTF-8"?>
<svg id="b" data-name="Calque 2" xmlns="http://www.w3.org/2000/svg" width="216.33" height="110.5" viewBox="0 0 216.33 110.5">
  <g id="c" data-name="Calque 1">
    <path d="M216.31,14.85v35.27c-14.73.33-29.35-2.65-42.76-8.73-9.17-4.3-19.22-6.39-29.34-6.1-10.12-.29-20.18,1.8-29.34,6.1-4.83,2.18-9.81,3.96-14.9,5.32-.91.26-1.83.49-2.75.71-8.19,1.97-16.63,2.88-25.11,2.7-13.85.31-27.6-2.31-40.35-7.67-.81-.34-1.61-.69-2.4-1.05-1.08-.5-2.17-.98-3.28-1.43-8.26-3.34-17.14-4.94-26.08-4.68V.02c14.73-.33,29.35,2.65,42.77,8.72,9.16,4.31,19.21,6.4,29.34,6.1,10.12.3,20.17-1.79,29.33-6.1C114.87,2.68,129.48-.29,144.21.02c14.73-.33,29.34,2.65,42.76,8.72h0c9.17,4.32,19.22,6.4,29.34,6.11Z" style="fill: #80c8c3;"/>
    <path d="M216.33,75.17v35.3c-14.74.33-29.35-2.67-42.77-8.76-9.16-4.31-19.21-6.4-29.33-6.1-10.13-.3-20.18,1.79-29.34,6.1-4.6,2.09-9.36,3.79-14.21,5.15-.92.26-1.85.52-2.77.75-.4.1-.79.19-1.18.28-.55.14-1.11.26-1.66.38-7.52,1.63-15.22,2.37-22.95,2.2-14.73.33-29.34-2.67-42.76-8.76-9.18-4.31-19.23-6.4-29.36-6.1v-35.29c8.84-.2,17.64.79,26.17,2.94,5.68,1.43,11.24,3.37,16.6,5.81,9.17,4.29,19.21,6.37,29.33,6.08,5.96.17,11.9-.48,17.64-1.92,1.16-.29,2.3-.61,3.43-.97.56-.17,1.12-.35,1.68-.55,2.24-.77,4.44-1.66,6.59-2.67,13.43-6.06,28.04-9.03,42.77-8.72h.02c14.73-.34,29.34,2.65,42.76,8.75,9.17,4.31,19.22,6.4,29.34,6.1Z" style="fill: #80c8c3;"/>
  </g>
</svg>